<svg width="285" height="234" viewBox="0 0 285 234" fill="none" xmlns="http://www.w3.org/2000/svg">
    <g clip-path="url(#11b21ynk2a)">
        <path opacity=".75" d="M217.865 143.406v.839l-.004.301c0 .047-.001.094-.003.14 0 .099-.003.197-.005.295v.003c-.004.207-.01.413-.017.619-.003.118-.008.235-.012.352l-.015.35-.016.337-.021.363c-.007.117-.013.233-.022.349a40.707 40.707 0 0 1-.049.696c-.014.196-.03.392-.048.587l-.001.014-.026.3-.004.035-.027.278c-.011.122-.023.242-.036.364-.006.049-.01.099-.017.149-.016.152-.033.303-.051.454-.001.009-.003.017-.003.026l-.025.206c-.013.113-.028.228-.043.341-.013.114-.029.228-.044.341l-.053.396-.04.285c-.05.349-.103.696-.159 1.044l-.052.307c-.018.113-.036.224-.057.337l-.034.196c-.001.006-.004.014-.004.022l-.074.412-.134.705-.044.22c-.027.138-.055.274-.084.412-.044.211-.088.423-.134.633-.012.055-.023.111-.036.166l-.063.283a8.37 8.37 0 0 1-.038.169l-.034.143a2.474 2.474 0 0 1-.03.13c-.009.041-.018.082-.029.122a56.189 56.189 0 0 1-.487 1.945l-.014.057-.013.05-.04.145a50.143 50.143 0 0 1-.385 1.365c-.045.153-.089.305-.135.457l-.056.184-.114.372a79.604 79.604 0 0 1-.498 1.544c-.057.169-.113.336-.171.502-.039.117-.079.233-.12.349l-.027.077-.052.147a6.498 6.498 0 0 1-.059.167l-.07.196c-.011.035-.024.067-.036.099l-.166.459-.183.493-.065.17-.108.29a.271.271 0 0 0-.013.03l-.102.267a77.059 77.059 0 0 1-.623 1.554l-.118.286c-.059.142-.117.282-.178.421a60.236 60.236 0 0 1-.351.816c-.069.158-.138.317-.209.475-.066.152-.134.303-.202.452l-.023.054-.049.104c-.067.148-.134.297-.204.445a37.437 37.437 0 0 1-.244.523c-.017.039-.035.076-.053.113-.077.165-.156.33-.235.492l-.135.282a86.351 86.351 0 0 1-1.604 3.148l-.175.325a76.05 76.05 0 0 1-.609 1.11c-.101.179-.2.357-.301.534l-.228.398a88.43 88.43 0 0 1-1.363 2.298c-.163.267-.325.533-.489.792l-.01.017a97.005 97.005 0 0 1-1.486 2.303l-.214.321a97.011 97.011 0 0 1-1.579 2.283c-.022.034-.045.064-.068.095a97.164 97.164 0 0 1-3.218 4.26 86.666 86.666 0 0 1-2.777 3.299c-.6.676-1.044 1.148-1.285 1.399l-.208.215a101.113 101.113 0 0 1-5.043 4.534 108.804 108.804 0 0 1-9.116 6.885c-.323.22-.647.436-.972.653-.107.071-.213.142-.32.211a116.35 116.35 0 0 1-4.226 2.656c-.157.096-.315.189-.472.282a122.768 122.768 0 0 1-10.098 5.367 125.746 125.746 0 0 1-20.302 7.537c-15.544 4.292-32.337 5.703-49.08 3.172-15.587-2.356-31.134-8.128-45.594-18.17a114.523 114.523 0 0 1-9.365-7.248 117.804 117.804 0 0 1-3.614-3.23 114.88 114.88 0 0 1-2.134-2.035 131.354 131.354 0 0 1-9.946-10.879 146.332 146.332 0 0 1-7.694-10.313l-.178-.261a49.945 49.945 0 0 1-.175-.263 74.259 74.259 0 0 1-.69-1.041 82.066 82.066 0 0 1-1.11-1.737c-.131-.209-.261-.417-.389-.627a45.755 45.755 0 0 1-.38-.622l-.154-.255-.346-.579-.133-.226a42.073 42.073 0 0 1-.29-.495l-.067-.117c-.046-.079-.092-.157-.137-.237a80.109 80.109 0 0 1-.81-1.434l-.031-.057a80.145 80.145 0 0 1-.633-1.166c-.024-.044-.048-.087-.07-.131-.05-.091-.098-.182-.146-.273l-.04-.076c-.11-.206-.218-.415-.326-.622l-.137-.263c-.112-.219-.225-.436-.335-.656-.12-.241-.242-.481-.361-.723a86.145 86.145 0 0 1-1.21-2.53 114.034 114.034 0 0 1-.73-1.622c-.002-.005-.004-.012-.007-.016a81.415 81.415 0 0 1-.367-.848 67.834 67.834 0 0 1-.337-.797c-.07-.167-.14-.335-.208-.502a16.191 16.191 0 0 1-.13-.322 69.75 69.75 0 0 1-.222-.546l-.11-.28-.062-.156c-.04-.099-.078-.198-.116-.298l-.142-.367-.08-.206a4.685 4.685 0 0 1-.07-.187c-.033-.082-.064-.166-.095-.248-.025-.066-.05-.131-.073-.196l-.251-.677c-.013-.035-.023-.067-.037-.1-.005-.017-.012-.035-.019-.053a10.089 10.089 0 0 0-.034-.095l-.225-.627-.04-.111-.116-.327-.03-.089c-.025-.07-.05-.139-.072-.208l-.05-.14-.022-.068c-.093-.269-.184-.54-.275-.81a.09.09 0 0 1-.008-.025c-.047-.138-.092-.277-.138-.415l-.137-.421-.007-.019c-.026-.077-.049-.156-.075-.234l-.176-.555a1.124 1.124 0 0 0-.01-.029c-.087-.277-.172-.555-.256-.832l-.004-.009-.031-.103-.097-.321-.061-.207-.06-.206c-.084-.276-.162-.552-.241-.828l-.014-.054c-.032-.111-.064-.22-.094-.331a24.311 24.311 0 0 1-.11-.396l-.02-.072a35.823 35.823 0 0 1-.113-.416l-.088-.327-.027-.1a34.715 34.715 0 0 1-.157-.601l-.057-.223c-.07-.272-.138-.543-.205-.814l-.012-.05c-.058-.238-.116-.475-.172-.713-.01-.039-.02-.077-.028-.116l-.02-.089c-.044-.187-.088-.373-.13-.56l-.014-.061-.12-.529c0-.003 0-.007-.003-.009l-.101-.459a55.415 55.415 0 0 1-.08-.372l-.02-.091-.083-.387-.013-.062c-.038-.18-.074-.359-.11-.54l-.05-.247a49.788 49.788 0 0 1-.125-.636l-.041-.214c-.004-.018-.008-.035-.01-.053l-.012-.059-.075-.398a32.65 32.65 0 0 1-.097-.532c-.009-.045-.016-.09-.023-.135-.022-.118-.043-.234-.063-.352l-.003-.021-.001-.008-.01-.053c-.005-.031-.009-.061-.015-.091-.013-.068-.023-.135-.035-.202l-.022-.139-.014-.075a14.025 14.025 0 0 1-.08-.48c-.022-.129-.041-.259-.062-.388l-.027-.174a19.957 19.957 0 0 1-.04-.246l-.022-.145c-.036-.225-.07-.449-.102-.675 0-.012-.002-.022-.004-.035a.238.238 0 0 1-.006-.035l-.036-.26-.016-.111-.005-.031-.021-.148v-.004l-.025-.175a5.286 5.286 0 0 1-.022-.166 6.274 6.274 0 0 1-.03-.227 12.35 12.35 0 0 1-.044-.326c-.01-.074-.021-.148-.03-.223l-.017-.128c0-.006 0-.012-.003-.017a7.83 7.83 0 0 1-.04-.321c-.017-.13-.032-.259-.047-.389-.008-.059-.014-.119-.021-.18a65.065 65.065 0 0 1-.072-.621l-.021-.198v-.004a34.997 34.997 0 0 1-.048-.429l-.029-.276-.02-.193-.001-.014c-.004-.032-.008-.063-.01-.095-.016-.154-.03-.309-.044-.463l-.009-.089-.027-.294-.018-.215-.032-.346c-.05-.57-.093-1.141-.132-1.711l-.022-.348a50.233 50.233 0 0 1-.038-.606c-.016-.265-.03-.53-.043-.794l-.002-.037-.008-.153c-.01-.187-.019-.376-.027-.563 0-.022-.003-.044-.003-.067l-.001-.039-.006-.118c0-.039-.002-.076-.003-.115v-.004a42.47 42.47 0 0 1-.024-.579c0-.048-.003-.095-.004-.143l-.014-.463c-.004-.084-.006-.166-.008-.25l-.007-.268c-.004-.147-.008-.294-.01-.443-.003-.098-.004-.197-.006-.295V120.416c-.003-.077-.004-.155-.005-.232v-.122c-.002-.089-.004-.176-.004-.264l-.002-.324-.001-.454c-.001-.193-.003-.388-.001-.583 0-.433.004-.865.01-1.298v-.009c.005-.346.012-.693.021-1.039v-.008l.015-.523c.008-.34.02-.68.034-1.019l.001-.027v-.013l.023-.506v-.005c.007-.174.016-.349.025-.523.008-.176.016-.353.026-.53l.004-.063.007-.122c.005-.093.01-.188.017-.281 0-.028.004-.057.004-.085l.03-.483v-.003c.021-.321.044-.642.067-.963l.008-.104a85.979 85.979 0 0 1 .09-1.15l.004-.017c.017-.216.036-.435.057-.652.022-.252.047-.505.071-.757a110.05 110.05 0 0 1 .2-1.881l.077-.658c.027-.219.053-.439.081-.657l.076-.579.108-.797.016-.11c.022-.161.046-.323.07-.484.03-.219.063-.438.097-.655l.084-.555c.005-.034.01-.068.017-.1a166.955 166.955 0 0 1 .213-1.308c.147-.873.306-1.742.474-2.61l.096-.488.093-.47.007-.03.013-.058c.065-.323.132-.647.2-.97l.11-.513.04-.183c.035-.157.07-.314.103-.47a123.16 123.16 0 0 1 .394-1.703l.054-.228c.161-.669.328-1.336.501-2.002l.115-.44.104-.395a164.99 164.99 0 0 1 .265-.976c.048-.174.096-.348.146-.523.04-.144.08-.29.123-.435.15-.527.304-1.053.462-1.577.054-.184.11-.368.166-.552.132-.43.266-.86.402-1.288.087-.275.175-.55.265-.823.051-.157.102-.317.155-.474a119.443 119.443 0 0 1 1.757-4.96c.197-.52.397-1.038.601-1.555l.09-.225a6.17 6.17 0 0 1 .09-.225l.083-.21.084-.207c.06-.15.12-.3.182-.45l.038-.093.256-.621.241-.578c.246-.584.496-1.167.75-1.747.064-.147.13-.292.194-.437l.263-.59.281-.622a135.322 135.322 0 0 1 .707-1.52l.241-.509a120.368 120.368 0 0 1 1.622-3.27l.068-.134.05-.095.216-.42c.12-.228.239-.456.36-.683.107-.203.214-.406.324-.608a127.991 127.991 0 0 1 2-3.59l.015-.025c.065-.115.132-.228.197-.342l.293-.498c.09-.155.183-.31.276-.465a124.388 124.388 0 0 1 2.598-4.182l.288-.444c.106-.158.21-.317.314-.475.125-.19.252-.38.379-.57.04-.062.084-.124.125-.187l.33-.49a117.729 117.729 0 0 1 1.218-1.763c.303-.43.61-.86.918-1.288l.281-.39c.841-1.154 1.7-2.293 2.578-3.417.056-.072.111-.143.169-.215.133-.172.27-.343.405-.514.312-.395.628-.788.946-1.179l.388-.476c.319-.386.638-.771.96-1.155l.446-.528a151.269 151.269 0 0 1 .963-1.118l.355-.404c.24-.272.48-.545.722-.815.123-.137.245-.274.37-.41.15-.17.304-.338.457-.506.335-.367.671-.73 1.01-1.092l.496-.527.257-.27.33-.346c.304-.317.609-.63.915-.942C57.461 12.339 87.769-.977 119.753 4.04 126.5 5.1 132.458 6.393 137.731 7.9c1.679.48 3.287.981 4.83 1.502 27.766 9.392 34.131 25.534 38.692 44.242.107.44.212.882.318 1.324l.315 1.332c.208.891.414 1.787.621 2.687.247 1.08.495 2.168.746 3.26.522 2.27 1.06 4.565 1.644 6.878v.003c.141.556.284 1.112.431 1.672.072.281.147.56.222.841.225.839.456 1.681.698 2.525v.003a123.578 123.578 0 0 0 1.568 5.084 128.113 128.113 0 0 0 .583 1.704c.112.323.228.645.345.967.09.246.18.493.273.74.065.176.132.352.199.527a74.26 74.26 0 0 0 .872 2.215 80.67 80.67 0 0 0 6.053 11.967c.107.175.217.35.326.525a78.337 78.337 0 0 0 4.269 6.118c.11.141.219.283.33.423l.143.183c.048.061.097.122.144.184a87.918 87.918 0 0 0 1.072 1.324c.35.422.706.844 1.068 1.264a69.96 69.96 0 0 1 2.784 3.435 66.018 66.018 0 0 1 1.983 2.755 61.585 61.585 0 0 1 1.699 2.638l.034.055c.088.144.173.286.258.429l.229.388.075.126c.05.088.102.175.151.263.083.143.164.286.245.429.066.116.13.232.194.347l.026.046.189.342.238.44.178.336.201.388.155.301.234.466.189.384.285.593.155.331a61.975 61.975 0 0 1 .75 1.686l.03.072.16.383.156.382c.043.104.084.209.126.313l.027.069.148.38a59.68 59.68 0 0 1 .427 1.145l.135.38.147.425.119.35.112.34.039.12c.071.222.142.445.211.667l.005.017.077.252.032.111.049.163.063.216a54.056 54.056 0 0 1 .186.651l.029.108a10.79 10.79 0 0 1 .103.378l.099.378.013.044.017.068.023.09c.016.058.03.117.043.175l.053.208.041.167c.036.149.072.299.106.447l.039.162.032.147.022.094.053.237c.025.111.048.222.071.332.007.03.014.059.019.089.025.116.049.23.072.346l.026.129.017.086c.039.188.074.375.11.561l.008.045.037.201.023.131a7.131 7.131 0 0 1 .052.286l.06.354.032.188.035.225.01.067c.009.049.016.096.023.143.013.077.023.153.035.23l.03.2.025.172.03.21.021.162c.017.116.031.232.048.346l.003.024c.013.098.023.194.035.291l.001.001.009.08.016.124.011.1.016.146.012.103.027.247.003.019.036.37.004.033.013.131v.004l.018.201c.022.246.044.492.062.736l.007.085.006.084c.005.067.01.133.013.199l.026.386c.004.047.006.094.009.142.005.068.008.137.012.206l.003.055.016.31a43.29 43.29 0 0 1 .041 1.094l.003.081c.003.073.005.147.005.22a35.874 35.874 0 0 1 .008.426c.001.031 0 .063.002.094l.001.198-.004.003z" fill="#F5F7FD"/>
        <path d="M217.865 143.407v.838l-.004.301c0 .047-.001.094-.003.14l-.005.295v.004c-.005.206-.01.412-.017.618l-.012.353-.015.349-.016.337-.021.363a38.42 38.42 0 0 1-.045.698l-.026.348c-.014.196-.03.391-.048.586l-.001.014a15.283 15.283 0 0 1-.03.335l-.027.278c-.012.122-.023.242-.037.364-.005.049-.009.1-.016.149l-.051.454c-.001.009-.003.017-.003.026l-.025.206c-.013.113-.028.228-.043.342-.013.113-.029.227-.044.34l-.053.396-.04.285c-.05.349-.103.696-.159 1.044l-.052.307c-.018.113-.037.224-.057.337l-.034.196-.005.022a58.245 58.245 0 0 1-.208 1.117l-.043.22a117.72 117.72 0 0 1-.218 1.045c-.013.055-.023.112-.037.166l-.062.283-.038.17-.034.143a2.69 2.69 0 0 1-.03.129 65.133 65.133 0 0 1-.516 2.067l-.014.057-.013.05-.04.145a49.392 49.392 0 0 1-.385 1.365l-.135.458-.056.183-.115.372a67.881 67.881 0 0 1-.668 2.047c-.039.117-.08.233-.121.349l-.026.076-.052.147-.059.168-.071.196c-.01.034-.023.066-.035.099l-.166.458-.183.493-.065.171-.108.289-.116.296a70.157 70.157 0 0 1-.618 1.546c-.001.003-.002.007-.004.009l-.118.286c-.059.142-.117.281-.178.42a60.236 60.236 0 0 1-.351.816c-.069.158-.138.317-.209.475h-.001c-.067.152-.133.303-.201.453l-.024.053-.048.104c-.068.148-.135.297-.204.445-.062.135-.124.269-.187.402-.018.041-.038.082-.057.121l-.053.113c-.077.165-.156.33-.235.493l-.135.281a86.351 86.351 0 0 1-2.126 4.111l-.262.472c-.101.18-.2.358-.301.534l-.228.398a90.222 90.222 0 0 1-1.852 3.091l-.01.016a97.005 97.005 0 0 1-1.486 2.303l-.214.321a94.97 94.97 0 0 1-1.579 2.283c-.022.034-.045.064-.068.096a96.932 96.932 0 0 1-4.422 5.731l-.163.193a76.4 76.4 0 0 1-1.268 1.473l-.142.162a52.66 52.66 0 0 1-1.285 1.399l-.208.215a101.823 101.823 0 0 1-5.043 4.533 109.2 109.2 0 0 1-9.116 6.886 109.865 109.865 0 0 1-1.292.864 116.908 116.908 0 0 1-5.942 3.666h-.001a122.745 122.745 0 0 1-8.853 4.638 125.844 125.844 0 0 1-20.302 7.538c-15.544 4.291-32.337 5.702-49.08 3.171-15.587-2.356-31.134-8.127-45.594-18.17a113.552 113.552 0 0 1-4.426-3.234 117.279 117.279 0 0 1-7.25-6.049 118.53 118.53 0 0 1-3.437-3.229 131.37 131.37 0 0 1-9.946-10.88 146.3 146.3 0 0 1-7.694-10.313l-.178-.261-.175-.262a74.146 74.146 0 0 1-.69-1.041 99.74 99.74 0 0 1-1.11-1.738c-.131-.209-.262-.417-.39-.626a62.608 62.608 0 0 1-.379-.622l-.154-.256c-.116-.192-.231-.386-.346-.579l-.133-.226c-.098-.165-.195-.33-.29-.495l-.067-.117-.137-.236a87.748 87.748 0 0 1-1.26-2.256l-.018-.035a28.052 28.052 0 0 1-.196-.367c-.024-.043-.048-.086-.07-.131-.05-.09-.098-.182-.146-.273l-.04-.075c-.11-.207-.218-.416-.326-.623l-.137-.263c-.112-.219-.225-.436-.335-.656A91.255 91.255 0 0 1 9 160.336a143.548 143.548 0 0 1-.372-.819l-.357-.803-.007-.016c-.12-.273-.24-.547-.355-.821l-.013-.027a75.71 75.71 0 0 1-.336-.796l-.208-.503a16.19 16.19 0 0 1-.13-.322 56.87 56.87 0 0 1-.222-.546l-.11-.28-.062-.156c-.04-.099-.079-.198-.116-.298l-.142-.367a8.508 8.508 0 0 1-.08-.206 19.769 19.769 0 0 1-.238-.631c-.085-.225-.168-.452-.251-.677l-.037-.1c-.005-.017-.013-.035-.019-.053l-.034-.094-.226-.628-.039-.111c-.04-.108-.078-.218-.116-.327l-.03-.089a9.56 9.56 0 0 1-.072-.208l-.05-.14a.985.985 0 0 1-.022-.067c-.093-.27-.184-.541-.275-.81-.003-.009-.007-.018-.008-.026a56.528 56.528 0 0 1-.275-.836l-.007-.019c-.026-.077-.049-.156-.075-.234l-.177-.554a.574.574 0 0 0-.008-.03c-.088-.277-.173-.555-.258-.832l-.003-.009-.031-.103c-.033-.107-.066-.214-.097-.321a21.815 21.815 0 0 1-.121-.414 21.801 21.801 0 0 1-.066-.227c-.046-.157-.092-.312-.135-.468a44.932 44.932 0 0 1-.256-.914l-.02-.073a35.87 35.87 0 0 1-.113-.415l-.089-.328a14.949 14.949 0 0 1-.077-.289l-.047-.19-.06-.221c-.018-.075-.038-.148-.057-.223a90.33 90.33 0 0 1-.204-.814l-.012-.05a103.39 103.39 0 0 1-.173-.712l-.027-.117-.02-.088c-.045-.187-.088-.373-.13-.56a111.301 111.301 0 0 1-.134-.59c-.001-.004-.001-.007-.003-.01l-.102-.459-.08-.372-.02-.091-.083-.386-.012-.062c-.038-.18-.074-.36-.11-.541a46.442 46.442 0 0 1-.175-.883l-.042-.214-.01-.053-.011-.059-.075-.397-.062-.341a17.39 17.39 0 0 1-.059-.327c-.018-.108-.036-.215-.056-.325-.003-.016-.005-.032-.01-.048v-.008l-.01-.053-.016-.091-.034-.202c-.013-.071-.025-.142-.036-.214a13.242 13.242 0 0 1-.08-.479c-.022-.13-.042-.259-.062-.389l-.028-.173a23.458 23.458 0 0 1-.039-.247l-.022-.144-.067-.447-.04-.264a.202.202 0 0 1-.005-.035l-.036-.26c-.006-.036-.01-.074-.017-.11 0-.01-.003-.022-.004-.032l-.021-.148v-.004c-.01-.058-.017-.117-.025-.175a5.65 5.65 0 0 1-.023-.165 6.33 6.33 0 0 1-.03-.228 27.343 27.343 0 0 1-.1-.777c-.009-.053-.015-.106-.022-.158a2.387 2.387 0 0 1-.01-.079l-.028-.237a69.228 69.228 0 0 1-.112-.953l-.02-.197v-.005c-.018-.143-.033-.286-.048-.429l-.014-.145-.015-.13-.02-.192-.001-.015-.001-.018a25.847 25.847 0 0 1-.053-.541c-.003-.03-.007-.059-.009-.089-.01-.098-.018-.196-.026-.294-.008-.072-.013-.143-.02-.215-.009-.116-.02-.23-.03-.346-.008-.086-.015-.171-.02-.255a68.804 68.804 0 0 1-.112-1.456c-.009-.116-.015-.232-.023-.348l-.032-.508-.005-.098c-.016-.265-.03-.53-.044-.794 0-.013 0-.025-.002-.037l-.008-.153a59.4 59.4 0 0 1-.027-.563l-.003-.066-.001-.04-.005-.118c-.003-.039-.004-.08-.005-.119a41.824 41.824 0 0 1-.022-.579l-.005-.142-.014-.463c-.004-.085-.005-.167-.008-.251l-.007-.267c-.005-.247-.012-.493-.016-.738v-.027l-.001-.09a23.54 23.54 0 0 1-.005-.355l-.004-.264-.002-.324v-.454a105.037 105.037 0 0 1 .009-1.881v-.009c.005-.346.012-.693.02-1.039v-.007a102.664 102.664 0 0 1 .05-1.543v-.04l.023-.506v-.004c.007-.175.016-.349.025-.524a52.46 52.46 0 0 1 .03-.592l.008-.122.016-.282.005-.084.03-.484v-.003c.02-.321.043-.642.066-.963l.008-.104c.013-.167.025-.332.039-.497l.052-.653.003-.016c.018-.217.037-.436.057-.653.022-.252.047-.505.072-.756.022-.23.044-.462.07-.694.04-.395.084-.792.13-1.187.024-.22.051-.439.076-.658l.081-.658.076-.579.108-.796.016-.111.07-.484a101.93 101.93 0 0 1 .182-1.21l.016-.1.105-.654.109-.654a112.514 112.514 0 0 1 .57-3.098l.093-.469.006-.03c.003-.021.008-.04.012-.059l.2-.97.111-.513.04-.183.103-.47a123.16 123.16 0 0 1 .393-1.702l.055-.229c.16-.669.328-1.336.5-2.002.04-.147.077-.294.116-.44.034-.131.07-.263.103-.395L4 89.365c.038-.143.076-.286.116-.429l.147-.522a106.328 106.328 0 0 1 .585-2.012c.054-.185.11-.37.165-.553.133-.43.266-.86.402-1.288.088-.274.175-.55.265-.823l.156-.474a119.293 119.293 0 0 1 1.756-4.96c.197-.519.397-1.038.602-1.555l.089-.225.045-.112c.014-.04.03-.077.044-.116l.084-.206.084-.208c.06-.149.12-.3.182-.45l.039-.093a114.763 114.763 0 0 1 .497-1.2c.245-.583.496-1.165.75-1.746l.193-.436c.088-.197.175-.394.264-.59l.28-.623a136.497 136.497 0 0 1 .707-1.52l.242-.509a98.784 98.784 0 0 1 .9-1.846c.237-.475.479-.95.721-1.425l.068-.133.05-.098.217-.417c.119-.227.238-.456.359-.682.108-.204.215-.407.325-.61l.342-.635a127.717 127.717 0 0 1 1.658-2.953l.014-.026.198-.341c.097-.167.194-.333.292-.498.09-.156.183-.31.276-.465a124.379 124.379 0 0 1 2.599-4.183c.096-.148.191-.296.288-.443l.314-.476.378-.57.125-.187.33-.49a118.647 118.647 0 0 1 1.218-1.762 143.26 143.26 0 0 1 1.2-1.678c.84-1.155 1.7-2.294 2.577-3.418l.17-.215c.133-.171.269-.343.404-.514.313-.395.629-.788.947-1.179.129-.158.258-.318.388-.475.319-.387.637-.772.96-1.156l.446-.528.493-.576.47-.542c.118-.134.235-.269.355-.404a125.76 125.76 0 0 1 1.09-1.225c.152-.17.306-.337.459-.506.334-.366.67-.73 1.01-1.092l.495-.527.257-.27.33-.346c.304-.316.61-.63.916-.942 14.831 1.5 28.044 7.253 40.557 14.34 13.76 7.79 26.672 17.19 39.962 24.317a126.903 126.903 0 0 0 8.646 4.246c3.938 1.739 7.928 3.214 12.004 4.328 3.965 1.085 7.58 1.739 10.874 2.03 32.825 2.908 33.858-30.103 33.869-30.509l.319 1.318.315 1.332c.208.891.414 1.787.621 2.687.247 1.08.494 2.167.746 3.26a326.53 326.53 0 0 0 1.644 6.88c.139.557.283 1.115.43 1.672.073.282.148.561.223.842a150.616 150.616 0 0 0 1.192 4.217 111.937 111.937 0 0 0 2.274 6.805l.199.528c.095.251.191.503.29.754.188.487.383.974.583 1.46a80.67 80.67 0 0 0 6.053 11.967c.107.176.217.35.326.526a78.34 78.34 0 0 0 3.309 4.846c.105.142.209.283.316.424.212.284.426.566.644.848l.329.423.144.183.146.184a75.019 75.019 0 0 0 2.139 2.588 71.633 71.633 0 0 1 2.784 3.435c.638.841 1.244 1.68 1.822 2.521h.001l.159.234a61.585 61.585 0 0 1 1.734 2.693h.001l.257.429.229.388c.025.041.049.084.072.125.053.089.103.175.153.264a30.29 30.29 0 0 1 .439.776l.026.046.188.342c.081.147.159.294.239.44l.177.336.202.388.155.301.234.466.189.384c.096.198.191.396.284.593.053.11.104.22.156.331a58.212 58.212 0 0 1 .749 1.686l.031.072.16.382.156.383c.043.104.084.209.126.313l.026.069.149.38a59.68 59.68 0 0 1 .427 1.145c.046.126.09.253.135.38l.147.425.119.35c.036.112.075.226.111.34l.04.12c.071.222.142.445.21.667l.006.017.076.251.034.112.049.163.063.216.11.379.076.271.029.108c.031.111.062.221.09.33l.013.049a20.113 20.113 0 0 1 .129.49c.008.031.016.061.022.09.034.128.066.256.097.384l.041.167.106.447c.013.054.024.108.038.162l.055.241.053.237a19.646 19.646 0 0 1 .09.421c.025.116.049.23.072.346l.026.129.017.086c.038.188.074.375.11.561a.707.707 0 0 0 .008.045l.036.2.023.132a6.07 6.07 0 0 1 .052.286l.061.354.031.188.036.225.01.067c.009.049.016.095.023.143l.035.229c.01.068.018.134.029.201l.026.172.03.21.021.162c.017.116.031.232.047.346l.004.023c.012.098.023.196.036.293l.025.203c.003.034.008.067.01.1l.028.248.027.247.002.019c.014.124.026.247.037.37l.004.033.013.131v.004l.016.183.003.018c.022.246.043.492.061.736l.007.085.007.084.013.199.026.386.009.142.011.206.004.055.016.31c.016.318.028.636.037.955l.007.22a16.146 16.146 0 0 1 .008.318l.006.422.001.198.004.02z" fill="#E0E9FF"/>
        <path d="M217.865 143.406v.839l-.004.301c0 .047-.001.094-.003.14l-.005.295v.003a63.067 63.067 0 0 1-.03.972l-.014.349-.016.337-.021.363a38.42 38.42 0 0 1-.045.698l-.026.348c-.014.196-.031.39-.048.586l-.001.014a14.53 14.53 0 0 1-.03.335l-.027.278c-.012.122-.023.242-.037.364-.005.049-.009.099-.016.149l-.052.454-.002.026-.025.206-.043.342c-.013.113-.029.227-.044.34l-.053.396-.04.285c-.05.349-.103.696-.159 1.044l-.052.307a19.747 19.747 0 0 1-.091.533l-.005.022a58.245 58.245 0 0 1-.208 1.117l-.043.22a117.72 117.72 0 0 1-.218 1.045c-.013.055-.023.111-.037.166l-.062.283-.039.17c-.011.048-.021.095-.034.143a4.353 4.353 0 0 1-.058.251c-.028.123-.058.244-.086.364a64.056 64.056 0 0 1-.401 1.581l-.014.057-.014.05c-.013.049-.025.097-.039.145a49.392 49.392 0 0 1-.385 1.365l-.135.457-.056.184-.115.372a67.881 67.881 0 0 1-.668 2.047c-.039.116-.08.232-.121.348l-.026.077-.052.147-.059.168-.071.196c-.01.034-.023.066-.035.098l-.166.459-.183.493-.066.171-.12.318a70.157 70.157 0 0 1-.721 1.812c-.001.004-.002.008-.004.009l-.119.286a60.236 60.236 0 0 1-.528 1.237c-.07.158-.138.317-.209.475l-.203.453a.846.846 0 0 0-.023.053l-.049.104c-.068.148-.134.297-.204.445a37.437 37.437 0 0 1-.244.523l-.053.113c-.077.165-.156.33-.235.492l-.135.282a86.351 86.351 0 0 1-1.604 3.148l-.175.325a76.05 76.05 0 0 1-.609 1.11c-.101.18-.2.358-.301.534l-.228.398a88.43 88.43 0 0 1-1.363 2.298c-.163.267-.326.533-.489.793-.003.005-.007.009-.01.016a97.005 97.005 0 0 1-1.486 2.303l-.214.321a97.011 97.011 0 0 1-1.579 2.283c-.022.034-.045.064-.068.095a97.008 97.008 0 0 1-4.422 5.732l-.163.193a76.4 76.4 0 0 1-1.268 1.473c-.048.055-.096.108-.142.162a52.66 52.66 0 0 1-1.285 1.399c-.136.142-.208.214-.208.214a101.823 101.823 0 0 1-5.043 4.534 108.804 108.804 0 0 1-9.116 6.885 91.67 91.67 0 0 1-1.292.865 119.177 119.177 0 0 1-4.226 2.656c-.157.095-.315.188-.472.281a122.768 122.768 0 0 1-10.098 5.367 125.746 125.746 0 0 1-20.302 7.537c-15.544 4.292-32.337 5.703-49.08 3.172-15.587-2.356-31.134-8.128-45.594-18.17a113.628 113.628 0 0 1-4.426-3.234 117.408 117.408 0 0 1-7.25-6.049 122.225 122.225 0 0 1-3.437-3.229 131.53 131.53 0 0 1-9.946-10.88 146.3 146.3 0 0 1-7.694-10.313l-.178-.261-.174-.262c-.067-.099-.135-.199-.2-.299a64.303 64.303 0 0 1-.49-.743 82.066 82.066 0 0 1-.964-1.5l-.148-.237c-.13-.209-.26-.417-.388-.626a52.995 52.995 0 0 1-.38-.623l-.154-.255c-.116-.192-.231-.386-.346-.579l-.133-.226a42.073 42.073 0 0 1-.29-.495l-.067-.117-.137-.236a83.17 83.17 0 0 1-.841-1.492c-.142-.255-.28-.51-.418-.764l-.019-.035a28.052 28.052 0 0 1-.196-.367c-.024-.044-.048-.089-.07-.133-.05-.09-.098-.181-.146-.272l-.04-.075c-.11-.207-.218-.416-.326-.623l-.137-.263c-.112-.219-.225-.436-.335-.656a91.493 91.493 0 0 1-1.944-4.072l-.357-.803-.007-.016a107.837 107.837 0 0 1-1.042-2.469l-.332-.825-.061-.156c-.04-.099-.079-.198-.116-.298l-.142-.367a10.483 10.483 0 0 1-.08-.206 4.67 4.67 0 0 1-.07-.187l-.169-.444-.251-.677-.037-.1c-.005-.017-.013-.035-.019-.053a10.089 10.089 0 0 0-.034-.095l-.225-.627-.04-.111a55.339 55.339 0 0 1-.218-.624l-.072-.207c-.093-.27-.184-.541-.275-.811a111.027 111.027 0 0 1-.283-.861l-.007-.019c-.026-.077-.049-.156-.075-.234l-.177-.554a.565.565 0 0 0-.008-.03c-.088-.277-.173-.555-.258-.832l-.003-.009-.031-.103c-.064-.214-.128-.427-.19-.641a21.56 21.56 0 0 1-.094-.32c-.046-.157-.092-.312-.135-.468l-.04-.133-.014-.054a19.872 19.872 0 0 1-.183-.662.887.887 0 0 1-.02-.065l-.02-.073a36.025 36.025 0 0 1-.112-.416l-.089-.327a14.642 14.642 0 0 1-.077-.289l-.047-.19-.06-.221c-.018-.075-.038-.149-.057-.223-.07-.272-.137-.542-.204-.814l-.012-.05-.173-.712-.027-.117-.02-.088a63.348 63.348 0 0 1-.145-.622l-.12-.528c0-.004 0-.008-.002-.01l-.102-.459a54.8 54.8 0 0 1-.079-.372l-.02-.091-.084-.387-.012-.062c-.038-.179-.074-.359-.11-.54a49.443 49.443 0 0 1-.175-.883l-.042-.214-.01-.053-.011-.059-.075-.398-.062-.34a17.47 17.47 0 0 1-.059-.327c-.018-.108-.036-.216-.056-.325-.003-.017-.005-.032-.01-.048v-.008l-.01-.053-.016-.091-.034-.202c-.013-.071-.025-.142-.036-.214a14.025 14.025 0 0 1-.08-.48c-.022-.129-.042-.258-.062-.388l-.028-.173a23.991 23.991 0 0 1-.039-.247l-.022-.145-.067-.446-.035-.229c0-.012-.003-.022-.004-.035a.219.219 0 0 1-.006-.035l-.036-.26c-.006-.037-.01-.074-.017-.11 0-.01-.003-.022-.004-.032l-.01-.075-.011-.073v-.004c-.01-.058-.017-.117-.025-.175a5.286 5.286 0 0 1-.023-.166 6.274 6.274 0 0 1-.03-.227 12.35 12.35 0 0 1-.044-.326l-.03-.223-.016-.128c-.001-.006-.001-.012-.003-.017-.003-.028-.007-.055-.009-.084l-.021-.158a2.387 2.387 0 0 1-.01-.079l-.028-.238a3.823 3.823 0 0 1-.018-.151l-.022-.179a69.228 69.228 0 0 1-.071-.622l-.022-.198v-.004c-.017-.143-.032-.286-.047-.429l-.014-.145-.015-.13-.02-.193-.001-.014v-.018a25.847 25.847 0 0 1-.053-.541c-.004-.03-.008-.06-.01-.089-.01-.098-.018-.196-.026-.294l-.019-.215-.031-.346a12.938 12.938 0 0 1-.02-.256 68.804 68.804 0 0 1-.112-1.455l-.023-.348-.032-.508-.005-.098c-.016-.265-.03-.53-.044-.794 0-.013 0-.025-.002-.037l-.008-.153c-.01-.187-.018-.376-.026-.563l-.004-.066v-.04c-.003-.039-.005-.079-.006-.118-.003-.039-.004-.08-.005-.119a42.437 42.437 0 0 1-.022-.579l-.005-.142-.014-.463-.008-.251-.007-.267-.01-.444-.005-.295v-.027l-.001-.089c-.003-.078-.004-.156-.005-.232v-.123l-.004-.264-.002-.324v-.454a105.037 105.037 0 0 1 .009-1.881v-.009c.005-.346.012-.693.02-1.039v-.007a102.652 102.652 0 0 1 .05-1.543v-.04l.023-.506v-.005c.007-.174.016-.348.025-.523.008-.176.017-.353.027-.529 0-.022.002-.044.003-.063l.008-.122.016-.282.005-.085.03-.483v-.003c.02-.321.043-.642.066-.963l.008-.104.039-.498a62.263 62.263 0 0 1 2.123-2.005 58.278 58.278 0 0 1 5.724-4.556 55.897 55.897 0 0 1 3.035-1.962 51.4 51.4 0 0 1 12.884-5.516c11.29-3.095 23.246-2.273 35.169.866a113.81 113.81 0 0 1 9.36 2.918c4.14 1.482 8.253 3.195 12.308 5.071 1.052.486 2.101.985 3.144 1.492a215.207 215.207 0 0 1 10.728 5.607c5.667 3.154 11.137 6.487 16.318 9.788.481.305.96.612 1.436.918a719.654 719.654 0 0 1 11.213 7.373c6.153 4.111 12.72 6.563 19.428 7.768.39.07.778.135 1.169.196.276.045.552.087.828.126 4.886.699 9.832.762 14.736.348l.01-.001a81.594 81.594 0 0 0 7.033-.911 89.456 89.456 0 0 0 3.503-.678 105.614 105.614 0 0 0 10.609-2.875 126.658 126.658 0 0 0 6.429-2.297c9.863-3.827 18.43-8.521 24.461-12.203l.154.3c.08.156.157.312.235.467l.188.383c.097.198.191.396.285.593l.155.331c.155.331.303.662.449.993.102.232.202.463.301.694l.03.072c.054.126.107.255.16.382.053.127.105.255.156.382.043.104.084.209.126.314l.027.068.148.38.147.382c.096.255.19.508.281.763l.134.38.148.426.118.349.112.34.039.121c.072.221.142.444.211.666l.115.38.049.163.064.216c.036.127.074.253.109.379l.106.38c.034.126.069.251.102.377l.099.378c.032.126.066.252.097.378l.052.207.041.168.107.446c.012.054.024.108.038.162.012.05.022.098.032.147.026.11.05.221.075.332.025.11.048.221.072.331a31.083 31.083 0 0 1 .133.65 30.77 30.77 0 0 1 .155.807l.023.131.052.286.061.354.031.188.036.225c.003.023.007.045.009.068.021.125.04.248.058.372.01.067.019.134.03.2l.025.172.052.372c.03.221.058.441.084.662l.01.081c.014.124.03.246.043.37.028.247.054.494.079.739 0 .012.002.022.003.033l.03.318.002.018c.023.247.044.492.062.737l.007.084c.006.094.013.189.021.283l.025.386.021.348.004.055c.005.103.009.207.016.31a57.71 57.71 0 0 1 .056 1.821c.001.098.003.194.003.292v.013z" fill="#9FBFF8"/>
        <path opacity=".3" d="m216.773 154.849-.044.221c-.027.137-.054.274-.084.411-.043.212-.088.423-.134.633-.012.055-.023.112-.036.167l-.063.282-.038.17c-.012.049-.021.095-.034.143l-.029.129a61.911 61.911 0 0 1-.516 2.068l-.015.056-.013.05-.039.145c-.041.153-.083.306-.126.458-.047.172-.096.343-.146.514-.036.131-.075.263-.114.393-.044.153-.089.306-.135.458-.018.061-.036.122-.056.183l-.114.372a77.447 77.447 0 0 1-.789 2.396l-.027.076-.052.148c-.018.056-.039.111-.059.167l-.07.196a1.666 1.666 0 0 1-.036.099c-.054.153-.111.306-.166.458-.061.165-.121.329-.183.493l-.065.171-.12.318a85.432 85.432 0 0 1-.65 1.641l-.05.122-.022.05c-.001.003-.001.007-.003.009l-.119.286c-.059.142-.117.281-.178.421l-.147.346-.203.469-.209.476-.204.452a.846.846 0 0 0-.023.053h-.001l-.047.104c-.068.149-.135.297-.205.445-.061.135-.124.269-.186.402a14.28 14.28 0 0 1-.057.122l-.054.112c-.077.166-.155.33-.235.493l-.134.281a87.977 87.977 0 0 1-2.126 4.111c-.088.157-.174.315-.263.472-.101.18-.2.358-.301.534l-.227.399a95.075 95.075 0 0 1-1.363 2.298c-.164.267-.326.532-.489.792a97.106 97.106 0 0 1-1.496 2.32l-.215.321a99.182 99.182 0 0 1-1.578 2.283c-.023.034-.045.063-.068.095a97.123 97.123 0 0 1-4.422 5.731l-.164.193c-.47.56-.896 1.052-1.267 1.473l-.143.162c-.6.675-1.043 1.147-1.284 1.399l-.208.215a101.732 101.732 0 0 1-5.043 4.533 108.84 108.84 0 0 1-6.761 5.246 109.24 109.24 0 0 1-3.648 2.504 116.865 116.865 0 0 1-4.697 2.937c-.413.246-.828.489-1.244.73h-.001a122.36 122.36 0 0 1-8.854 4.637 125.714 125.714 0 0 1-20.302 7.538c-15.544 4.291-32.337 5.702-49.08 3.171-15.587-2.356-31.134-8.127-45.593-18.17a113.476 113.476 0 0 1-4.427-3.234 116.56 116.56 0 0 1-4.938-4.014 114.258 114.258 0 0 1-3.614-3.229 122.225 122.225 0 0 1-2.135-2.035 131.191 131.191 0 0 1-9.946-10.88 146.07 146.07 0 0 1-7.694-10.313l-.177-.26-.174-.263H16.8a57.453 57.453 0 0 1-.69-1.041 82.198 82.198 0 0 1-.963-1.501c-.05-.079-.1-.157-.148-.236-.13-.21-.261-.417-.389-.627a62.618 62.618 0 0 1-.379-.622l-.154-.256a84.338 84.338 0 0 1-.347-.579l-.133-.225a42.161 42.161 0 0 1-.289-.496l-.068-.117c-.045-.079-.092-.157-.136-.236a87.755 87.755 0 0 1-1.26-2.256c-.007-.013-.013-.023-.018-.035a22.818 22.818 0 0 1-.197-.367l-.07-.133c-.05-.09-.098-.181-.146-.271l-.04-.076c-.11-.207-.218-.415-.326-.622-.045-.088-.092-.176-.136-.264-.113-.218-.225-.436-.335-.655a91.731 91.731 0 0 1-1.572-3.253l-.372-.819c-.12-.268-.24-.536-.357-.803l-.007-.016c-.12-.274-.24-.548-.356-.821l-.348-.824a92.506 92.506 0 0 1-.67-1.65l-.062-.155c-.039-.099-.078-.198-.116-.299l-.142-.367a8.508 8.508 0 0 1-.079-.206 4.685 4.685 0 0 1-.071-.187l-.168-.444c-.085-.225-.168-.451-.252-.677l-.036-.1-.02-.053c-.01-.032-.022-.063-.033-.094l-.226-.628-.04-.11-.146-.417a11.7 11.7 0 0 1-.072-.207l-.071-.208a143.886 143.886 0 0 1-.283-.835c-.093-.278-.184-.557-.275-.837l-.007-.018-.075-.234-.177-.555a.565.565 0 0 0-.009-.03c-.087-.277-.172-.554-.257-.831a.037.037 0 0 0-.004-.009l-.03-.104c-.064-.214-.128-.427-.19-.641l-.029-.092a21.972 21.972 0 0 1-.066-.228c-.045-.156-.092-.312-.134-.467l-.04-.134-.014-.054a22.91 22.91 0 0 1-.094-.33l-.09-.331a.912.912 0 0 1-.019-.066l-.02-.073a35.87 35.87 0 0 1-.113-.415l-.088-.327a14.949 14.949 0 0 1-.077-.29c-.017-.063-.032-.126-.048-.19l-.059-.221-.057-.223a82.59 82.59 0 0 1-.204-.814l-.013-.05a103.39 103.39 0 0 1-.172-.712l-.028-.117-.02-.088c-.044-.187-.088-.373-.13-.56l-.014-.061-.12-.529c0-.004 0-.007-.002-.01l-.102-.458-.08-.373-.02-.091-.083-.386-.013-.062c-.038-.18-.074-.36-.11-.541l-.05-.247a43.518 43.518 0 0 1-.125-.636l-.041-.214-.01-.053-.012-.059-.075-.397-.061-.341a18.96 18.96 0 0 1-.06-.326l-.055-.326-.01-.048-.001-.008-.009-.053-.016-.091c-.013-.067-.023-.134-.035-.202-.012-.071-.025-.142-.036-.214a13.242 13.242 0 0 1-.08-.479l-.061-.389a28.681 28.681 0 0 1-.067-.419l-.023-.145-.067-.447-.034-.228-.005-.036a.203.203 0 0 1-.005-.035l-.037-.259-.016-.111c0-.01-.004-.022-.004-.032-.004-.026-.008-.05-.01-.075l-.012-.073v-.003a11.914 11.914 0 0 1-.025-.176c-.008-.055-.016-.11-.022-.165a6.33 6.33 0 0 1-.03-.228 12.86 12.86 0 0 1-.044-.325l-.03-.223-.017-.129c0-.005 0-.011-.002-.017l-.01-.083-.02-.159a2.384 2.384 0 0 1-.01-.079c-.01-.079-.02-.158-.028-.237a4.357 4.357 0 0 1-.019-.151l-.021-.18-.072-.621-.021-.198v-.005c-.017-.143-.032-.286-.047-.429l-.015-.144-.014-.131-.02-.192-.001-.015-.001-.018a16.343 16.343 0 0 1-.088-.924c-.008-.072-.013-.143-.02-.215l-.03-.346c-.009-.085-.015-.171-.021-.255a68.785 68.785 0 0 1-.112-1.456l-.022-.348c-.012-.17-.022-.339-.032-.508l-.006-.098c-.016-.264-.03-.529-.043-.794l-.002-.037-.008-.153a59.17 59.17 0 0 1-.027-.562c0-.023-.003-.044-.004-.067v-.04l-.006-.117a41.826 41.826 0 0 1-.027-.699c0-.048-.003-.094-.004-.142a86.13 86.13 0 0 1-.014-.463c-.004-.085-.006-.166-.008-.251 3.372.527 6.739 1.323 10.102 2.349a80.53 80.53 0 0 1 3.277 1.069c16.842 5.855 33.606 17.106 50.478 28.572.61.417 1.223.833 1.835 1.249 2.119 1.44 4.24 2.881 6.363 4.313a608.394 608.394 0 0 0 9.176 6.084 347.82 347.82 0 0 0 7.544 4.766 237.612 237.612 0 0 0 8.047 4.731c.622.349 1.245.693 1.868 1.034l.493.268a168.217 168.217 0 0 0 5.575 2.892 130.313 130.313 0 0 0 8.844 3.986c6.751 2.731 13.547 4.722 20.399 5.666.633.088 1.267.167 1.902.237h.001l.128.013c.65.07 1.301.13 1.952.179h.007a61.175 61.175 0 0 0 6.84.148 54.687 54.687 0 0 0 1.848-.094 58.232 58.232 0 0 0 4.846-.524 147.628 147.628 0 0 0 5.348-.909c1.959-.371 3.862-.774 5.711-1.205a131.538 131.538 0 0 0 6.149-1.59l.557-.16.047-.014a128.61 128.61 0 0 0 3.88-1.193c1.183-.386 2.338-.783 3.468-1.189l.176-.064h.001c5.323-1.926 10.036-4.067 14.184-6.28a96.166 96.166 0 0 0 7.792-4.632c.075-.05.15-.099.223-.149a85.842 85.842 0 0 0 5.958-4.333c.163-.129.324-.259.482-.386a73.062 73.062 0 0 0 1.612-1.339c.088-.073.174-.148.258-.22a71.294 71.294 0 0 0 4.509-4.222l.023-.022a56.85 56.85 0 0 0 2.267-2.459c1.758-2.023 2.565-3.265 2.565-3.265l.004.004z" fill="#fff"/>
        <path opacity=".65" d="m141.678 76.286-27.436 40.174 29.091 11.053 5.32-49.944-6.975-1.283z" fill="#fff"/>
        <path d="M111.677 107.255a2.87 2.87 0 0 0 2.859-2.879 2.87 2.87 0 0 0-2.859-2.879v-2.235c2.804 0 5.078 2.29 5.078 5.114s-2.274 5.114-5.078 5.114v-2.235z" fill="#191919"/>
        <path opacity=".3" d="M213.591 165.002v37.541c-1.736 2.42-15.337 3.921-33.593 4.837-5.165.259-10.705.471-16.454.645-1.169 0-4.41.013-9.018.036h-.001c-2.984.014-6.541.032-10.48.053l-1.707.009-.609.003h-.001l-7.662.041-1.938.01-9.693.053-9.395.05-6.8.037c-.766.003-1.529.008-2.286.012l-1.591.009-7.667.04-.61.004-1.701.008h-.001c-3.876.021-7.427.039-10.486.053h-.001c-5.383.027-9.248.043-10.685.043-2.294-.03-3.564-.05-3.564-.05h-17.74a116.465 116.465 0 0 1-9.365-7.248 117.226 117.226 0 0 1-3.614-3.23 118.602 118.602 0 0 1-2.134-2.035 131.354 131.354 0 0 1-9.946-10.879 146.323 146.323 0 0 1-7.694-10.314l-.177-.26c-.06-.088-.117-.176-.175-.263a87.878 87.878 0 0 1-1.2-1.828 71.16 71.16 0 0 1-.601-.95c-.13-.21-.261-.417-.389-.627a52.867 52.867 0 0 1-.379-.622l-.155-.255-.346-.579-.133-.226a42.161 42.161 0 0 1-.289-.496l-.068-.116c-.045-.08-.092-.158-.136-.237a83.752 83.752 0 0 1-1.26-2.256 22.822 22.822 0 0 1-.215-.402l-.07-.13c-.05-.091-.098-.183-.146-.273a5.27 5.27 0 0 0-.04-.076c-.11-.207-.218-.415-.326-.622-.045-.088-.092-.176-.136-.264a61.17 61.17 0 0 1-.335-.655 91.255 91.255 0 0 1-1.572-3.253c-.116-.254-.232-.507-.346-.761a126.03 126.03 0 0 1-.383-.861l-.007-.016a92.643 92.643 0 0 1-.913-2.148 90.174 90.174 0 0 1-.352-.867l-.11-.281-.062-.155c-.039-.099-.078-.198-.116-.299a33.266 33.266 0 0 1-.22-.573 4.655 4.655 0 0 1-.072-.187l-.095-.248a7.15 7.15 0 0 1-.072-.196c-.085-.225-.168-.451-.252-.677-.012-.034-.023-.066-.037-.1l-.018-.053-.034-.094-.226-.628-.04-.11c-.039-.109-.078-.219-.115-.328l-.03-.089c-.026-.07-.05-.138-.073-.207l-.05-.141a143.886 143.886 0 0 1-.444-1.318l-.135-.42-.007-.019-.075-.234c-.06-.185-.12-.371-.177-.555a.565.565 0 0 0-.009-.03c-.087-.277-.172-.554-.257-.831l-.004-.009-.03-.104c-.033-.107-.066-.214-.097-.321-.022-.068-.041-.137-.062-.206l-.06-.206a57.708 57.708 0 0 1-.24-.828l-.015-.054a27.029 27.029 0 0 1-.094-.331c-.038-.133-.074-.265-.11-.396l-.02-.073a35.87 35.87 0 0 1-.112-.415l-.089-.327a34.868 34.868 0 0 1-.184-.702l-.057-.223c-.07-.271-.137-.542-.204-.813l-.013-.051c-.058-.237-.116-.475-.172-.712l-.028-.117-.02-.088c-.044-.187-.088-.373-.13-.56l-.014-.061-.12-.529c0-.004 0-.007-.002-.01l-.102-.458a55.075 55.075 0 0 1-.08-.373l-.02-.09-.083-.387-.012-.062c-.039-.18-.074-.36-.111-.54l-.05-.248a46.295 46.295 0 0 1-.125-.635l-.041-.214-.01-.053-.011-.06-.075-.397a32.542 32.542 0 0 1-.121-.667c-.021-.118-.043-.234-.062-.353l-.004-.021v-.008l-.01-.053-.016-.09-.035-.203a8.13 8.13 0 0 1-.035-.214 13.242 13.242 0 0 1-.08-.479c-.022-.129-.042-.259-.062-.388-.01-.059-.02-.116-.028-.174a28.683 28.683 0 0 1-.04-.246l-.022-.145c-.035-.225-.07-.45-.101-.675l-.005-.035a.236.236 0 0 1-.005-.035l-.037-.26-.016-.111c0-.01-.003-.021-.004-.031l-.022-.149v-.003a11.928 11.928 0 0 1-.047-.341 6.33 6.33 0 0 1-.03-.228 11.74 11.74 0 0 1-.044-.325l-.03-.223-.017-.129c0-.005 0-.011-.002-.017a7.83 7.83 0 0 1-.04-.321c-.017-.129-.032-.259-.048-.388-.008-.059-.014-.12-.021-.18-.025-.207-.048-.414-.071-.621-.009-.067-.015-.132-.022-.198v-.005c-.017-.143-.032-.286-.047-.428l-.03-.277-.02-.192-.001-.014-.01-.096a25.25 25.25 0 0 1-.053-.552c-.01-.098-.018-.196-.026-.294l-.02-.215c-.009-.116-.02-.23-.03-.346a84.85 84.85 0 0 1-.132-1.711l-.023-.348-.032-.508-.005-.098a77.24 77.24 0 0 1-.044-.794c0-.012 0-.025-.002-.037l-.008-.152c-.01-.187-.019-.376-.027-.563 0-.023-.002-.044-.003-.067l-.001-.039-.005-.118a41.824 41.824 0 0 1-.027-.699l-.005-.142-.014-.463-.008-.251-.007-.267a71.564 71.564 0 0 1-.01-.443c-.003-.098-.003-.197-.005-.295v-.027l-.001-.09c-.003-.077-.004-.155-.005-.232v-.122L0 119.8l-.002-.323v-.454c-.002-.194-.003-.389-.002-.583.001-.433.004-.865.01-1.298v-.009c.006-.346.013-.693.022-1.04v-.007l.014-.523c.009-.34.021-.68.035-1.02v-.039l.023-.507v-.004c.007-.174.016-.349.025-.523a51.208 51.208 0 0 1 .03-.593l.007-.122c.006-.094.01-.188.017-.282l.005-.084.03-.484v-.003c.02-.321.043-.642.066-.963l.008-.104c.013-.166.025-.332.039-.497l.052-.653.003-.016.057-.653c.022-.252.047-.504.071-.756.023-.23.045-.462.07-.693.041-.396.085-.792.13-1.188l.077-.658.081-.657a99.247 99.247 0 0 1 .184-1.376l.016-.111.07-.483c.031-.22.063-.438.097-.656l.084-.555h.001l.016-.099a168.854 168.854 0 0 1 .213-1.309 112.814 112.814 0 0 1 .664-3.566l.007-.031c.003-.02.008-.04.012-.058.065-.323.132-.647.2-.97l.11-.513.04-.184.104-.47a123.16 123.16 0 0 1 .393-1.702l.055-.228c.16-.67.327-1.336.5-2.003.039-.147.076-.294.116-.44.034-.13.07-.263.103-.394l.148-.548.117-.429.147-.522a106.208 106.208 0 0 1 .585-2.012l.165-.552c.132-.43.266-.86.402-1.289.087-.274.175-.55.265-.822l.155-.474a119.386 119.386 0 0 1 1.757-4.96 121.466 121.466 0 0 1 .735-1.893l.045-.116.084-.206.084-.207c.06-.15.12-.3.182-.45l.038-.093a114.763 114.763 0 0 1 .498-1.2c.245-.583.496-1.166.75-1.747l.193-.436.263-.59.281-.623a137.512 137.512 0 0 1 .707-1.52l.241-.508a96.96 96.96 0 0 1 .901-1.846c.237-.476.478-.951.721-1.425l.068-.133.05-.098c.071-.14.144-.278.217-.418.119-.227.238-.455.359-.682.108-.203.215-.406.325-.609.114-.212.227-.424.342-.635a127.216 127.216 0 0 1 1.658-2.954c18.69 8.544 38.07 18.998 53.957 27.459 9.304 4.955 17.413 9.227 23.484 12.031 2.752 1.271 15.293 4.296 15.293 4.296l.116.172c.312.452 1.257 1.748 2.849 3.346a31.08 31.08 0 0 0 1.877 1.737c3.03 2.586 7.498 5.421 13.457 6.731.471.104 1.757.414 3.641.879h.001c12.148 2.996 49.156 12.368 52.827 13.655 1.197.42 2.428 1.024 3.675 1.779.361.218.724.448 1.088.691h.001c.776.52 1.556 1.092 2.338 1.711l.004.004a52.617 52.617 0 0 1 3.981 3.513h.003l.001.001c.542.527 1.08 1.068 1.615 1.622h.001c.378.393.754.79 1.128 1.194l.062.067.356.387a96.721 96.721 0 0 1 4.462 5.276l.124.155c3.382 4.308 6.288 8.683 8.249 12.14l.001.002.003.005a54.773 54.773 0 0 1 .986 1.813c1.025 1.98 1.623 3.503 1.671 4.308l.003.099v.01z" fill="#fff"/>
        <path d="M213.591 165.001v37.542c-1.736 2.419-15.337 3.92-33.593 4.836-5.165.259-10.706.471-16.454.645l.001-.319c0-3.19-.186-6.854-.344-9.968-.025-.505-.05-.994-.072-1.465l-.011-.218-.012-.243-.045-.985a85.499 85.499 0 0 1-.05-1.307l-.009-.36a22.46 22.46 0 0 1-.01-.502l-.001-.118a.254.254 0 0 0 0-.039l-.001-.076-.001-.221c0-.182-.001-.363-.004-.543v-.01a22.812 22.812 0 0 0-.008-.453c-.003-.155-.006-.311-.011-.465-.006-.22-.014-.438-.026-.655l-.014-.305c-.005-.101-.01-.202-.017-.304-.009-.178-.022-.355-.035-.533-.005-.082-.013-.164-.018-.247-.012-.167-.027-.335-.041-.501a23.22 23.22 0 0 0-.034-.372 30.428 30.428 0 0 0-.087-.832l-.022-.19c-.007-.062-.014-.126-.023-.188a12.299 12.299 0 0 1-.023-.19c-.003-.014-.004-.03-.006-.044l-.017-.133a1.419 1.419 0 0 0-.012-.094c-.007-.053-.013-.106-.021-.157-.01-.07-.019-.139-.03-.208l-.005-.039a9.029 9.029 0 0 0-.028-.194 29.776 29.776 0 0 0-.137-.879l-.019-.12a6.236 6.236 0 0 0-.036-.205 17.23 17.23 0 0 0-.053-.3l-.036-.207c-.003-.019-.005-.037-.01-.055a27.566 27.566 0 0 0-.09-.469 19.072 19.072 0 0 0-.116-.572c-.034-.166-.071-.332-.108-.498a37.686 37.686 0 0 0-.198-.851l-.09-.366-.033-.131-.073-.281a15.344 15.344 0 0 0-.126-.478l-.058-.211-.047-.164-.05-.179a4.726 4.726 0 0 0-.053-.18l-.052-.179-.053-.179-.054-.178a17.198 17.198 0 0 0-.137-.44 35.026 35.026 0 0 0-.392-1.182l-.073-.21c-.021-.062-.044-.124-.066-.185-.053-.148-.106-.296-.161-.443a60.968 60.968 0 0 0-.087-.236l-.13-.342a13.488 13.488 0 0 0-.108-.28 19.158 19.158 0 0 0-.157-.396 37.015 37.015 0 0 0-.931-2.156 9.649 9.649 0 0 0-.136-.291 13.867 13.867 0 0 0-.205-.426c-.08-.166-.165-.331-.247-.497-.097-.194-.194-.39-.294-.582a49.479 49.479 0 0 0-.417-.788c-.067-.124-.135-.246-.204-.37l-.206-.366-.021-.039-.142-.249c-.161-.28-.325-.556-.493-.832a24.098 24.098 0 0 0-.419-.679c-.09-.144-.182-.287-.274-.429-.001-.004-.003-.006-.005-.008a44.668 44.668 0 0 0-.653-.982l-.188-.272c-.093-.135-.189-.27-.284-.405l-.125-.175a31.764 31.764 0 0 0-.617-.84 24.858 24.858 0 0 0-.336-.441l-.285-.367-.291-.363c-.008-.012-.017-.026-.03-.039-.028-.035-.056-.071-.086-.106a.195.195 0 0 0-.03-.037c-.061-.072-.12-.147-.179-.22-.148-.18-.298-.359-.449-.537-.089-.103-.175-.206-.265-.309l-.294-.335c-.115-.13-.229-.259-.345-.387l-.121-.134-.112-.121-.174-.189a.01.01 0 0 0-.001-.003l-.004-.003-.013-.015a22.676 22.676 0 0 0-.525-.555c-.067-.071-.134-.14-.204-.211l-.163-.167a32.981 32.981 0 0 0-.762-.757l-.058-.056-.18-.173c-.125-.119-.251-.239-.377-.356l-.225-.21a53.232 53.232 0 0 0-1.166-1.041l-.319-.272a11.486 11.486 0 0 0-.27-.225 4.12 4.12 0 0 0-.126-.105 6.182 6.182 0 0 0-.155-.128 15.895 15.895 0 0 0-.366-.297 41.06 41.06 0 0 0-1.818-1.383 35.675 35.675 0 0 0-.681-.482l-.344-.236a26.591 26.591 0 0 0-.302-.203c-.07-.048-.141-.094-.21-.142a10.475 10.475 0 0 0-.236-.153c-.174-.115-.35-.228-.526-.338a52.87 52.87 0 0 0-1.046-.641c-.098-.058-.197-.117-.296-.174a33.116 33.116 0 0 0-.56-.323c-.027-.013-.054-.03-.083-.045l-.069-.039a7.241 7.241 0 0 0-.232-.129 51.284 51.284 0 0 0-1.278-.68 27.919 27.919 0 0 0-.922-.456 13.03 13.03 0 0 0-.266-.129l-.215-.102a1.055 1.055 0 0 0-.076-.036l-.223-.103-.085-.039c-.026-.012-.052-.025-.079-.036a7.14 7.14 0 0 0-.221-.099l-.083-.036c-.076-.035-.153-.071-.232-.103-.034-.014-.067-.03-.101-.045-.044-.021-.089-.039-.133-.057l-.099-.042-.156-.067c-.052-.023-.107-.044-.16-.067a21.475 21.475 0 0 0-.582-.239l-.332-.133a12.49 12.49 0 0 0-.221-.086l-.175-.068-.114-.044a20.726 20.726 0 0 0-.288-.108c-.092-.035-.184-.07-.277-.102a18.27 18.27 0 0 0-.654-.232 29.931 29.931 0 0 0-1.211-.4c-.129-.042-.259-.081-.388-.121-.144-.044-.288-.088-.434-.129a25.483 25.483 0 0 0-.85-.242 21.893 21.893 0 0 0-.44-.117l-.163-.043-.003-.001a41.48 41.48 0 0 0-1.718-.406l-.323-.068c-.052-.012-.103-.021-.154-.031-.113-.024-.226-.046-.339-.068a41.272 41.272 0 0 0-1.105-.202l-.243-.041-.032-.005a27.135 27.135 0 0 0-.396-.063l-.059-.009a33.043 33.043 0 0 0-.454-.067l-.014-.003c-.072-.01-.143-.021-.216-.03a37.18 37.18 0 0 0-.997-.126c-.128-.014-.257-.029-.384-.041a1.322 1.322 0 0 0-.086-.009c-.021-.004-.043-.005-.063-.008l-.139-.014c-.067-.006-.134-.013-.202-.018a2.325 2.325 0 0 0-.114-.012c-.014-.001-.027-.004-.042-.004l-.075-.008c-.2-.018-.4-.035-.601-.049a34.626 34.626 0 0 0-.454-.033l-.191-.011a17.417 17.417 0 0 0-.466-.027l-.04-.003c-.183-.01-.365-.018-.548-.025h-.02c-.142-.007-.285-.01-.428-.015a13.213 13.213 0 0 0-.199-.005c-.13-.004-.26-.005-.392-.008h-.04l-.165-.003a43.099 43.099 0 0 0-.51-.003h-.001a30.59 30.59 0 0 0-.671.007l-.347.005c-.23.006-.46.013-.69.023-.057.002-.115.004-.172.008h-.001a.017.017 0 0 0-.01 0c-.034 0-.066.003-.098.004-.112.005-.226.01-.337.017a25.964 25.964 0 0 0-.898.061c-.092.005-.183.013-.275.02l-.054.005a14.237 14.237 0 0 0-.367.034c-.075.006-.148.014-.223.022h-.009l-.034.003a15.594 15.594 0 0 0-.399.042l-.05.005c-.15.017-.3.032-.451.053-.124.013-.248.03-.372.046l-.249.032-.042.006c-.139.018-.276.036-.414.058-.018.001-.035.005-.053.007l-.231.035c-.012.001-.023.004-.034.006-.146.02-.29.045-.436.068h-.001c-.169.027-.337.057-.506.085-.301.054-.601.109-.901.17-.115.022-.231.044-.345.068a37.604 37.604 0 0 0-1.582.357l-.053.012c-.032.008-.064.017-.097.024a33.209 33.209 0 0 0-.87.225l-.261.071c-.339.093-.676.19-1.013.292l-.425.13-.067.022c-.022.005-.041.012-.062.019a8.316 8.316 0 0 0-.366.118c-.08.025-.16.051-.239.078-.156.052-.312.103-.469.157-.152.052-.302.103-.452.157-.138.049-.274.098-.411.149-.111.039-.223.081-.333.122a31.135 31.135 0 0 0-.491.187c-.12.045-.239.094-.357.142a2.424 2.424 0 0 0-.102.04 11.02 11.02 0 0 0-.272.11c-.006.001-.013.005-.018.007l-.147.061c-.315.128-.627.26-.939.398l-.245.108c-.147.066-.295.131-.443.199a41.794 41.794 0 0 0-2.11 1.027c-.14.072-.28.147-.42.221a1.455 1.455 0 0 0-.07.036l-.433.233-.498.276a45.09 45.09 0 0 0-2.269 1.357c-.365.23-.727.468-1.085.71-.07.045-.138.092-.206.139a.123.123 0 0 0-.023.016c-.076.05-.152.104-.23.157l-.29.202-.23.162a49.424 49.424 0 0 0-2.387 1.802l-.232.187a7.575 7.575 0 0 0-.103.084c-.02.017-.04.034-.062.05-.082.068-.165.135-.248.205a49.96 49.96 0 0 0-.91.775l-.213.188a42.294 42.294 0 0 0-1.15 1.046l-.104.095c-.101.098-.201.192-.302.291h-.001a26.377 26.377 0 0 0-.44.429l-.108.106c-.062.061-.124.121-.186.184l-.08.081a9.1 9.1 0 0 0-.135.136c-.043.041-.084.084-.125.127l-.161.166-.083.085c-.095.098-.191.196-.285.296-.395.416-.785.839-1.168 1.269l-.272.309-.165.19c-.119.136-.236.274-.354.413-.082.097-.164.193-.244.291l-.135.163a.737.737 0 0 0-.05.059l-.244.299c-.122.15-.243.301-.362.453l-.036.047-.093.117-.162.208-.16.208c-.086.11-.17.223-.255.334l-.143.19c-.066.088-.132.175-.196.264 0 .001 0 .003-.002.004l-.192.262c-.03.044-.062.086-.093.13a56.4 56.4 0 0 0-.403.565l-.054.078a2.903 2.903 0 0 0-.076.11c-.06.085-.117.168-.174.252l-.129.188a9.843 9.843 0 0 0-.227.338c-.094.14-.187.282-.279.424l-.31.481c-.205.321-.405.645-.601.972l-.305.511c-.189.322-.374.646-.555.972l-.004.007a38.358 38.358 0 0 0-.541.999l-.21.405c-.03.058-.059.118-.09.176a13.084 13.084 0 0 0-.165.331l-.067.134-.045.089a52.87 52.87 0 0 0-.675 1.433c-.02.04-.037.08-.055.12a37.983 37.983 0 0 0-.404.929c-.075.175-.148.352-.22.528-.071.17-.139.342-.207.514a56.073 56.073 0 0 0-.413 1.089 12.694 12.694 0 0 0-.174.484l-.019.054c-.01.025-.018.05-.027.076 0 .001 0 .004-.002.005a32.244 32.244 0 0 0-.278.816l-.056.17c-.001.008-.004.013-.006.018a.89.89 0 0 0-.017.053c-.004.011-.008.021-.01.031-.05.151-.097.301-.143.452-.041.134-.083.267-.121.399l-.049.161a.01.01 0 0 1 0 .003l-.049.163c-.038.129-.076.258-.11.386-.01.03-.018.06-.026.089a12.53 12.53 0 0 0-.128.465c-.007.018-.011.037-.016.055-.044.158-.085.317-.125.475a27.505 27.505 0 0 0-.145.584c-.01.036-.017.071-.026.107l-.001.003a29.712 29.712 0 0 0-.231 1.014c-.04.18-.077.362-.115.542l-.017.093c-.027.13-.053.26-.077.389l-.03.161c-.033.171-.064.342-.094.514-.03.167-.058.335-.085.504l-.01.067-.021.129c-.024.148-.048.295-.068.443-.027.184-.054.37-.079.554l-.008.058c-.026.191-.05.382-.074.574-.022.179-.043.359-.061.54-.022.188-.04.376-.058.565l-.008.077c-.017.171-.03.344-.044.516-.017.193-.031.387-.044.581-.01.144-.02.287-.027.431v.007l-.007.126-.002.048-.006.122c-.009.16-.017.321-.023.483-.006.161-.012.322-.016.484l-.001.052c-.001.021-.001.041-.003.061l-.002.113a31.608 31.608 0 0 0-.013 1 1051.554 1051.554 0 0 0 .002 1.938 504.857 504.857 0 0 0 .01 2.18v.072l.003.24.001.129v.115l.003.339.003.407.008.777.006.492c0 .166.003.333.005.502l.014 1.027v.004l.005.353.005.37.012.678.007.343c.003.117.004.234.006.354a32.047 32.047 0 0 1 .01.592c.004.099.005.198.006.299.005.166.008.333.012.501.002.104.004.209.008.313l.013.563.013.463c.012.506.027 1.013.043 1.522 0 .027 0 .053.002.08-2.294-.03-3.564-.05-3.564-.05H49.902a114.554 114.554 0 0 1-9.365-7.249 114.536 114.536 0 0 1-3.614-3.229 121.87 121.87 0 0 1-2.134-2.035 131.21 131.21 0 0 1-9.946-10.88 146.1 146.1 0 0 1-7.694-10.313c-.059-.088-.119-.174-.178-.26l-.175-.263a64.605 64.605 0 0 1-.69-1.041 82.198 82.198 0 0 1-.963-1.501l-.148-.236c-.13-.21-.26-.417-.388-.627a62.618 62.618 0 0 1-.38-.622l-.154-.256a84.338 84.338 0 0 1-.346-.579l-.133-.225a42.161 42.161 0 0 1-.29-.496l-.067-.117-.137-.236a87.755 87.755 0 0 1-1.26-2.256l-.018-.035a23.645 23.645 0 0 1-.196-.367c-.024-.043-.048-.086-.07-.13-.05-.091-.098-.183-.146-.274l-.04-.075c-.11-.207-.218-.415-.326-.622l-.137-.264c-.112-.218-.225-.436-.335-.655-.12-.241-.242-.481-.361-.723a91.612 91.612 0 0 1-1.21-2.53l-.347-.761-.026-.058-.357-.803-.007-.017a81.263 81.263 0 0 1-.367-.847 86.03 86.03 0 0 1-.675-1.622A69.55 69.55 0 0 1 7 155.69l-.11-.281-.062-.155c-.04-.099-.078-.198-.116-.299l-.142-.367a8.467 8.467 0 0 1-.08-.206 4.685 4.685 0 0 1-.07-.187c-.033-.081-.064-.165-.095-.248a7.216 7.216 0 0 1-.073-.196l-.251-.677c-.013-.034-.023-.066-.037-.1-.005-.017-.012-.035-.019-.053l-.034-.094-.225-.628-.04-.11-.116-.328-.03-.089c-.025-.07-.05-.138-.072-.207l-.05-.141a143.886 143.886 0 0 1-.444-1.318l-.136-.421-.007-.018c-.026-.078-.049-.157-.075-.234l-.176-.555a.565.565 0 0 0-.01-.03c-.087-.277-.172-.554-.256-.831l-.004-.009a6.846 6.846 0 0 0-.031-.104l-.097-.321-.061-.207-.06-.205a54.426 54.426 0 0 1-.241-.829l-.014-.053a27.39 27.39 0 0 1-.094-.331c-.038-.133-.074-.265-.11-.396l-.02-.073a35.669 35.669 0 0 1-.113-.415l-.088-.327a34.868 34.868 0 0 1-.184-.702l-.057-.223a82.31 82.31 0 0 1-.205-.814l-.012-.05c-.058-.237-.116-.475-.172-.712-.01-.04-.02-.077-.028-.117l-.02-.088c-.044-.187-.088-.373-.13-.56l-.014-.061-.12-.529c0-.004 0-.007-.003-.01l-.101-.458-.08-.373-.02-.09-.083-.387-.013-.062c-.038-.18-.074-.36-.11-.541l-.05-.247a46.446 46.446 0 0 1-.125-.635l-.041-.214c-.004-.018-.008-.036-.01-.054l-.012-.059-.075-.397a34.87 34.87 0 0 1-.12-.667c-.022-.118-.043-.234-.063-.353l-.003-.021-.001-.008-.01-.053c-.005-.03-.009-.061-.015-.091-.013-.067-.023-.134-.035-.202a8.13 8.13 0 0 1-.036-.214 13.242 13.242 0 0 1-.08-.479c-.022-.13-.041-.259-.062-.389l-.027-.173a28.683 28.683 0 0 1-.04-.246l-.022-.145a44 44 0 0 1-.102-.675c0-.012-.002-.023-.004-.035a.232.232 0 0 1-.006-.036l-.036-.259-.016-.111-.005-.031-.021-.149v-.003a11.914 11.914 0 0 1-.025-.176c-.008-.055-.016-.11-.022-.165a6.33 6.33 0 0 1-.03-.228c-.017-.108-.031-.215-.044-.325l-.03-.223-.017-.129c0-.005 0-.011-.003-.017a7.83 7.83 0 0 1-.04-.321c-.017-.129-.032-.259-.047-.388l-.021-.18a73.448 73.448 0 0 1-.072-.621l-.021-.198v-.005a34.997 34.997 0 0 1-.048-.429l-.029-.276-.02-.192-.001-.014c-.004-.033-.008-.063-.01-.096a25.268 25.268 0 0 1-.053-.552l-.027-.294-.018-.215-.032-.346c-.05-.57-.093-1.141-.132-1.711l-.022-.348c-.012-.17-.022-.339-.032-.508l-.006-.098c-.016-.264-.03-.529-.043-.794l-.002-.037-.008-.153c-.01-.187-.019-.375-.027-.562 0-.023-.003-.044-.003-.067l-.001-.039-.006-.118-.004-.12a41.826 41.826 0 0 1-.023-.579c0-.048-.003-.094-.004-.142a86.13 86.13 0 0 1-.014-.463c-.004-.085-.006-.166-.008-.251l-.007-.267a71.57 71.57 0 0 1-.01-.443c-.003-.098-.004-.197-.006-.295V120.422c-.003-.077-.004-.156-.005-.232v-.122c-.002-.089-.004-.176-.004-.265l-.002-.323-.001-.454c-.001-.194-.003-.389-.001-.583 0-.433.004-.865.01-1.298v-.009c.005-.347.012-.694.021-1.04v-.007l.015-.523c.008-.34.02-.68.034-1.02l.001-.027v-.012L.095 114v-.004c.007-.175.016-.349.025-.523a51.207 51.207 0 0 1 .03-.593l.007-.122c.005-.094.01-.188.017-.282 0-.028.004-.056.004-.084l.03-.484v-.003c.021-.321.044-.642.067-.963l.008-.104.038-.497.053-.653c0-.005 0-.01.003-.016.017-.217.036-.435.057-.653.022-.252.047-.504.071-.756a107.344 107.344 0 0 1 .2-1.881l.077-.658a129.202 129.202 0 0 1 .157-1.236c.035-.266.071-.532.108-.797l.016-.111c.022-.161.046-.322.07-.483.03-.22.063-.438.097-.656l.084-.555c.006-.034.01-.067.017-.099a141.408 141.408 0 0 1 .213-1.309 112.875 112.875 0 0 1 .57-3.097c.03-.157.062-.313.093-.47l.007-.03.013-.059c.065-.322.132-.646.2-.969l.11-.513.04-.184a123.16 123.16 0 0 1 .497-2.172l.054-.228c.161-.67.328-1.337.501-2.003l.115-.44.104-.394a171.85 171.85 0 0 1 .265-.977c.048-.173.096-.348.146-.522a106.328 106.328 0 0 1 .585-2.012 166.498 166.498 0 0 1 .568-1.84c.087-.275.175-.55.265-.823.051-.158.102-.317.155-.474a119.355 119.355 0 0 1 1.757-4.96c.197-.52.397-1.039.601-1.556l.09-.224.044-.113c.014-.04.03-.077.045-.116l.084-.206c.027-.07.056-.138.084-.207.06-.15.12-.3.182-.45l.038-.093.256-.622.241-.578c.246-.583.496-1.166.75-1.747l.194-.436.263-.59.281-.623a134.324 134.324 0 0 1 .707-1.52l.241-.508a99.387 99.387 0 0 1 .9-1.846c.237-.476.479-.952.722-1.425l.068-.133.05-.098c.071-.14.143-.278.216-.418.12-.227.239-.456.36-.682.107-.203.214-.407.324-.609l.343-.636a127.991 127.991 0 0 1 1.658-2.953C35.02 68.466 54.4 78.92 70.287 87.38c9.304 4.955 17.413 9.227 23.483 12.03 2.753 1.272 15.294 4.297 15.294 4.297s.038.059.116.172c.311.452 1.257 1.748 2.849 3.346a31.08 31.08 0 0 0 1.877 1.737c3.03 2.585 7.498 5.421 13.457 6.731.471.104 1.756.414 3.64.879h.001c12.148 2.996 49.156 12.368 52.828 13.655 1.196.42 2.427 1.024 3.675 1.778.361.219.724.449 1.087.692h.001c.777.52 1.557 1.092 2.339 1.711l.003.004a52.634 52.634 0 0 1 3.982 3.512l.003.001.001.001c.541.527 1.08 1.068 1.614 1.622h.001c.379.393.754.79 1.128 1.193l.063.068c.119.128.236.258.355.387a96.74 96.74 0 0 1 4.463 5.276l.123.155c3.383 4.308 6.288 8.683 8.249 12.139l.001.003.004.005.012.023.034.058c.344.608.658 1.187.939 1.732 1.026 1.98 1.624 3.503 1.671 4.308.003.034.004.066.004.099l.006.006z" fill="#BFD2E1"/>
        <path d="M213.591 165.001v37.542c-1.736 2.419-15.337 3.92-33.593 4.836-5.165.259-10.706.471-16.454.645l.001-.319c0-3.19-.186-6.854-.344-9.968-.025-.505-.05-.994-.072-1.465l-.011-.218-.012-.243-.045-.985a85.499 85.499 0 0 1-.05-1.307l-.009-.36a22.46 22.46 0 0 1-.01-.502l-.001-.118a.254.254 0 0 0 0-.039l-.001-.076-.001-.221c0-.182-.001-.363-.004-.543v-.01a22.812 22.812 0 0 0-.008-.453c-.003-.155-.006-.311-.011-.465-.006-.22-.014-.438-.026-.655l-.014-.305c-.005-.101-.01-.202-.017-.304-.009-.178-.022-.355-.035-.533-.005-.082-.013-.164-.018-.247-.012-.167-.027-.335-.041-.501a23.22 23.22 0 0 0-.034-.372 30.428 30.428 0 0 0-.087-.832l-.022-.19c-.007-.062-.014-.126-.023-.188a12.299 12.299 0 0 1-.023-.19c-.003-.014-.004-.03-.006-.044l-.017-.133a1.419 1.419 0 0 0-.012-.094c-.007-.053-.013-.106-.021-.157-.01-.07-.019-.139-.03-.208l-.005-.039a9.029 9.029 0 0 0-.028-.194 29.776 29.776 0 0 0-.137-.879l-.019-.12a6.236 6.236 0 0 0-.036-.205 17.23 17.23 0 0 0-.053-.3l-.036-.207c-.003-.019-.005-.037-.01-.055a27.566 27.566 0 0 0-.09-.469 19.072 19.072 0 0 0-.116-.572c-.034-.166-.071-.332-.108-.498a37.686 37.686 0 0 0-.198-.851l-.09-.366-.033-.131-.073-.281a15.344 15.344 0 0 0-.126-.478l-.058-.211-.047-.164-.05-.179a4.726 4.726 0 0 0-.053-.18l-.052-.179-.053-.179-.054-.178a17.198 17.198 0 0 0-.137-.44 35.026 35.026 0 0 0-.392-1.182l-.073-.21c-.021-.062-.044-.124-.066-.185-.053-.148-.106-.296-.161-.443a60.968 60.968 0 0 0-.087-.236l-.13-.342a13.488 13.488 0 0 0-.108-.28 19.158 19.158 0 0 0-.157-.396 37.015 37.015 0 0 0-.931-2.156 9.649 9.649 0 0 0-.136-.291 13.867 13.867 0 0 0-.205-.426c-.08-.166-.165-.331-.247-.497-.097-.194-.194-.39-.294-.582a49.479 49.479 0 0 0-.417-.788c-.067-.124-.135-.246-.204-.37l-.206-.366-.021-.039-.142-.249c-.161-.28-.325-.556-.493-.832a24.098 24.098 0 0 0-.419-.679c-.09-.144-.182-.287-.274-.429-.001-.004-.003-.006-.005-.008a44.668 44.668 0 0 0-.653-.982l-.188-.272c-.093-.135-.189-.27-.284-.405l-.125-.175a31.764 31.764 0 0 0-.617-.84 24.858 24.858 0 0 0-.336-.441l-.285-.367-.291-.363c-.008-.012-.017-.026-.03-.039-.028-.035-.056-.071-.086-.106a.195.195 0 0 0-.03-.037c-.061-.072-.12-.147-.179-.22-.148-.18-.298-.359-.449-.537-.089-.103-.175-.206-.265-.309l-.294-.335c-.115-.13-.229-.259-.345-.387l-.121-.134-.112-.121-.174-.189a.01.01 0 0 0-.001-.003l-.004-.003-.013-.015a22.676 22.676 0 0 0-.525-.555c-.067-.071-.134-.14-.204-.211l-.163-.167a32.981 32.981 0 0 0-.762-.757l-.058-.056-.18-.173c-.125-.119-.251-.239-.377-.356l-.225-.21a53.232 53.232 0 0 0-1.166-1.041l-.319-.272a11.486 11.486 0 0 0-.27-.225 4.12 4.12 0 0 0-.126-.105 6.182 6.182 0 0 0-.155-.128 15.895 15.895 0 0 0-.366-.297 41.06 41.06 0 0 0-1.818-1.383 35.675 35.675 0 0 0-.681-.482l-.344-.236a26.591 26.591 0 0 0-.302-.203c-.07-.048-.141-.094-.21-.142a10.475 10.475 0 0 0-.236-.153c-.174-.115-.35-.228-.526-.338a52.87 52.87 0 0 0-1.046-.641c-.098-.058-.197-.117-.296-.174a33.116 33.116 0 0 0-.56-.323c-.027-.013-.054-.03-.083-.045l-.069-.039a7.241 7.241 0 0 0-.232-.129 51.284 51.284 0 0 0-1.278-.68 27.919 27.919 0 0 0-.922-.456 13.03 13.03 0 0 0-.266-.129l-.215-.102a1.055 1.055 0 0 0-.076-.036l-.223-.103-.085-.039c-.026-.012-.052-.025-.079-.036a7.14 7.14 0 0 0-.221-.099l-.083-.036c-.076-.035-.153-.071-.232-.103-.034-.014-.067-.03-.101-.045-.044-.021-.089-.039-.133-.057l-.099-.042-.156-.067c-.052-.023-.107-.044-.16-.067a21.475 21.475 0 0 0-.582-.239l-.332-.133a12.49 12.49 0 0 0-.221-.086l-.175-.068-.114-.044a20.726 20.726 0 0 0-.288-.108c-.092-.035-.184-.07-.277-.102a18.27 18.27 0 0 0-.654-.232 29.931 29.931 0 0 0-1.211-.4c-.129-.042-.259-.081-.388-.121-.144-.044-.288-.088-.434-.129a25.483 25.483 0 0 0-.85-.242 21.893 21.893 0 0 0-.44-.117l-.163-.043-.003-.001a41.48 41.48 0 0 0-1.718-.406l-.323-.068c-.052-.012-.103-.021-.154-.031-.113-.024-.226-.046-.339-.068a41.272 41.272 0 0 0-1.105-.202l-.243-.041-.032-.005a27.135 27.135 0 0 0-.396-.063l-.059-.009a33.043 33.043 0 0 0-.454-.067l-.014-.003c-.072-.01-.143-.021-.216-.03a37.18 37.18 0 0 0-.997-.126c-.128-.014-.257-.029-.384-.041a1.322 1.322 0 0 0-.086-.009c-.021-.004-.043-.005-.063-.008l-.139-.014c-.067-.006-.134-.013-.202-.018a2.325 2.325 0 0 0-.114-.012c-.014-.001-.027-.004-.042-.004l-.075-.008c-.2-.018-.4-.035-.601-.049a34.626 34.626 0 0 0-.454-.033l-.191-.011a17.417 17.417 0 0 0-.466-.027l-.04-.003c-.183-.01-.365-.018-.548-.025h-.02c-.142-.007-.285-.01-.428-.015a13.213 13.213 0 0 0-.199-.005c-.13-.004-.26-.005-.392-.008h-.04l-.165-.003a43.099 43.099 0 0 0-.51-.003h-.001a30.59 30.59 0 0 0-.671.007l-.347.005c-.23.006-.46.013-.69.023-.057.002-.115.004-.172.008h-.001a.017.017 0 0 0-.01 0c-.034 0-.066.003-.098.004-.112.005-.226.01-.337.017a25.964 25.964 0 0 0-.898.061c-.092.005-.183.013-.275.02l-.054.005a14.237 14.237 0 0 0-.367.034c-.075.006-.148.014-.223.022h-.009l-.034.003a15.594 15.594 0 0 0-.399.042l-.05.005c-.15.017-.3.032-.451.053-.124.013-.248.03-.372.046l-.249.032-.042.006c-.139.018-.276.036-.414.058-.018.001-.035.005-.053.007l-.231.035c-.012.001-.023.004-.034.006-.146.02-.29.045-.436.068h-.001c-.169.027-.337.057-.506.085-.301.054-.601.109-.901.17-.115.022-.231.044-.345.068a37.604 37.604 0 0 0-1.582.357l-.053.012c-.032.008-.064.017-.097.024a33.209 33.209 0 0 0-.87.225l-.261.071c-.339.093-.676.19-1.013.292l-.425.13-.067.022c-.022.005-.041.012-.062.019a8.316 8.316 0 0 0-.366.118c-.08.025-.16.051-.239.078-.156.052-.312.103-.469.157-.152.052-.302.103-.452.157-.138.049-.274.098-.411.149-.111.039-.223.081-.333.122a31.135 31.135 0 0 0-.491.187c-.12.045-.239.094-.357.142a2.424 2.424 0 0 0-.102.04 11.02 11.02 0 0 0-.272.11c-.006.001-.013.005-.018.007l-.147.061c-.315.128-.627.26-.939.398l-.245.108c-.147.066-.295.131-.443.199a41.794 41.794 0 0 0-2.11 1.027c-.14.072-.28.147-.42.221a1.455 1.455 0 0 0-.07.036l-.433.233-.498.276a45.09 45.09 0 0 0-2.269 1.357c-.365.23-.727.468-1.085.71-.07.045-.138.092-.206.139a.123.123 0 0 0-.023.016c-.076.05-.152.104-.23.157l-.29.202-.23.162a49.424 49.424 0 0 0-2.387 1.802l-.232.187a7.575 7.575 0 0 0-.103.084c-.02.017-.04.034-.062.05-.082.068-.165.135-.248.205a49.96 49.96 0 0 0-.91.775l-.213.188a42.294 42.294 0 0 0-1.15 1.046l-.104.095c-.101.098-.201.192-.302.291h-.001a26.377 26.377 0 0 0-.44.429l-.108.106c-.062.061-.124.121-.186.184l-.08.081a9.1 9.1 0 0 0-.135.136c-.043.041-.084.084-.125.127l-.161.166-.083.085c-.095.098-.191.196-.285.296-.395.416-.785.839-1.168 1.269l-.272.309-.165.19c-.119.136-.236.274-.354.413-.082.097-.164.193-.244.291l-.135.163a.737.737 0 0 0-.05.059l-.244.299c-.122.15-.243.301-.362.453l-.036.047-.093.117-.162.208-.16.208c-.086.11-.17.223-.255.334l-.143.19c-.066.088-.132.175-.196.264 0 .001 0 .003-.002.004l-.192.262c-.03.044-.062.086-.093.13a56.4 56.4 0 0 0-.403.565l-.054.078a2.903 2.903 0 0 0-.076.11c-.06.085-.117.168-.174.252l-.129.188a9.843 9.843 0 0 0-.227.338c-.094.14-.187.282-.279.424l-.31.481c-.205.321-.405.645-.601.972l-.305.511c-.189.322-.374.646-.555.972l-.004.007a38.358 38.358 0 0 0-.541.999l-.21.405c-.03.058-.059.118-.09.176a13.084 13.084 0 0 0-.165.331l-.067.134-.045.089a52.87 52.87 0 0 0-.675 1.433c-.02.04-.037.08-.055.12a37.983 37.983 0 0 0-.404.929c-.075.175-.148.352-.22.528-.071.17-.139.342-.207.514a56.073 56.073 0 0 0-.413 1.089 12.694 12.694 0 0 0-.174.484l-.019.054c-.01.025-.018.05-.027.076 0 .001 0 .004-.002.005a32.244 32.244 0 0 0-.278.816l-.056.17c-.001.008-.004.013-.006.018a.89.89 0 0 0-.017.053c-.004.011-.008.021-.01.031-.05.151-.097.301-.143.452-.041.134-.083.267-.121.399l-.049.161a.01.01 0 0 1 0 .003l-.049.163c-.038.129-.076.258-.11.386-.01.03-.018.06-.026.089a12.53 12.53 0 0 0-.128.465c-.007.018-.011.037-.016.055-.044.158-.085.317-.125.475a27.505 27.505 0 0 0-.145.584c-.01.036-.017.071-.026.107l-.001.003a29.712 29.712 0 0 0-.231 1.014c-.04.18-.077.362-.115.542l-.017.093c-.027.13-.053.26-.077.389l-.03.161c-.033.171-.064.342-.094.514-.03.167-.058.335-.085.504l-.01.067-.021.129c-.024.148-.048.295-.068.443-.027.184-.054.37-.079.554l-.008.058c-.026.191-.05.382-.074.574-.022.179-.043.359-.061.54-.022.188-.04.376-.058.565l-.008.077c-.017.171-.03.344-.044.516-.017.193-.031.387-.044.581-.01.144-.02.287-.027.431v.007l-.007.126-.002.048-.006.122c-.009.16-.017.321-.023.483-.006.161-.012.322-.016.484l-.001.052c-.001.021-.001.041-.003.061l-.002.113a31.608 31.608 0 0 0-.013 1 1051.554 1051.554 0 0 0 .002 1.938 504.857 504.857 0 0 0 .01 2.18v.072l.003.24.001.129v.115l.003.339.003.407.008.777.006.492c0 .166.003.333.005.502l.014 1.027v.004l.005.353.005.37.012.678.007.343c.003.117.004.234.006.354a32.047 32.047 0 0 1 .01.592c.004.099.005.198.006.299.005.166.008.333.012.501.002.104.004.209.008.313l.013.563.013.463c.012.506.027 1.013.043 1.522 0 .027 0 .053.002.08-2.294-.03-3.564-.05-3.564-.05H49.902a114.554 114.554 0 0 1-9.365-7.249 114.536 114.536 0 0 1-3.614-3.229 121.87 121.87 0 0 1-2.134-2.035 131.21 131.21 0 0 1-9.946-10.88 146.1 146.1 0 0 1-7.694-10.313c-.059-.088-.119-.174-.178-.26l-.175-.263a64.605 64.605 0 0 1-.69-1.041 82.198 82.198 0 0 1-.963-1.501l-.148-.236c-.13-.21-.26-.417-.388-.627a62.618 62.618 0 0 1-.38-.622l-.154-.256a84.338 84.338 0 0 1-.346-.579l-.133-.225a42.161 42.161 0 0 1-.29-.496l-.067-.117-.137-.236a87.755 87.755 0 0 1-1.26-2.256l-.018-.035a23.645 23.645 0 0 1-.196-.367c-.024-.043-.048-.086-.07-.13-.05-.091-.098-.183-.146-.274l-.04-.075c-.11-.207-.218-.415-.326-.622l-.137-.264c-.112-.218-.225-.436-.335-.655-.12-.241-.242-.481-.361-.723a91.612 91.612 0 0 1-1.21-2.53l-.347-.761-.026-.058-.357-.803-.007-.017a81.263 81.263 0 0 1-.367-.847 86.03 86.03 0 0 1-.675-1.622A69.55 69.55 0 0 1 7 155.69l-.11-.281-.062-.155c-.04-.099-.078-.198-.116-.299l-.142-.367a8.467 8.467 0 0 1-.08-.206 4.685 4.685 0 0 1-.07-.187c-.033-.081-.064-.165-.095-.248a7.216 7.216 0 0 1-.073-.196l-.251-.677c-.013-.034-.023-.066-.037-.1-.005-.017-.012-.035-.019-.053l-.034-.094-.225-.628-.04-.11-.116-.328-.03-.089c-.025-.07-.05-.138-.072-.207l-.05-.141a143.886 143.886 0 0 1-.444-1.318l-.136-.421-.007-.018c-.026-.078-.049-.157-.075-.234l-.176-.555a.565.565 0 0 0-.01-.03c-.087-.277-.172-.554-.256-.831l-.004-.009a6.846 6.846 0 0 0-.031-.104l-.097-.321-.061-.207-.06-.205a54.426 54.426 0 0 1-.241-.829l-.014-.053a27.39 27.39 0 0 1-.094-.331c-.038-.133-.074-.265-.11-.396l-.02-.073a35.669 35.669 0 0 1-.113-.415l-.088-.327a34.868 34.868 0 0 1-.184-.702l-.057-.223a82.31 82.31 0 0 1-.205-.814l-.012-.05c-.058-.237-.116-.475-.172-.712-.01-.04-.02-.077-.028-.117l-.02-.088c-.044-.187-.088-.373-.13-.56l-.014-.061-.12-.529c0-.004 0-.007-.003-.01l-.101-.458-.08-.373-.02-.09-.083-.387-.013-.062c-.038-.18-.074-.36-.11-.541l-.05-.247a46.446 46.446 0 0 1-.125-.635l-.041-.214c-.004-.018-.008-.036-.01-.054l-.012-.059-.075-.397a34.87 34.87 0 0 1-.12-.667c-.022-.118-.043-.234-.063-.353l-.003-.021-.001-.008-.01-.053c-.005-.03-.009-.061-.015-.091-.013-.067-.023-.134-.035-.202a8.13 8.13 0 0 1-.036-.214 13.242 13.242 0 0 1-.08-.479c-.022-.13-.041-.259-.062-.389l-.027-.173a28.683 28.683 0 0 1-.04-.246l-.022-.145a44 44 0 0 1-.102-.675c0-.012-.002-.023-.004-.035a.232.232 0 0 1-.006-.036l-.036-.259-.016-.111-.005-.031-.021-.149v-.003a11.914 11.914 0 0 1-.025-.176c-.008-.055-.016-.11-.022-.165a6.33 6.33 0 0 1-.03-.228c-.017-.108-.031-.215-.044-.325l-.03-.223-.017-.129c0-.005 0-.011-.003-.017a7.83 7.83 0 0 1-.04-.321c-.017-.129-.032-.259-.047-.388l-.021-.18a73.448 73.448 0 0 1-.072-.621l-.021-.198v-.005a34.997 34.997 0 0 1-.048-.429l-.029-.276-.02-.192-.001-.014c-.004-.033-.008-.063-.01-.096a25.268 25.268 0 0 1-.053-.552l-.027-.294-.018-.215-.032-.346c-.05-.57-.093-1.141-.132-1.711l-.022-.348c-.012-.17-.022-.339-.032-.508l-.006-.098c-.016-.264-.03-.529-.043-.794l-.002-.037-.008-.153c-.01-.187-.019-.375-.027-.562 0-.023-.003-.044-.003-.067l-.001-.039-.006-.118-.004-.12a41.826 41.826 0 0 1-.023-.579c0-.048-.003-.094-.004-.142a86.13 86.13 0 0 1-.014-.463c-.004-.085-.006-.166-.008-.251l-.007-.267a71.57 71.57 0 0 1-.01-.443c-.003-.098-.004-.197-.006-.295V120.422c-.003-.077-.004-.156-.005-.232v-.122c-.002-.089-.004-.176-.004-.265l-.002-.323-.001-.454c-.001-.194-.003-.389-.001-.583 0-.433.004-.865.01-1.298v-.009c.005-.347.012-.694.021-1.04v-.007l.015-.523c.008-.34.02-.68.034-1.02l.001-.027v-.012L.095 114v-.004c.007-.175.016-.349.025-.523a51.207 51.207 0 0 1 .03-.593l.007-.122c.005-.094.01-.188.017-.282 0-.028.004-.056.004-.084l.03-.484v-.003c.021-.321.044-.642.067-.963l.008-.104.038-.497.053-.653c0-.005 0-.01.003-.016.017-.217.036-.435.057-.653.022-.252.047-.504.071-.756a107.344 107.344 0 0 1 .2-1.881l.077-.658a129.202 129.202 0 0 1 .157-1.236c.035-.266.071-.532.108-.797l.016-.111c.022-.161.046-.322.07-.483.03-.22.063-.438.097-.656l.084-.555c.006-.034.01-.067.017-.099a141.408 141.408 0 0 1 .213-1.309 112.875 112.875 0 0 1 .57-3.097c.03-.157.062-.313.093-.47l.007-.03.013-.059c.065-.322.132-.646.2-.969l.11-.513.04-.184a123.16 123.16 0 0 1 .497-2.172l.054-.228c.161-.67.328-1.337.501-2.003l.115-.44.104-.394a171.85 171.85 0 0 1 .265-.977c.048-.173.096-.348.146-.522a106.328 106.328 0 0 1 .585-2.012 166.498 166.498 0 0 1 .568-1.84c.087-.275.175-.55.265-.823.051-.158.102-.317.155-.474a119.355 119.355 0 0 1 1.757-4.96c.197-.52.397-1.039.601-1.556l.09-.224.044-.113c.014-.04.03-.077.045-.116l.084-.206c.027-.07.056-.138.084-.207.06-.15.12-.3.182-.45l.038-.093.256-.622.241-.578c.246-.583.496-1.166.75-1.747l.194-.436.263-.59.281-.623a134.324 134.324 0 0 1 .707-1.52l.241-.508a99.387 99.387 0 0 1 .9-1.846c.237-.476.479-.952.722-1.425l.068-.133.05-.098c.071-.14.143-.278.216-.418.12-.227.239-.456.36-.682.107-.203.214-.407.324-.609l.343-.636a127.991 127.991 0 0 1 1.658-2.953C35.02 68.466 54.4 78.92 70.287 87.38c9.304 4.955 17.413 9.227 23.483 12.03 2.753 1.272 15.294 4.297 15.294 4.297s.038.059.116.172c.311.452 1.257 1.748 2.849 3.346a31.08 31.08 0 0 0 1.877 1.737c3.03 2.585 7.498 5.421 13.457 6.731.471.104 1.756.414 3.64.879h.001c12.148 2.996 49.156 12.368 52.828 13.655 1.196.42 2.427 1.024 3.675 1.778.361.219.724.449 1.087.692h.001c.777.52 1.557 1.092 2.339 1.711l.003.004a52.634 52.634 0 0 1 3.982 3.512l.003.001.001.001c.541.527 1.08 1.068 1.614 1.622h.001c.379.393.754.79 1.128 1.193l.063.068c.119.128.236.258.355.387a96.74 96.74 0 0 1 4.463 5.276l.123.155c3.383 4.308 6.288 8.683 8.249 12.139l.001.003.004.005.012.023.034.058c.344.608.658 1.187.939 1.732 1.026 1.98 1.624 3.503 1.671 4.308.003.034.004.066.004.099l.006.006z" fill="#003FE5"/>
        <path d="M213.591 181.115h-13.753s-9.262 11.194-9.094 13.06c.169 1.866 22.846.509 22.846.509v-13.569h.001z" fill="#FED194"/>
        <path d="m91.493 111.629-22.162-.82-2.332-.086-1.037-.039-62.117-2.294-1.392-.052-1.94-.071a107.118 107.118 0 0 1 .2-1.881l.077-.658c.027-.22.053-.439.081-.658l.076-.579c.035-.265.071-.531.108-.796l.016-.111c.022-.161.046-.323.07-.484.03-.219.063-.438.097-.655l.084-.555c.006-.034.01-.067.017-.1l.105-.654.108-.654a112.61 112.61 0 0 1 .57-3.097c.03-.157.062-.313.093-.47l.007-.03a124.395 124.395 0 0 1 .212-1.028l.112-.514.039-.183a122.883 122.883 0 0 1 .497-2.172c.018-.077.037-.152.054-.229.161-.669.328-1.336.501-2.002l.115-.44.104-.394.148-.548.117-.429c.048-.174.096-.348.146-.522a106.328 106.328 0 0 1 .585-2.012c.054-.185.11-.37.166-.553.132-.43.266-.86.402-1.288.087-.274.175-.55.265-.823.052-.157.102-.316.155-.474a119.38 119.38 0 0 1 1.757-4.96c.197-.519.397-1.038.601-1.555l.09-.225a5.96 5.96 0 0 1 .044-.112c.014-.04.03-.077.045-.116l.084-.206c.027-.07.056-.138.084-.208.06-.149.12-.3.182-.45l.038-.093.256-.621.241-.578c.246-.584.496-1.166.75-1.747.064-.147.13-.291.194-.436l.263-.59.281-.623a132.219 132.219 0 0 1 .707-1.52l.241-.509a98.152 98.152 0 0 1 .9-1.846c.237-.475.48-.95.722-1.425.022-.044.044-.089.068-.133C41.27 78.984 70.688 97.804 84.076 106.65a516.999 516.999 0 0 1 7.418 4.977v.002z" fill="#2D2D2D" stroke="#fff" stroke-width="5" stroke-miterlimit="10"/>
        <path d="m71.954 105.566-22.196-.62-.005-.001-12.453-.348h-.001l-18.175-.508-9.472-.265-1.475-.041-7.106-.198c.022-.161.045-.323.07-.484.03-.219.063-.438.097-.655.026-.185.056-.371.084-.555.006-.034.01-.067.017-.1a166.466 166.466 0 0 1 .213-1.308c.147-.872.306-1.742.474-2.61.031-.162.062-.324.096-.488l.093-.469.007-.03.013-.059c.065-.323.132-.646.2-.97.036-.17.074-.34.11-.513l.04-.183a123.16 123.16 0 0 1 .497-2.172l.054-.229c.16-.669.328-1.336.501-2.002l.115-.44.104-.394a164.996 164.996 0 0 1 .265-.977c.048-.173.096-.348.146-.522a106.208 106.208 0 0 1 .585-2.012c.054-.185.11-.37.166-.553.132-.43.266-.86.401-1.288.088-.274.175-.55.266-.823.051-.157.102-.316.155-.474a119.468 119.468 0 0 1 1.756-4.96c.198-.519.398-1.038.602-1.555l.09-.225.044-.112c.014-.04.03-.077.045-.116l.083-.206c.028-.07.057-.138.084-.208.061-.149.12-.3.182-.45l.039-.093a114.763 114.763 0 0 1 .497-1.2c.245-.583.496-1.165.75-1.746.064-.147.13-.291.193-.436.088-.197.175-.394.264-.59l.28-.623a137.528 137.528 0 0 1 .708-1.52c7.154 3.659 14.328 7.632 21.108 11.566 3.91 2.267 7.69 4.523 11.26 6.694a710.061 710.061 0 0 1 15.44 9.676 641.613 641.613 0 0 1 10.47 6.889l.005.002c1.435.967 2.216 1.505 2.216 1.505l-.002-.001z" fill="#fff" stroke="#fff" stroke-miterlimit="10" opacity=".3"/>
        <path opacity=".52" d="M37.298 104.598H19.84l-.717-.509-5.287-3.745-10.703-7.583c.16-.67.327-1.336.5-2.003.039-.147.076-.294.116-.44.034-.13.07-.263.103-.394L4 89.376c.039-.143.077-.286.117-.428l.147-.523a106.328 106.328 0 0 1 .585-2.012l.165-.552c.132-.43.266-.86.402-1.289l18.677 11.732 13.204 8.293.001.001z" fill="#fff" stroke="#fff" stroke-miterlimit="10"/>
        <path opacity=".3" d="M174.785 207.617c.005-.044 6.842-70.432-56.642-70.432-63.483 0-57.672 70.168-57.573 71.249h6.608l4.032-.031c-.185-6.072-.194-12.044-.194-14.568 0-25.104 21.919-47.091 46.844-47.091s45.131 20.351 45.131 45.457c0 3.062.554 9.987.553 15.503l11.188-.085.055-.002h-.002zM213.591 165.001c0-1.865-2.659-6.214-2.659-6.214l-38.244-7.683 10.137 10.327s30.766 5.353 30.766 3.571v-.001zM144.998 121.806s-3.094-.154-8.096-.237c-.883-.016-1.824-.028-2.818-.037h-.001c-6.147-.056-14.312.019-22.962.515-5.595.321-11.394.816-16.981 1.568-5.432.731-19.925 4.4-23.83 5.401-.627.161-.981.254-.981.254l-1.044-.095-32.815-2.98-25.332-2.299-10.053-.913a42.435 42.435 0 0 1-.023-.579c0-.048-.003-.095-.004-.142-.006-.156-.01-.31-.014-.463l-.009-.251-.007-.267-.01-.444-.005-.295V120.426c-.003-.078-.004-.156-.005-.232l-.001-.123-.004-.264-.001-.324-.001-.454c-.001-.193-.003-.388-.001-.582 0-.434.003-.865.01-1.299v-.009c.005-.346.012-.693.021-1.039v-.007a102.664 102.664 0 0 1 .05-1.543v-.04l.022-.506v-.005c.007-.174.016-.348.025-.523a52.46 52.46 0 0 1 .03-.592l.008-.123c.005-.093.01-.188.017-.281 0-.028.003-.057.004-.085l.03-.483v-.003c.021-.321.043-.642.067-.963.001-.035.005-.07.008-.104l.038-.497.053-.653c0-.006 0-.01.002-.016.018-.217.037-.436.058-.653.022-.252.047-.505.07-.756l1.94.071 1.393.052 62.117 2.294 1.036.039 2.333.086 22.161.819 3.312.631 32.999 6.277 5.103.969h.001l12.091 2.301h-.001z" fill="#fff"/>
        <path d="M108.667 103.467s19.541-83.595 24.213-90.36c4.673-6.765 10.641-8.548 10.654-7.833.014.715-19.39 77.885-23.568 86.327-5.117 10.338-11.299 11.866-11.299 11.866z" fill="#4C4C4C"/>
        <path opacity=".3" d="m59.498 188.138-.644 3.853-1.537 9.195H40.542a114.32 114.32 0 0 1-3.614-3.23 118.534 118.534 0 0 1-2.134-2.034 131.53 131.53 0 0 1-9.946-10.88l11.705 1.047 21.086 1.882 1.858.167z" fill="#fff"/>
        <path d="M149.993 123.616c.169 3.732 18.187 27.138 23.745 27.817 5.557.679 37.195 7.354 37.195 7.354s-.142-21.453-18.967-25.371c-18.826-3.919-41.972-9.8-41.972-9.8h-.001z" fill="#FF920F"/>
        <path d="m191.938 153.695-16.936-5.654-8.562-10.855h25.498v16.509z" fill="#C41C0F" style="mix-blend-mode:multiply" opacity=".4"/>
        <path d="M191.938 153.694c1.593 0 2.885-3.695 2.885-8.254 0-4.56-1.292-8.255-2.885-8.255-1.593 0-2.885 3.695-2.885 8.255 0 4.559 1.292 8.254 2.885 8.254z" fill="#fff"/>
        <path d="M191.965 133.416c-18.826-3.919-41.972-9.8-41.972-9.8.1 2.208 6.45 11.291 12.77 18.491 11.88 1.076 29.343 3.118 34.663 6.159 8.308 4.749 13.507 10.52 13.507 10.52s-.142-21.453-18.967-25.371l-.001.001z" fill="#fff" style="mix-blend-mode:soft-light"/>
        <path d="M196.912 146.523c0 4.46 1.263 8.076 2.822 8.076 1.559 0 2.822-3.616 2.822-8.076 0-4.459-1.264-8.075-2.822-8.075-1.559 0-2.822 3.616-2.822 8.075z" fill="#fff"/>
        <path d="M159.256 129.269c.398 1.938 26.45 5.117 33.885 7.916 7.434 2.799 11.328 8.08 11.75 7.123.422-.955-4.341-7.293-11.75-9.328-7.41-2.036-34.222-7.351-33.885-5.711z" fill="#fff" style="mix-blend-mode:soft-light"/>
        <path d="M118.142 233.999c21.296 0 38.561-17.388 38.561-38.839 0-21.45-17.265-38.839-38.561-38.839s-38.56 17.389-38.56 38.839c0 21.451 17.264 38.839 38.56 38.839z" fill="#003FE5"/>
        <path d="M147.255 194.942c.141-16.198-12.783-29.444-28.865-29.585-16.082-.142-29.233 12.875-29.373 29.073-.14 16.198 12.783 29.444 28.865 29.586 16.082.141 29.233-12.876 29.373-29.074z" fill="#003FE5"/>
        <path d="M118.428 222.215c14.832-.151 26.734-12.384 26.583-27.323-.15-14.939-12.295-26.926-27.127-26.775-14.832.151-26.734 12.384-26.583 27.323.15 14.939 12.295 26.926 27.127 26.775z" fill="#FF920F"/>
        <path d="M144.868 189.1a27.537 27.537 0 0 0-5.063-10.812 27.567 27.567 0 0 0-5.001-5.013h-.001a27.118 27.118 0 0 0-16.32-5.688h-.001l-.339-.003a16.33 16.33 0 0 0-.387.004c-7.434.103-14.152 3.189-19.027 8.124a27.608 27.608 0 0 0-7.978 19.463c0 4.784 1.209 9.284 3.335 13.205a27.545 27.545 0 0 0 3.81 5.377c5.008 5.535 12.225 9.008 20.247 9.008 10.484 0 19.591-5.931 24.196-14.643a27.627 27.627 0 0 0 3.197-12.947c0-2.087-.231-4.121-.667-6.075h-.001zm-11.97 20.363a20.743 20.743 0 0 1-5.934 4.243 20.504 20.504 0 0 1-8.822 1.981c-3.155 0-6.394-.772-9.155-2.145a20.694 20.694 0 0 1-6.625-5.206 20.865 20.865 0 0 1-4.933-13.513c0-.887.055-1.761.162-2.62a20.785 20.785 0 0 1 2.043-6.753c.014-.032.03-.062.045-.093a20.899 20.899 0 0 1 5.116-6.487 20.567 20.567 0 0 1 13.347-4.909c1.27 0 2.444.108 3.621.318l.249.045a20.567 20.567 0 0 1 9.866 4.886 20.895 20.895 0 0 1 4.766 6.227 20.816 20.816 0 0 1 2.027 6.603c.12.91.183 1.838.183 2.782a20.861 20.861 0 0 1-5.957 14.638l.001.003z" fill="#FED194"/>
        <path d="M118.142 185.734c-5.177 0-9.373 4.227-9.373 9.442s4.196 9.442 9.373 9.442 9.374-4.227 9.374-9.442-4.197-9.442-9.374-9.442z" fill="#003FE5"/>
        <path d="m70.356 129.262-.03.175-2.217 12.221-2.38 13.126-6.748 37.219-1.665 9.182H40.541a111.045 111.045 0 0 1-2.311-2.035h17.377l1.343-7.396.688-3.784 6.257-34.434 2.217-12.2 2.192-12.062-.018-.1-3.317-18.306.993-.184.996-.183.04.221L69.33 123.6l.981 5.415.045.246v.001zM81.597 158.744c2.393-2.966 5.315-5.455 8.397-7.67a49.457 49.457 0 0 1 12.733-6.486c7.749-2.603 16.134-3.037 24.081-1.114 3.522.86 6.98 2.14 10.176 3.837l-.048.116c-4.905-2.027-10.096-3.397-15.381-3.836a49.447 49.447 0 0 0-3.035-.16c-12.453-.252-24.64 4.806-34.088 12.838-.95.815-1.88 1.656-2.744 2.559l-.092-.085v.001z" fill="#fff"/>
        <path d="M273.802 96.59a3.463 3.463 0 0 0 4.128-2.654c.473-2.16-1.118-4.147-.311-7.832l3.19-14.57c.807-3.684 2.783-5.004 3.985-6.876.74-1.97-.66-5.22-2.088-5.593l.212 4.019c-1.401.794-2.618.782-4.164.255l-.304-4.085c-.971.42-2.081 1.785-2.022 4.557.525 2.317 2.286 3.394 1.479 7.08l-3.19 14.57c-.807 3.684-3.079 4.813-3.552 6.972-.412 1.881.768 3.742 2.636 4.158h.001zm-1.829-3.978a2.637 2.637 0 0 1 3.143-2.022 2.656 2.656 0 0 1 2.008 3.167 2.637 2.637 0 0 1-3.144 2.022 2.655 2.655 0 0 1-2.007-3.167z" fill="#003FE5"/>
        <path d="M275.436 86.412a.433.433 0 0 1-.327-.517l3.336-15.237a.43.43 0 0 1 .513-.33l1.136.252a.433.433 0 0 1 .327.517l-3.336 15.238a.43.43 0 0 1-.514.33l-1.135-.253z" fill="#AEB6B7"/>
        <path d="M277.125 93.757a2.657 2.657 0 0 0-2.008-3.167 2.637 2.637 0 0 0-3.143 2.022 2.657 2.657 0 0 0 2.007 3.167 2.638 2.638 0 0 0 3.144-2.022zm-4.524.79a2.368 2.368 0 0 1-.099-.156l.166-.607-.485-.403a2.192 2.192 0 0 1-.007-.182l.447-.443-.22-.591c.026-.055.052-.11.081-.162l.609-.16.103-.62c.051-.036.101-.07.155-.1l.602.167.4-.49c.06-.005.12-.006.181-.006l.44.45.587-.221c.054.026.109.052.161.082l.158.613.616.103c.035.051.068.103.099.157l-.166.606.486.403c.005.06.006.12.006.182l-.446.443.22.59c-.026.056-.052.11-.082.163l-.608.159-.103.621c-.05.035-.102.069-.155.1l-.603-.167-.4.489c-.06.004-.119.006-.18.006l-.44-.45-.587.222a2.428 2.428 0 0 1-.161-.082l-.158-.613-.617-.104v.001z" fill="#404040"/>
        <path d="M273.492 80.08s4.519 1.906 7.004 1c0 0-2.71 20.991-5.289 23.493-2.578 2.503-1.715-24.493-1.715-24.493z" fill="#3369FA"/>
        <path d="M183.261 94.586c-3.571 2.591-10.121-3.625-16.198-9.717l-.003-.002c-1.703-1.706-3.367-3.401-4.921-4.892a77.91 77.91 0 0 0-1.25-1.174c-7.196-6.603-7.41-4.808-10.545-6.962-3.135-2.153-2.993-7.893 0-10.548 2.992-2.655 5.129 5.454 7.041 6.552 1.912 1.098 22.455 12.75 22.455 12.75.2 0 1.31-2.602 2.438-5.372 1.284-3.16 2.59-6.54 2.59-6.54s.942-.592 2.036-1.08c.957-.424 2.031-.772 2.696-.57.2.06.316.584.349 1.447.212 5.25-2.53 23.09-6.69 26.109l.002-.001z" fill="#FED194"/>
        <path opacity=".42" d="M183.26 94.586c-3.57 2.592-10.12-3.624-16.197-9.717l-.003-.001c-1.703-1.706-3.368-3.402-4.921-4.893.284.196 13.766 11.12 18.073 5.57.2 0 3.135-7.207 2.938-12.492-.126-3.412 1.719-4.372 1.719-4.372s.941-.592 2.036-1.08c.956-.425 2.03-.772 2.695-.57.201.06.316.584.35 1.446.212 5.25-2.53 23.09-6.691 26.11h.001z" fill="#F59D4E"/>
        <path d="M187.871 48.374s-3.855 19.567-4.476 20.992c-.621 1.425 10.249 2.374 11.283.805 1.036-1.57 3.002-13.71 1.036-17.024-1.968-3.314-7.843-4.773-7.843-4.773z" fill="#D2D7DB"/>
        <path d="M182.706 73.008s1.462-1.213 3.649-1.407c8.773-.782 13.509 6.1 13.121 7.898 0 0 1.626 3.658 3.804.86s2.097-3.91 1.941-4.926c-.155-1.017-6.909-8.29-11.568-8.915-4.658-.626-8.954-1.668-10.3.73-1.346 2.398-1.967 6.074-.647 5.76z" fill="#EFEFEF"/>
        <path d="M194.824 39.252s-3.432-1.563-6.506-2.372c-3.122-.958-7.186-2.596-9.258-5.04-3.648-4.302-15.232-10.897-18.012-6.832 0 0-3.039 2.952-3.71 7.047-.146.899-.18 1.851-.044 2.84.763 5.496 2.43 5.51.638 9.177-.931 1.9 1.302 2.433 2.921 1.617 1.618-.815 4.521 4.176 8.719 4.42 4.197.245 9.291-3.457 10.738-5.143 0 0 2.169-.26 5.41 1.73 2.561 1.573 6.397 5.299 7.492 7.501 1.096 2.202 8.076-7.452 5.833-11.379-2.245-3.926-4.221-3.566-4.221-3.566z" fill="#FED194"/>
        <path d="M178.383 33.724s4.184 5.439 6.432 1.894l-4.73-2.024-1.702.13zM173.684 30.683s-1.691-.121-2.401 4.507c0 0-1.986-5.493-.429-6.344 1.556-.85 2.829 1.836 2.829 1.836l.001.001zM157.468 31.398s7.278-5.377 10.255-4.454c2.978.922-6.746-2.898-6.746-2.898s-2.95 4.743-3.509 7.352z" fill="#F59D4E"/>
        <path d="M173.977 29.577c-4.751.365-1.22 8.13-3.548 4.945-2.33-3.186-.782-3.797-3.167-6.767-2.254-2.807-4.7-1.195-4.965-1.008-3.772 2.774-8.822 4.638-10.819 3.264-.691-.477-1.016-1.34-.795-2.69.259-1.578 1.039-2.323 1.882-2.838a6.67 6.67 0 0 1 2.072-.82c.181-.04.363-.073.547-.1l4.046-.562c.181-.024.286-.04.286-.04s8.995-5.506 7.003-.906c4.933-.85 10.998 7.249 7.459 7.522h-.001z" fill="#2D374D"/>
        <path d="M167.261 27.754s3.411 2.52 4.64 2.929c0 0 .652-.74.96-.657.308.081-6.381-3.073-6.381-3.073l.781.801z" fill="#530905"/>
        <path d="m165.177 25.678-1.785.477c-4.273 1.985-7.932-1.594-8.757-2.491.181-.04.363-.073.547-.1l4.045-.562 5.948 2.676h.002z" fill="#182032"/>
        <path d="M177.969 33.076s2.553 4.742 5.956 2.146c0 0-3.325-1.836-3.606-2.806-.28-.97-2.35.66-2.35.66z" fill="#72120C"/>
        <path d="M178.383 33.724s3.525 2.872 5.158 1.279l-1.18-.744-4.55-1.73s.05.572.571 1.195h.001z" fill="#530905"/>
        <path d="M174.451 17.34a18.97 18.97 0 0 0-3.846-.756c-7.8-.704-12.072 7.571-12.072 7.571 2.633 2.441 13.877 6.139 17.329 7.235.64.203 1.012.317 1.012.317a30.16 30.16 0 0 0 1.784 1.12c5.033 2.944 11.588 5.188 13.672 5.866.633.207 1.261-.382 1.07-1.025-.706-2.37-8.651-4.943-8.651-4.943l.015-.096c1.297-8.08-4.007-13.353-10.313-15.29z" fill="#FFB113"/>
        <path d="M180.311 44.965s1.424-2.61 1.722-3.824c.298-1.213 1.444 2.917.622 4.2 0 0-2.14-.601-2.344-.376z" fill="#F59D4E"/>
        <path d="M155.526 29.232a.137.137 0 0 1-.081.066c-.101.031-2.473.757-3.544-.33-.581-.59-.656-1.584-.223-2.957a.139.139 0 0 1 .174-.09.14.14 0 0 1 .089.174c-.4 1.266-.347 2.167.155 2.677.954.967 3.245.268 3.268.26a.137.137 0 0 1 .172.092.143.143 0 0 1-.01.108z" fill="#fff"/>
        <path d="M235.814 188.512s-.357 1.096-.937 2.709c-.324.898-.717 1.957-1.157 3.079a84.418 84.418 0 0 1-1.037 2.532c-.531 1.24-.969 2.545-1.669 3.554-7.454 10.76-2.898 14.571-2.898 14.571l-8.195-2.331s.961-7.913 2.224-16.413c.192-1.291.391-2.598.594-3.89.029-.181.056-.364.086-.545v-.007c1.011-6.368 2.128-12.353 3.069-14.858 2.414-6.42 9.919 11.599 9.919 11.599h.001z" fill="#FED194"/>
        <path d="M234.876 191.221c-.324.898-.716 1.957-1.156 3.078-1.936.371-5.899.343-7.985-.566-2.415-1.051-2.952-1.215-2.996-1.411-.007-.03-.007-.044-.007-.044l.093-.5v-.007l1.351-7.31 10.7 6.76z" fill="#F59D4E"/>
        <path d="M219.921 212.625s.961-7.913 2.224-16.413c4.729 2.983 10.538.619 10.538.619a50.54 50.54 0 0 1-1.669 3.555c-2.453 4.669-2.716 6.238-2.716 6.238l-1.993 8.667-6.385-2.666h.001z" fill="#FFB113"/>
        <path d="M231.422 217.717c-.031.538-.112 1.057-.275 1.472l-29.338-.352s-.737-.296-.985-1.783a6.651 6.651 0 0 1-.079-1.238c.055-2.571 11.124-4.611 14.809-6.344 4.763-2.24 4.395-.814 4.395-.814s4.063 1.793 8.662.187c0 0 1.692-2.964 2.632 5.89 0 0 .265 1.55.18 2.981l-.001.001z" fill="#003FE5"/>
        <path d="M231.422 217.717c-.031.538-.112 1.057-.275 1.472l-29.338-.351s-.737-.297-.985-1.783l30.599.661-.001.001z" fill="#FFB113"/>
        <path d="M215.526 212.425a.206.206 0 0 1-.2-.2c-.042-1.366-.673-2.329-.681-2.338a.207.207 0 0 1 .057-.287.203.203 0 0 1 .284.056c.029.044.705 1.073.75 2.557a.206.206 0 0 1-.198.213h-.011l-.001-.001zM212.734 212.846a.206.206 0 0 1-.2-.2c-.041-1.332-.541-1.911-.545-1.916a.208.208 0 0 1 .015-.291.203.203 0 0 1 .288.012c.025.027.606.682.653 2.182a.207.207 0 0 1-.198.213h-.013zM218.363 211.637a.207.207 0 0 1-.201-.202c-.055-2.253-1.316-2.36-1.329-2.361a.206.206 0 0 1-.192-.219.209.209 0 0 1 .218-.194c.067.005 1.648.137 1.712 2.763a.206.206 0 0 1-.2.212h-.01l.002.001z" fill="#fff"/>
        <path d="M247.163 148.781s-4.555 30.654-7.868 33.157c-2.263 1.711-8.715 1.668-12.574 1.468-1.789-.092-3.021-.217-3.021-.217s.159-1.637.435-4.415c1.374-13.786 5.639-55.672 7.708-65.131 2.484-11.366 0-18.454 0-18.454 4.151-.314 7.183 2.895 9.396 7.881 6.622 14.911 5.924 45.71 5.924 45.71v.001z" fill="#003FE5"/>
        <path d="M247.163 148.781s-4.555 30.655-7.868 33.157c-2.263 1.711-8.715 1.668-12.574 1.468-2.195-1.646-2.586-4.632-2.586-4.632s6.541 2.1 11.307-8.513c4.766-10.615.371-69.806.371-69.806s2.587-.676 5.425 2.616c6.622 14.911 5.924 45.71 5.924 45.71h.001z" fill="#0540C6"/>
        <path d="M224.135 178.775s5.119 2.643 9.674 2.225c4.555-.417 6.728-1.09 6.728-1.09s1.657-.906 1.036 1.134c-.621 2.042-3.105 12.468-5.279 12.676-2.175.209-15.218-2.502-15.218-3.962 0-1.46.632-14.461 3.059-10.984v.001z" fill="#0540C6"/>
        <path d="m259.239 195.219-.005.101c-.053.958-.124 2.033-.205 3.165a488.11 488.11 0 0 1-.414 5.247c-.375 4.51-.758 8.514-.758 8.514l-7.825 1.415-.697-10.241-.383-5.633-.187-2.764-.694-10.231-.449-6.59-.12-1.772s.867-.189 2.131-.093c1.794.135 4.387.843 6.435 3.479 2.083 2.676 3.609 7.338 3.17 15.403h.001z" fill="#FED194"/>
        <path d="m259.24 195.219-.006.101c-.052.958-.124 2.033-.205 3.165-4.059.189-7.899-.322-10.076-.699l-.187-2.764-.694-10.231-.448-6.59a15.06 15.06 0 0 1 2.01-1.864c1.794.135 4.387.843 6.435 3.48 2.083 2.675 3.609 7.337 3.171 15.402z" fill="#F59D4E"/>
        <path d="M258.901 200.189c-.376 4.51-1.043 12.056-1.043 12.056l-7.825 1.415-.952-14c.62.312 5.076 2.322 9.82.528v.001z" fill="#FFB113"/>
        <path d="M258.743 216.271c-.011.312-.191 1.444-.177 1.691.101 1.598.461 2.592-8.71 4.481-10.585 2.18-16.979 2.147-20.078-2.458-2.78-4.135 7.495-5.476 20.214-11.324-.079.156-1.815 5.17 8.205 2.729.418-.102.503.432.536.863.131 1.706.069 2.49.01 4.018z" fill="#003FE5"/>
        <path d="M249.856 222.443c-10.585 2.18-16.979 2.147-20.078-2.458 0 0 3.744 3.186 10.24 2.68 5.305-.413 15.394-3.659 18.55-4.704.1 1.598.46 2.592-8.711 4.481l-.001.001z" fill="#FFB113"/>
        <path d="M248.331 213.355a.346.346 0 0 1-.436-.198c-.847-2.092-1.979-2.712-1.991-2.718a.352.352 0 0 1-.147-.472.346.346 0 0 1 .465-.151c.055.028 1.362.721 2.316 3.076a.35.35 0 0 1-.19.456l-.017.007zM245.889 214.292a.345.345 0 0 1-.435-.199c-.848-2.091-1.98-2.712-1.992-2.718a.352.352 0 0 1-.147-.471.345.345 0 0 1 .465-.151c.055.028 1.362.72 2.316 3.076a.35.35 0 0 1-.19.456l-.017.006v.001zM242.969 215.591a.347.347 0 0 1-.436-.199c-.847-2.091-1.98-2.712-1.991-2.718a.35.35 0 0 1-.147-.471.345.345 0 0 1 .465-.151c.055.028 1.362.72 2.316 3.076a.351.351 0 0 1-.19.456l-.017.006v.001zM260.381 74.319c-3.138 11.454-23.104 20.871-23.104 20.871l-4.48-2.697c-6.05-3.64-16.947-10.185-24.564-14.693-4.375-2.59-7.668-4.508-8.339-4.818-2.369-1.096-13.29-5.214-13.29-5.214s1.139-16.787 3.519-22.313c2.375-5.51 2.378-7.036 2.378-7.045 0 0 4.869-1.377 10.77-.397 5.796.962 43.656 11.44 54.855 26.192.202.266.396.533.579.801 2.165 3.156 2.502 6.305 1.677 9.314l-.001-.001z" fill="#fff"/>
        <path opacity=".5" d="M263.829 68.563c-.498-.874-13.189-9.927-16.149-11.794-7.409-4.672-17.825-7.994-18.083-8.13.277.211 18.446 15.376 18.032 21.928-.334 5.288-6.22 9.469-17.728 7.304-9.146-1.721-9.785-7.496-12.344-10.284-2.574-3.954-5.073-5.97-9.356-3.612-4.285 2.358-15.665 2.452-15.665 2.452s8.665 5.096 14.152 9.267c.511.39 1.044.669 1.589.854a3.716 3.716 0 0 0-.042 1.253c7.617 4.509 18.514 11.053 24.564 14.693a13.14 13.14 0 0 0 2.357-.743c8.438-3.572 19.599-11.683 25.226-17.431 2.585-2.642 4.002-4.784 3.448-5.756l-.001-.001z" fill="#D2D7DB"/>
        <path d="M236.074 51.584s17.679 12.507 16.575 17.877c-1.104 5.371-5.681 8.407-5.681 8.407s9.408-1.682 10.573-5.357c1.165-3.675 4.969-1.251 1.165-6.569-3.805-5.317-22.631-14.359-22.631-14.359h-.001z" fill="#949A9B"/>
        <path d="M212.898 63.749s.479 4.925 1.087 9.072c1.036 7.053 12.91 14.716 20.394 15.111 0 0-.941 2.072-5.569 2.162-4.628.091-20.609-13.173-20.609-13.173s4.388-11.214 4.698-13.173h-.001z" fill="#AEB6B7"/>
        <path d="m149.337 72.195.666-1.505a.174.174 0 0 1 .23-.089l.241.109c.088.039.127.143.088.231l-.666 1.505a.174.174 0 0 1-.23.09l-.241-.11a.176.176 0 0 1-.088-.23z" fill="#C86767"/>
        <path d="M154.614 56.462a.508.508 0 0 1-.254-.669l.227-.515a.503.503 0 0 1 .665-.256.508.508 0 0 1 .255.669l-.228.515a.502.502 0 0 1-.665.256zm.512-1.155a.193.193 0 0 0-.255.098l-.227.515a.195.195 0 0 0 .097.256c.097.043.211 0 .254-.098l.228-.515a.195.195 0 0 0-.097-.256z" fill="#5A5A5C"/>
        <path d="M149.471 71.928a.337.337 0 0 1-.444.172l-2.224-1a.34.34 0 0 1-.17-.446l6.806-15.38a.337.337 0 0 1 .444-.172l2.224 1a.34.34 0 0 1 .171.446l-6.806 15.38h-.001z" fill="#7E7E80"/>
        <path d="m156.137 56.734-1.371-.616-1.372-.616a.414.414 0 0 0-.547.211l-7.828 17.69a.42.42 0 0 0 .209.55l2.743 1.233a.414.414 0 0 0 .547-.212l7.828-17.69a.42.42 0 0 0-.209-.55z" fill="#003FE5"/>
        <path d="m148.884 74.154.028.032a3.021 3.021 0 0 1 .302.406c.033.06.078.132.111.202.037.071.066.144.093.22.025.076.045.152.065.233l.066.255c.041.175.088.367.125.563.021.1.037.2.054.302.018.102.03.205.043.309.026.209.042.418.052.63.008.106.01.212.014.318.004.106.007.212.008.317l.002.158-.004.156a6.062 6.062 0 0 1-.013.306c-.014.2-.042.39-.072.573l-.05.267-.054.253c-.036.163-.067.32-.105.461a2.7 2.7 0 0 1-.257.645c-.084.145-.155.22-.155.22l-8.963-4.025s.007-.102.059-.262c.051-.16.145-.38.303-.624.079-.122.174-.25.272-.386l.15-.21.163-.215a5.92 5.92 0 0 1 .592-.652l.112-.106.118-.104c.078-.07.157-.139.239-.207.081-.068.161-.137.244-.202a8.928 8.928 0 0 1 .757-.557c.086-.056.17-.11.259-.16.169-.104.342-.198.499-.284l.232-.121a1.832 1.832 0 0 1 .441-.185c.074-.023.157-.037.224-.052.149-.024.279-.039.381-.041.048-.003.091-.003.119-.003h.043l3.503 1.573v-.003z" fill="#5A5A5C"/>
        <path d="m149.288 73.536.03.034a3.528 3.528 0 0 1 .322.43c.035.064.084.14.118.215a1.962 1.962 0 0 1 .168.48l.07.271c.044.186.094.39.133.599.022.106.04.212.057.32a9.252 9.252 0 0 1 .102.997c.007.114.01.225.014.337.005.114.007.226.008.338l.002.168-.004.164a5.687 5.687 0 0 1-.09.934l-.053.284-.058.269c-.039.174-.072.34-.111.49-.08.298-.185.53-.274.684-.089.154-.164.233-.164.233l-9.523-4.276s.008-.108.062-.278a2.87 2.87 0 0 1 .322-.663c.084-.13.185-.265.288-.41l.16-.223.174-.23a6.321 6.321 0 0 1 .629-.692l.119-.113.125-.11c.083-.074.168-.148.255-.22.086-.072.17-.145.259-.215a9.621 9.621 0 0 1 .805-.59c.092-.06.181-.118.275-.171.18-.111.364-.209.531-.302l.246-.13c.078-.04.152-.08.23-.112a1.95 1.95 0 0 1 .238-.083c.078-.023.167-.038.237-.055.159-.026.297-.04.405-.044.052-.003.097-.003.127-.003h.046l3.721 1.67-.001.003z" fill="#212021"/>
        <path d="M152.6 62.198s-1.266 1.499-.158 2.806c1.109 1.308 2.439-.861 2.439-1.722 0-.86-.76-2.168-2.28-1.084h-.001zM151.212 61.762c.032-1.02-2.691-3.125-4.496-2.68-1.805.447-.887 2.392-.887 2.392s.514.354 1.184.778c0 0-1.722-.58-2.133.916-.293 1.066.217 1.873 1.324 2.353-.61.378-.95 1.142-.786 2.204.051.33.301.56.653.72-.234.408-.728 1.41-.178 1.737.696.414 1.582.764 1.931-.32.149-.462.291-.813.355-1.083.779.007 1.419-.065 1.419-.065.348-.03.253-.861 0-1.467-.119-.285-.484-.768-.945-1.185 1.336.218 1.304.31 1.546-.314.229-.588.355-1.377-.126-2.08.71-.128 1.111-.973 1.14-1.906h-.001z" fill="#FED194"/>
        <path d="M147.019 62.231c.568.081 1.127.214 1.67.406.343.113.704.226.977.484.174.144.325.325.422.531l-.031.033a6.718 6.718 0 0 1-.972-.403c-.299-.175-.593-.361-.913-.5a17.305 17.305 0 0 0-1.164-.507l.011-.044zM146.207 65.5c.529-.026 1.066.039 1.592.087.331.04.636.203.862.454l-.014.043c-.458.099-.834-.006-1.242-.174-.299-.093-.902-.277-1.202-.366l.005-.045-.001.001zM146.075 68.423c.26-.01.548-.006.809 0 .159.008.38.018.538.011.288.01.529.117.76.323l-.007.044a1.238 1.238 0 0 1-.558.116c-.182.004-.348-.082-.519-.127l-.259-.072c-.251-.077-.525-.16-.771-.251l.008-.044h-.001z" fill="#F59D4E"/>
        <path d="M269.73 149.616c-2.485 14.232-7.298 34.721-7.298 34.721s-2.402.858-5.364 1.285c-3.73.538-8.346.395-10.164-3.005-3.261-6.1-4.753-32.361-4.969-38.318-.33-9.07-3.106-38.475-3.417-40.978-.311-2.504-13.508-9.383-20.496-14.231-6.987-4.849-13.199-11.222-13.199-11.222l-.103-3.769s24.947 20.151 31.78 12.437a36.4 36.4 0 0 1 2.762-2.778l.004-.003c6.792-6.16 15.725-10.308 16.903-12.86 1.345-2.917-6.108-10.009-18.116-18.088-2.912-1.959-6.402-3.524-10.113-4.742-11.592-3.803-25.339-4.21-30.338-2.611-6.599 2.11-8.462 7.665-9.362 7.694-.9.03.123-2.924.123-2.924s3.021-7.89 18.944-8.753c5.321-.288 11.438.917 17.561 2.87h.001c12.199 3.89 24.422 10.751 30.419 14.682C264.294 64.928 267.865 68 267.865 68c15.217 19.886 4.348 67.383 1.864 81.616h.001z" fill="#3369FA"/>
        <path d="M269.73 149.616c-2.484 14.233-7.298 34.721-7.298 34.721s-2.402.859-5.364 1.286c-5.186-2.043-8.766-4.517-8.766-4.517s9.303.261 12.492-7.247c3.191-7.508-.381-90.556-4.315-94.308-3.898-3.72-16.981 4.068-17.212 4.205 6.792-6.159 15.725-10.307 16.903-12.86 1.345-2.917-6.108-10.008-18.116-18.088-2.912-1.958-6.402-3.524-10.113-4.741-.99-1.627-2.018-2.916-3.071-3.724 12.199 3.89 24.422 10.75 30.419 14.682 9.006 5.904 12.577 8.977 12.577 8.977 15.218 19.886 4.348 67.383 1.864 81.615v-.001z" fill="#003FE5"/>
        <path d="M204.196 74.745c-.294 4.554-8.769 14.949-10.868 20.137-1.519 3.754-10.476 16.276-14.863 22.549-1.355 1.939-2.274 3.281-2.401 3.583-.453 1.071 3.871 5.249 4.746 7.397.173.424.213.767.056.993-.954 1.377-5.088 4.547-7.154 4.483-2.068-.064-3.34.705-3.848-.449-.509-1.153 2.639-3.586 2.67-4.291.032-.704-1.939-2.273-3.655-2.754-1.429-.4-2.484 1.418-3.275 2.667a9.312 9.312 0 0 1-.446.663c-.826 1.088-2.32.704-1.812 0 .509-.705.222-1.601.222-1.601-.143-3.963 3.29-5.621 6.367-9.872 3.076-4.252 12.805-30.984 14.594-35.091 1.788-4.108 2.861-10.16 2.861-10.16 1.272-6.036 5.27-6.92 9.047-5.704 4.083 1.315 7.91 5.082 7.758 7.448l.001.002z" fill="#FED194"/>
        <path d="M204.196 74.744c-.294 4.555-8.769 14.95-10.868 20.138-1.519 3.754-10.477 16.276-14.863 22.549.117-.229 17.021-28.325 19.681-34.833 2.67-6.533-8.993-10.54-8.993-10.54s3.081-2.4 7.284-4.761c4.084 1.314 7.91 5.082 7.759 7.447zM180.866 129.405c-.953 1.377-5.088 4.547-7.154 4.483-2.067-.064-3.339.705-3.848-.449-.509-1.153 2.639-3.586 2.67-4.291.033-.704-1.939-2.273-3.655-2.754-1.429-.401-2.484 1.418-3.275 2.667 0 0 .732-4.236 3.37-3.564 2.639.673 3.72 3.126 4.642 3.564.807.385 4.974-.009 7.194-.65.173.424.213.767.056.993v.001z" fill="#F59D4E"/>
        <path d="M246.057 180.038s5.545 3.105 10.1 2.688c4.555-.417 6.728-1.091 6.728-1.091s1.657-.905 1.037 1.135c-.622 2.041-1.645 12.486-3.819 12.695-2.174.208-12.6-.222-14.044-2.892-.693-1.282-2.429-16.012-.002-12.536v.001z" fill="#0540C6"/>
        <path d="M206.531 80.88c-.25.322-.493.556-.726.723-1.802 1.283-3.078-1.584-3.078-1.584.389-1.798-4.347-8.679-13.12-7.897-2.187.195-3.649 1.407-3.649 1.407-.345.082-.557-.108-.658-.477-.288-1.042.311-3.511 1.306-5.284 1.345-2.397 5.642-1.355 10.3-.73 4.659.627 11.412 7.898 11.569 8.915.154 1.016.237 2.128-1.942 4.927h-.002z" fill="#fff"/>
        <path d="M152.819 65.195c-.327 1.019-.52 2.11-.251 3.158.263.844.769 1.83 1.6 2.22-.882-.195-1.501-1.152-1.792-1.957-.393-1.105-.131-2.427.443-3.42z" fill="#F59D4E"/>
        <path opacity=".5" d="M205.805 81.603c-1.802 1.283-3.078-1.584-3.078-1.584.389-1.798-4.347-8.679-13.12-7.897-2.187.195-3.648 1.407-3.648 1.407-.346.082-.558-.108-.659-.477h.001s2.805-2.99 7.723-2.313c4.916.678 13.866 7.234 12.782 10.864h-.001z" fill="#D2D7DB"/>
    </g>
    <defs>
        <clipPath id="11b21ynk2a">
            <path fill="#fff" d="M0 0h285v234H0z"/>
        </clipPath>
    </defs>
</svg>
