<svg width="345" height="261" viewBox="0 0 345 261" fill="none" xmlns="http://www.w3.org/2000/svg">
    <g clip-path="url(#vghdqro6ea)">
        <path opacity=".75" d="M43.523 157.672V158.612a41.822 41.822 0 0 0 .006.494c0 .11.003.219.005.329v.004c.005.232.011.462.019.693l.014.394.015.391.017.376.023.407c.007.13.015.261.024.39.007.131.015.26.025.391l.028.388c.016.22.034.438.052.657l.001.016a18.125 18.125 0 0 0 .033.374l.03.312c.011.136.025.271.04.407l.016.166c.019.172.036.34.056.51l.002.029c.01.077.018.155.026.23l.046.383.047.381.059.444.044.318c.054.39.11.78.171 1.169.019.115.036.229.056.344.02.125.04.25.062.376.011.073.024.146.036.218 0 .008.004.016.005.026a75.417 75.417 0 0 0 .225 1.251l.047.247.09.46c.048.237.096.474.146.71l.04.186.069.316.04.191.037.16a6.726 6.726 0 0 0 .062.281 67.76 67.76 0 0 0 .53 2.177l.015.064.015.056.042.162.136.512c.051.193.105.385.158.576.04.147.08.293.124.439.049.171.096.343.146.512l.06.205.125.416a84.097 84.097 0 0 0 .857 2.681l.03.085c.018.056.035.109.055.165.02.063.042.125.064.188a53.874 53.874 0 0 0 .116.329 104.867 104.867 0 0 0 .38 1.066c.023.063.045.126.07.191.039.109.077.217.117.323l.014.033.11.298c.195.517.393 1.03.594 1.537l.055.137c.007.019.016.038.024.056 0 .004.002.006.004.01.041.107.085.214.128.319.065.159.127.315.193.471l.16.388c.072.176.146.349.22.525.076.177.15.355.227.532h.001c.072.171.146.339.22.506l.025.059h.001l.05.118c.075.166.147.332.223.498.066.151.134.302.202.449.02.046.04.093.061.136l.059.126c.084.185.169.369.255.551a98.209 98.209 0 0 0 1.887 3.838l.19.364a76.291 76.291 0 0 0 .662 1.242 80.754 80.754 0 0 0 .574 1.044 101.944 101.944 0 0 0 2.01 3.459l.01.017a106.626 106.626 0 0 0 3.562 5.492c.024.038.049.073.074.108a108.075 108.075 0 0 0 4.8 6.414l.177.217c.51.627.972 1.177 1.375 1.649l.156.181a59.962 59.962 0 0 0 1.62 1.807 111.3 111.3 0 0 0 5.474 5.073 118.598 118.598 0 0 0 9.896 7.707c.35.246.702.489 1.057.73.115.08.23.158.346.237a126.333 126.333 0 0 0 6.45 4.102h.001a131.708 131.708 0 0 0 9.612 5.192 134.011 134.011 0 0 0 22.04 8.436c16.875 4.803 35.106 6.382 53.283 3.549 16.922-2.637 33.799-9.096 49.498-20.336a123.51 123.51 0 0 0 4.805-3.621 128.297 128.297 0 0 0 7.87-6.77 130.455 130.455 0 0 0 3.732-3.616 144.84 144.84 0 0 0 10.797-12.176 163.817 163.817 0 0 0 8.545-11.835l.191-.293.216-.333c.18-.277.357-.554.533-.832.186-.292.37-.585.552-.879.166-.266.33-.533.492-.8.055-.088.108-.176.162-.265l.422-.702c.138-.231.276-.463.411-.696l.167-.285c.126-.216.252-.432.376-.65.049-.084.097-.167.145-.253.106-.186.211-.37.314-.554.026-.043.05-.088.074-.13a89.712 89.712 0 0 0 1.061-1.935c.153-.285.305-.57.454-.854.006-.014.014-.026.021-.04.071-.136.143-.273.213-.41.026-.048.051-.097.076-.147.054-.102.105-.203.157-.305l.044-.084c.12-.233.236-.464.355-.697l.148-.295a100.065 100.065 0 0 0 .757-1.544c.315-.651.62-1.302.918-1.957a109.387 109.387 0 0 0 .772-1.726c.009-.022.02-.043.028-.066a116.026 116.026 0 0 0 .395-.916c.13-.307.26-.614.385-.92a.123.123 0 0 0 .014-.031c.125-.297.245-.594.366-.89a330.178 330.178 0 0 1 .367-.923l.24-.61.12-.313.066-.174.127-.333.153-.411c.03-.075.059-.152.087-.23.026-.069.053-.139.076-.209l.104-.277c.026-.074.054-.147.079-.22.092-.251.182-.505.273-.758.013-.037.025-.074.04-.113a.566.566 0 0 1 .02-.058l.036-.106c.082-.234.165-.468.245-.702a31.902 31.902 0 0 0 .168-.49l.033-.099.08-.234.053-.157.025-.075c.1-.303.2-.605.298-.907a.294.294 0 0 0 .008-.028l.151-.464.148-.47.007-.022.081-.261a137.257 137.257 0 0 0 .201-.653c.095-.31.186-.621.279-.931l.004-.01.034-.115a68.252 68.252 0 0 0 .172-.592l.064-.229c.09-.309.177-.619.261-.927l.016-.061a155.156 155.156 0 0 0 .242-.895c.041-.155.083-.31.122-.464.034-.122.065-.244.096-.366.01-.038.019-.076.03-.113l.054-.213c.039-.154.079-.307.116-.461l.062-.25c.075-.302.149-.607.221-.91l.014-.056c.064-.266.125-.532.186-.797.011-.044.021-.087.03-.131l.022-.098.141-.627.015-.068.13-.592.002-.011.111-.514c.029-.139.058-.278.085-.417l.022-.102c.03-.145.061-.288.09-.433l.013-.069.121-.604.054-.277c.046-.236.092-.474.135-.712l.046-.239.01-.059.012-.067.081-.443.106-.595.025-.152.069-.394a.09.09 0 0 1 .003-.023l.001-.008.01-.06.017-.102.037-.227c.006-.052.015-.103.024-.155l.015-.084c.022-.126.041-.252.061-.379l.026-.157.066-.434.031-.194c.014-.092.029-.184.041-.275l.025-.163c.039-.252.075-.504.11-.756.001-.011.002-.024.005-.037.002-.013.005-.026.006-.04l.04-.291.016-.124.005-.035c.007-.056.016-.111.024-.167v-.003l.026-.197a6.72 6.72 0 0 0 .024-.185c.013-.085.024-.169.033-.255.017-.121.034-.242.048-.364l.031-.25.018-.143.002-.02c.012-.09.024-.182.033-.271.005-.029.008-.058.012-.088.018-.144.035-.29.05-.434l.024-.201c.026-.233.052-.463.076-.696.01-.074.017-.147.024-.222v-.005c.019-.16.035-.32.05-.479.012-.103.022-.206.032-.309l.022-.214.001-.017.01-.107c.017-.172.033-.345.047-.519l.01-.1c.01-.109.021-.218.029-.328l.021-.24.034-.389c.054-.638.102-1.276.144-1.915l.024-.389.035-.569.006-.109c.016-.296.033-.593.046-.889l.002-.042c.002-.057.007-.114.01-.171a132.72 132.72 0 0 0 .033-.704l.001-.043.006-.132.003-.129v-.005c.01-.217.019-.432.026-.649l.005-.157.015-.52a8.82 8.82 0 0 0 .009-.28l.007-.299.011-.496.005-.329v-.03l.001-.1.006-.26.001-.138.004-.296.001-.362.001-.509c.001-.217.002-.434.001-.652-.001-.484-.003-.968-.01-1.453v-.01a150.64 150.64 0 0 0-.024-1.164v-.007c-.004-.195-.01-.39-.016-.586-.009-.38-.023-.76-.037-1.14l-.001-.031v-.014a35.692 35.692 0 0 0-.024-.566v-.006c-.007-.194-.017-.39-.026-.585l-.029-.593a5.35 5.35 0 0 0-.012-.208c-.006-.105-.01-.21-.018-.315l-.005-.094-.033-.542v-.002c-.022-.358-.046-.718-.071-1.077l-.009-.117c-.014-.186-.026-.371-.041-.556a83.139 83.139 0 0 0-.057-.73l-.002-.017c-.019-.244-.04-.488-.062-.73-.023-.282-.05-.564-.077-.846a97.358 97.358 0 0 0-.216-2.106c-.026-.245-.056-.491-.084-.737l-.089-.736c-.026-.216-.054-.432-.082-.649a94.52 94.52 0 0 0-.134-1.014c-.024-.181-.05-.361-.075-.541-.034-.246-.069-.49-.106-.734-.028-.207-.06-.415-.09-.621h-.001l-.017-.113-.114-.733-.117-.732c-.161-.976-.332-1.949-.515-2.92-.034-.181-.068-.363-.104-.545a96.92 96.92 0 0 0-.1-.525l-.008-.035-.013-.065a104.465 104.465 0 0 0-.337-1.66c-.015-.068-.028-.137-.042-.205a137.175 137.175 0 0 0-.539-2.432l-.059-.255c-.176-.749-.356-1.495-.544-2.241-.041-.166-.081-.33-.125-.493-.036-.147-.075-.295-.112-.442-.054-.204-.106-.408-.161-.613-.041-.16-.084-.32-.127-.48-.051-.194-.105-.39-.159-.584a153.635 153.635 0 0 0-.634-2.252l-.181-.619c-.144-.48-.29-.962-.437-1.442-.095-.307-.19-.614-.287-.92a135.055 135.055 0 0 0-2.076-6.08c-.216-.583-.432-1.162-.654-1.742-.031-.085-.065-.169-.097-.252a3.23 3.23 0 0 0-.048-.125l-.05-.126-.091-.234a104.767 104.767 0 0 0-.287-.737c-.014-.035-.026-.07-.041-.105l-.278-.695c-.085-.215-.173-.431-.261-.647-.267-.654-.538-1.306-.814-1.956-.069-.163-.14-.326-.21-.488l-.286-.661-.306-.697c-.227-.514-.458-1.027-.692-1.539l-.075-.162c-.086-.19-.176-.379-.262-.569a140.274 140.274 0 0 0-1.761-3.661l-.075-.15h-.001c-.016-.036-.035-.071-.053-.107-.077-.157-.157-.313-.236-.47l-.389-.764a474.012 474.012 0 0 0-.725-1.393 151.141 151.141 0 0 0-1.815-3.332c-.071-.129-.144-.255-.215-.383a71.904 71.904 0 0 0-.616-1.078 143.967 143.967 0 0 0-2.71-4.5c-.036-.062-.074-.122-.111-.181l-.313-.496-.341-.532c-.136-.213-.272-.426-.411-.637l-.136-.21a160.308 160.308 0 0 0-1.342-2.02c-.111-.168-.225-.334-.338-.5-.33-.483-.662-.963-.997-1.442h-.001a143.875 143.875 0 0 0-4.754-6.397l-.422-.532c-.345-.433-.693-.864-1.043-1.292-.16-.198-.322-.395-.483-.592l-.536-.644-.51-.608-.386-.452c-.259-.305-.521-.609-.783-.911l-.401-.46c-.165-.19-.331-.377-.497-.565-.365-.41-.729-.817-1.097-1.223-.179-.196-.356-.392-.538-.589l-.279-.302a161.483 161.483 0 0 0-1.352-1.444c-24.008-25.24-56.91-40.144-91.634-34.528-7.324 1.185-13.793 2.633-19.517 4.319a112.765 112.765 0 0 0-5.243 1.68C95.131 18.2 88.221 36.267 83.269 57.205h.001l-.345 1.482-.342 1.49c-.225.998-.45 2-.674 3.007-.267 1.209-.537 2.426-.81 3.65-.566 2.54-1.15 5.108-1.785 7.698v.001a216.552 216.552 0 0 1-.708 2.814c-.244.94-.495 1.882-.758 2.825v.002c-.173.63-.352 1.26-.537 1.891a129.762 129.762 0 0 1-1.635 5.23c-.054.16-.109.318-.162.478-.122.36-.247.721-.375 1.081-.097.276-.195.553-.296.829-.07.197-.144.394-.216.59a89.88 89.88 0 0 1-.947 2.479c-.1.253-.2.504-.303.758-1.708 4.21-3.752 8.433-6.268 12.635-.116.197-.235.392-.355.589a87.88 87.88 0 0 1-3.59 5.423c-.115.158-.228.318-.343.475-.23.316-.463.633-.7.948-.12.157-.238.317-.358.474l-.156.204c-.052.068-.105.136-.156.205h-.001a92.268 92.268 0 0 1-2.323 2.898 79.19 79.19 0 0 0-2.564 3.229c-.155.205-.307.411-.458.615a74.81 74.81 0 0 0-1.977 2.822h-.001l-.174.261a69.171 69.171 0 0 0-1.846 2.952c-.011.022-.024.042-.036.062-.096.161-.187.319-.28.48l-.249.433-.081.141-.164.293c-.09.161-.179.32-.266.48-.071.129-.141.26-.21.389a1.33 1.33 0 0 0-.029.052c-.07.127-.137.255-.205.383l-.259.493-.192.376-.22.433-.167.337-.255.522-.205.43-.31.664-.168.37a63.986 63.986 0 0 0-.813 1.887l-.034.08-.173.428c-.057.142-.115.286-.17.428l-.137.35c-.009.026-.02.052-.03.077-.054.141-.108.284-.16.427-.054.141-.107.285-.16.427a60.681 60.681 0 0 0-.862 2.527l-.042.134-.23.745-.005.02-.084.282-.035.124h-.001l-.052.182-.07.242c-.04.142-.08.283-.118.425a14.986 14.986 0 0 0-.114.424l-.098.368-.014.054-.108.423-.014.048a2.02 2.02 0 0 0-.02.078l-.024.1c-.017.066-.033.131-.047.197-.02.078-.039.155-.056.233l-.045.188c-.04.166-.077.333-.115.499l-.041.181-.036.164c-.008.035-.015.071-.024.105-.02.09-.04.178-.057.266l-.077.371-.02.1-.08.387-.028.145a6.409 6.409 0 0 1-.018.097c-.041.209-.08.419-.12.628-.001.016-.005.035-.008.051l-.04.225-.026.146a5.488 5.488 0 0 0-.055.321l-.066.396-.034.21-.039.251-.01.076c-.01.054-.017.108-.026.161-.014.085-.025.171-.038.256l-.031.224-.027.192-.032.236c-.009.06-.016.121-.023.181-.019.13-.035.259-.051.389l-.004.026c-.014.109-.026.218-.038.327l-.001.001-.01.088a8.642 8.642 0 0 0-.017.139l-.011.113-.017.164-.014.114-.029.276-.002.022a21.409 21.409 0 0 0-.044.451l-.014.147v.005l-.02.224a49.06 49.06 0 0 0-.066.824l-.007.095-.007.094c-.006.074-.01.149-.015.223-.01.144-.02.288-.028.432l-.01.157a9.404 9.404 0 0 0-.011.231l-.004.062-.017.348c-.017.355-.03.713-.04 1.068-.002.052-.004.104-.004.156l-.004.09-.006.247c0 .036 0 .073-.002.11l-.004.366-.002.105-.001.222-.001.012z" fill="#F2F5FD"/>
        <path d="M43.523 157.672v.061c-.002.259-.002.516 0 .773v.106a34.422 34.422 0 0 0 .005.494c.001.11.004.219.006.329v.005a55.101 55.101 0 0 0 .032 1.086l.016.392.017.375c.007.136.014.272.023.407l.023.39a50.582 50.582 0 0 0 .054.779c.016.22.033.438.052.657v.016l.03.336.004.038.03.312c.011.137.025.271.04.407l.016.167c.019.171.036.339.056.509l.002.029c.01.077.018.155.026.23l.046.383.047.382.058.443.044.319c.055.389.112.779.172 1.168.019.115.036.229.056.344l.061.376.036.218.005.026a75.417 75.417 0 0 0 .509 2.668c.014.061.025.124.04.186.021.106.045.21.068.317l.041.19.037.16.03.145.032.137a66.393 66.393 0 0 0 .545 2.24l.014.056.043.162c.044.171.09.343.136.513.051.192.105.384.157.576.04.146.081.292.124.438.05.172.097.343.147.512l.06.205.124.416a82.208 82.208 0 0 0 .887 2.766c.019.056.036.11.056.166.02.062.042.124.064.187a53.874 53.874 0 0 0 .115.329l.181.515c.065.183.132.367.2.551.023.064.045.127.07.192.039.108.077.216.117.323.04.11.084.22.125.331.194.517.392 1.03.593 1.537.019.046.036.093.055.137l.023.056.004.01c.042.107.086.214.13.319.064.159.126.315.191.471l.16.388c.073.176.147.349.221.525.075.177.15.355.227.533l.22.506c.01.019.017.038.026.058l.052.118.221.499.202.449c.02.045.041.092.062.135l.058.126c.084.185.17.369.255.551l.147.315a97.986 97.986 0 0 0 1.74 3.523l.191.364c.125.239.251.478.377.714l.285.528a62.555 62.555 0 0 0 .573 1.044 102.252 102.252 0 0 0 2.01 3.459l.012.017a106.942 106.942 0 0 0 1.846 2.938 105.917 105.917 0 0 0 1.789 2.662 107.994 107.994 0 0 0 4.8 6.414l.176.218c.511.626.973 1.176 1.376 1.648.052.061.105.121.155.182a60.908 60.908 0 0 0 1.395 1.566l.225.24a111.322 111.322 0 0 0 5.474 5.074 118.957 118.957 0 0 0 9.897 7.706c.35.246.702.489 1.056.73l.347.237a126.246 126.246 0 0 0 5.1 3.287c.447.274.898.545 1.35.816h.001a132.046 132.046 0 0 0 9.612 5.191 133.977 133.977 0 0 0 22.04 8.436c16.875 4.803 35.106 6.383 53.283 3.549 16.921-2.637 33.799-9.096 49.498-20.336a124.496 124.496 0 0 0 4.805-3.62 131.625 131.625 0 0 0 11.601-10.386 145.023 145.023 0 0 0 10.798-12.177 163.817 163.817 0 0 0 8.545-11.835l.19-.293c.073-.109.146-.222.217-.333.18-.277.356-.554.533-.831a91.763 91.763 0 0 0 1.044-1.68 130.24 130.24 0 0 0 .995-1.663l.167-.285c.126-.215.251-.432.376-.649l.145-.253.314-.555.074-.13.148-.265a89.712 89.712 0 0 0 .913-1.669c.153-.286.305-.571.454-.855l.02-.04c.072-.136.144-.272.214-.41l.076-.147c.054-.102.105-.203.157-.305l.044-.084.355-.697.148-.295a85.905 85.905 0 0 0 .756-1.543 95.96 95.96 0 0 0 1.315-2.833c.126-.282.251-.567.376-.851.009-.022.02-.043.028-.066a116.026 116.026 0 0 0 1.159-2.757 132.197 132.197 0 0 0 .367-.922c.081-.205.162-.407.24-.611l.121-.313c.021-.058.044-.116.066-.173l.126-.334c.052-.137.104-.273.154-.411.029-.075.059-.152.086-.23.027-.068.053-.138.077-.208l.104-.278c.026-.073.054-.147.079-.22l.272-.758.04-.113.021-.058a6.33 6.33 0 0 1 .036-.105l.245-.703c.015-.041.028-.082.042-.124l.126-.366.033-.099.08-.234.053-.157.024-.075a87.104 87.104 0 0 0 .307-.935l.151-.464.148-.47.006-.022c.029-.087.054-.175.082-.261.064-.208.129-.415.191-.62a.17.17 0 0 1 .01-.032c.095-.311.186-.622.279-.932l.004-.009c.011-.038.021-.078.034-.116l.105-.359c.035-.12.069-.239.102-.359l.029-.103c.025-.084.049-.171.072-.255.049-.175.1-.349.146-.524.021-.069.04-.14.059-.209.035-.123.069-.246.101-.369l.099-.371.02-.073.022-.082.122-.464a21.81 21.81 0 0 0 .125-.479l.054-.213c.019-.071.036-.141.053-.212.02-.084.043-.167.064-.249l.062-.249c.075-.303.149-.608.221-.911.005-.018.008-.037.014-.056.064-.266.125-.532.186-.797.01-.044.021-.087.03-.131l.022-.098c.047-.209.095-.418.14-.627l.016-.067.13-.592.001-.012.111-.514c.03-.139.059-.277.086-.416l.022-.103.09-.432.013-.07c.041-.202.081-.402.12-.604l.055-.277c.046-.236.092-.474.135-.711l.046-.239.01-.06.012-.066.081-.444.067-.382.064-.365.061-.364c.004-.017.005-.035.01-.053l.001-.008.01-.059.017-.103.037-.227a40.455 40.455 0 0 0 .1-.618c.009-.051.016-.104.026-.157l.066-.434.031-.194c.014-.092.029-.184.041-.275.009-.054.015-.109.025-.163l.073-.499.042-.295.005-.04.041-.291.016-.123.005-.036c.007-.056.016-.111.024-.167v-.003l.026-.197.024-.185c.012-.085.024-.169.033-.255.017-.121.033-.241.048-.364l.061-.505c.009-.059.016-.118.023-.178l.011-.088.031-.265.043-.37c.027-.233.052-.463.077-.696.01-.074.016-.147.024-.221v-.006a19.434 19.434 0 0 0 .066-.641l.016-.147.021-.214.001-.017.001-.02.01-.108a29.8 29.8 0 0 0 .047-.498l.01-.1c.01-.109.021-.218.029-.328l.021-.24c.01-.13.023-.258.034-.389.009-.094.015-.191.021-.285.02-.224.037-.449.054-.673.025-.317.047-.638.068-.957l.025-.388.035-.57.006-.109c.016-.296.033-.593.046-.889l.002-.042c.002-.057.007-.114.01-.171l.029-.63.004-.074.001-.043.005-.132a5.58 5.58 0 0 0 .005-.134c.01-.216.017-.432.025-.649l.005-.157.015-.52.009-.281.007-.297.016-.827v-.03l.001-.1c.002-.133.006-.265.007-.397l.003-.297.002-.362.001-.508c.001-.218.002-.435.001-.653-.001-.484-.004-.968-.011-1.453v-.01c-.006-.388-.013-.775-.023-1.163v-.008a117.81 117.81 0 0 0-.053-1.726l-.001-.031v-.014a35.7 35.7 0 0 0-.025-.566v-.005c-.006-.195-.016-.391-.025-.586-.01-.198-.019-.396-.03-.593l-.003-.071c-.002-.046-.006-.091-.01-.136l-.016-.316-.005-.095-.033-.542v-.001c-.022-.359-.046-.719-.071-1.078l-.01-.117c-.013-.186-.025-.371-.04-.556a86.263 86.263 0 0 0-.057-.73l-.002-.017c-.019-.244-.04-.488-.062-.73-.024-.282-.05-.564-.077-.846-.024-.259-.048-.518-.075-.776-.044-.443-.092-.886-.141-1.33l-.084-.737c-.03-.246-.059-.491-.09-.736-.025-.216-.054-.432-.081-.648a90.54 90.54 0 0 0-.134-1.015l-.075-.541c-.034-.246-.069-.49-.106-.734-.029-.208-.06-.415-.091-.621l-.017-.113-.114-.733-.118-.732c-.16-.975-.332-1.948-.514-2.92-.034-.181-.068-.363-.104-.545-.033-.175-.066-.35-.101-.525h-.001c0-.012-.004-.023-.006-.035l-.013-.065c-.071-.362-.144-.725-.218-1.087l-.119-.573a7.45 7.45 0 0 1-.042-.205 136.99 136.99 0 0 0-.54-2.431l-.058-.256a143.592 143.592 0 0 0-.669-2.734c-.036-.147-.075-.295-.112-.442l-.161-.613c-.041-.16-.084-.32-.127-.48-.052-.193-.105-.39-.159-.584a121.244 121.244 0 0 0-.635-2.252c-.059-.207-.12-.413-.181-.619a183.623 183.623 0 0 0-.723-2.362 140.442 140.442 0 0 0-2.73-7.822c-.031-.084-.065-.168-.097-.251a3.23 3.23 0 0 0-.048-.126c-.016-.044-.032-.087-.05-.13l-.091-.23a109.03 109.03 0 0 0-.287-.737l-.041-.105-.278-.695a138.34 138.34 0 0 0-1.075-2.602l-.21-.49a197.23 197.23 0 0 0-.592-1.356c-.228-.514-.458-1.027-.692-1.54l-.075-.162c-.087-.19-.176-.379-.262-.568a109.61 109.61 0 0 0-.979-2.066c-.256-.533-.518-1.066-.783-1.596l-.074-.15-.054-.109-.236-.467a141.393 141.393 0 0 0-1.114-2.157 145.698 145.698 0 0 0-1.815-3.333l-.215-.383a49.447 49.447 0 0 0-.318-.557 141.017 141.017 0 0 0-3.008-5.021c-.037-.062-.075-.121-.112-.181l-.313-.496-.34-.532a53.101 53.101 0 0 0-.411-.637l-.136-.21a160.308 160.308 0 0 0-1.343-2.02c-.111-.167-.224-.334-.337-.5-.33-.482-.662-.963-.997-1.442l-.306-.436a141.8 141.8 0 0 0-4.449-5.96l-.422-.533c-.346-.433-.693-.863-1.043-1.292-.16-.198-.322-.395-.483-.591l-.536-.645-.51-.607c-.129-.15-.256-.302-.386-.453-.26-.305-.521-.609-.783-.91-.134-.155-.267-.308-.401-.46l-.497-.566c-.365-.41-.729-.817-1.097-1.222-.179-.197-.357-.393-.538-.59l-.279-.302-.359-.388c-.33-.354-.661-.706-.993-1.055-16.103 1.68-30.447 8.118-44.032 16.05-14.936 8.719-28.955 19.239-43.384 27.217a135.3 135.3 0 0 1-9.386 4.752c-4.275 1.946-8.607 3.597-13.032 4.845-4.306 1.213-8.229 1.945-11.805 2.27-35.636 3.255-36.757-33.693-36.77-34.146-.116.49-.23.983-.345 1.476l-.342 1.49c-.225.998-.45 2-.674 3.007-.267 1.209-.537 2.426-.81 3.65a375.651 375.651 0 0 1-1.785 7.7c-.151.623-.307 1.247-.467 1.871l-.24.942a165.028 165.028 0 0 1-1.296 4.718 129.99 129.99 0 0 1-1.635 5.23l-.162.478c-.122.36-.247.722-.375 1.081-.097.276-.195.553-.296.829-.07.197-.143.394-.216.59a91.199 91.199 0 0 1-.947 2.479c-.1.253-.2.504-.303.758-1.708 4.211-3.752 8.433-6.268 12.636-.116.197-.235.39-.355.587a86.707 86.707 0 0 1-3.59 5.424c-.115.158-.228.317-.343.474-.23.318-.463.635-.7.95l-.358.473-.156.205-.157.205a91.097 91.097 0 0 1-2.323 2.897 79.9 79.9 0 0 0-3.022 3.844 75.604 75.604 0 0 0-1.977 2.821h-.001a70.074 70.074 0 0 0-2.02 3.215l-.036.061c-.096.162-.187.32-.28.479l-.249.435-.08.139-.165.296a33.099 33.099 0 0 0-.477.869l-.028.051c-.07.128-.137.255-.205.384l-.259.492-.192.376-.22.434-.167.336-.255.522-.205.431a98.47 98.47 0 0 0-.31.663l-.168.37a63.986 63.986 0 0 0-.813 1.887l-.034.08-.173.428c-.057.141-.115.286-.17.428l-.137.351-.03.076c-.054.141-.108.283-.16.426l-.16.428a62.628 62.628 0 0 0-.612 1.756l-.129.39-.12.38-.043.135-.23.746-.005.019-.084.281-.036.125-.052.183-.07.241c-.04.142-.08.283-.118.424-.029.102-.056.204-.082.304l-.032.121a26.492 26.492 0 0 0-.112.423c-.04.157-.082.314-.12.472a38.221 38.221 0 0 0-.193.795c-.04.166-.078.333-.117.499l-.04.182-.06.269c-.02.09-.04.178-.057.266l-.077.371c-.007.033-.015.066-.02.1l-.08.388-.028.143a3.376 3.376 0 0 1-.018.098l-.12.629c-.001.016-.005.034-.008.051l-.04.224-.026.146a5.846 5.846 0 0 0-.055.321l-.066.396-.034.21-.039.252-.01.075c-.01.054-.017.108-.026.16-.014.085-.025.172-.038.257l-.031.225-.029.191c-.01.079-.021.157-.03.236-.01.06-.017.121-.024.181-.019.13-.035.26-.051.388a.24.24 0 0 1-.004.027c-.014.109-.025.219-.04.328l-.026.228-.011.112-.03.278-.03.276a20.666 20.666 0 0 0-.046.473l-.014.147v.006l-.017.203a48.112 48.112 0 0 0-.068.844l-.007.095-.007.094a62.612 62.612 0 0 0-.043.655l-.01.158a9.082 9.082 0 0 0-.011.23l-.004.062-.017.348c-.016.355-.03.712-.04 1.069l-.007.245-.006.247c0 .036 0 .073-.002.11l-.006.472-.001.222.008.015z" fill="#E0E9FF"/>
        <path opacity=".52" d="M43.523 157.672v.061c-.002.259-.002.516 0 .773v.106a34.422 34.422 0 0 0 .005.494c.001.11.004.219.006.329v.004a54.756 54.756 0 0 0 .032 1.087l.016.391.017.376c.007.136.014.272.023.407l.023.39a54.83 54.83 0 0 0 .054.78c.016.219.034.436.052.656v.016l.03.337.004.037.03.312c.011.136.025.271.04.407l.016.167c.019.171.036.339.056.509l.002.03c.01.076.018.154.026.229l.046.383.047.381.058.444.044.319c.055.389.112.779.172 1.168.019.115.036.229.056.344l.061.376.036.219.005.025a77.49 77.49 0 0 0 .509 2.668c.014.061.025.125.04.186.021.105.045.21.068.316l.041.191.037.16.03.145.032.137a67.359 67.359 0 0 0 .545 2.24l.014.057c.015.052.029.107.043.161.044.171.09.343.136.513.051.192.105.384.157.575.04.147.081.293.124.439.05.172.097.343.147.512l.06.205.124.416a84.72 84.72 0 0 0 .858 2.681l.029.085c.019.056.036.11.056.165.02.063.042.125.064.188l.076.219a191.524 191.524 0 0 0 .22.625c.065.183.132.367.2.551.023.063.045.127.07.192l.13.355c.036.1.075.199.112.298.194.518.392 1.03.593 1.537.019.045.036.093.055.137l.023.056.004.01c.042.107.086.214.13.319.064.159.126.315.191.471l.16.388c.073.177.147.35.221.525.075.177.15.355.227.533.074.167.146.337.22.505.01.02.017.04.026.059l.052.118c.074.166.146.333.221.498a31.646 31.646 0 0 0 .322.711c.084.186.17.369.255.551.05.106.097.21.147.314a98.041 98.041 0 0 0 1.74 3.524l.191.364a67.314 67.314 0 0 0 .662 1.243c.11.201.217.401.326.598l.247.446a101.86 101.86 0 0 0 2.01 3.458l.012.017a106.725 106.725 0 0 0 3.56 5.493l.075.107a107.913 107.913 0 0 0 4.8 6.414l.176.217c.511.627.973 1.177 1.376 1.649.052.062.105.121.155.181a59.72 59.72 0 0 0 1.395 1.567l.225.24a111.28 111.28 0 0 0 5.474 5.073 118.225 118.225 0 0 0 9.897 7.707c.35.246.702.489 1.056.73l.347.237a126.246 126.246 0 0 0 6.45 4.102h.001a131.671 131.671 0 0 0 9.612 5.192 133.977 133.977 0 0 0 22.04 8.436c16.875 4.803 35.106 6.382 53.283 3.549 16.921-2.637 33.799-9.096 49.498-20.336a124.496 124.496 0 0 0 4.805-3.62 129.105 129.105 0 0 0 7.87-6.771 126.973 126.973 0 0 0 3.731-3.614 145.198 145.198 0 0 0 10.798-12.178 163.817 163.817 0 0 0 8.545-11.834l.19-.294.217-.332a114.819 114.819 0 0 0 2.572-4.175l.167-.285.376-.649.145-.253.314-.554.074-.131.148-.265a93.224 93.224 0 0 0 .913-1.67c.153-.284.305-.57.454-.854.006-.014.014-.026.02-.039.072-.137.144-.273.214-.411l.076-.149c.054-.1.105-.203.157-.303l.044-.084.355-.697.148-.295a100.065 100.065 0 0 0 .756-1.544c.315-.651.621-1.301.919-1.957a100.516 100.516 0 0 0 1.188-2.69l.007-.017c.13-.307.26-.614.385-.919.127-.308.254-.615.378-.922.125-.308.246-.615.367-.922.122-.308.241-.616.361-.925l.066-.174c.042-.11.085-.221.126-.333.052-.137.104-.273.154-.411.029-.075.059-.152.086-.23.027-.069.054-.139.077-.209l.182-.498.273-.758c.013-.038.024-.074.039-.113l.021-.058.036-.106.245-.702c.014-.04.029-.082.042-.124.054-.155.106-.31.159-.466.027-.078.054-.155.079-.233l.078-.234c.1-.302.2-.603.297-.906a112.514 112.514 0 0 0 .307-.963l.007-.021.081-.261c.065-.208.128-.416.191-.622a.233.233 0 0 1 .01-.032c.095-.31.186-.62.279-.93l.004-.011.034-.115a193.49 193.49 0 0 0 .496-1.749l.016-.061c.035-.123.069-.246.102-.37l.098-.37c.007-.024.015-.049.02-.072l.022-.083.122-.464c.034-.122.065-.245.095-.366l.03-.113.055-.212c.019-.071.035-.141.052-.213l.064-.249.061-.249a80.148 80.148 0 0 0 .422-1.764l.031-.131.021-.098.141-.627.015-.068.13-.592.002-.011.111-.514c.029-.139.058-.278.085-.417l.022-.102c.03-.145.061-.288.09-.433l.013-.069.121-.604.054-.276c.046-.237.092-.474.135-.713a16.863 16.863 0 0 0 .056-.297l.012-.068.081-.443c.021-.127.045-.254.067-.382l.064-.364.061-.364.01-.053.001-.01.01-.058.017-.102.037-.227.039-.24c.022-.125.042-.251.061-.379l.026-.157.066-.434.03-.194.043-.276.023-.162.074-.5.037-.255c.001-.012.002-.026.005-.039.002-.011.005-.025.006-.039l.04-.291.017-.124.004-.035.011-.084c.004-.027.009-.054.012-.082v-.004c.01-.066.018-.132.026-.197l.024-.186a6.76 6.76 0 0 0 .034-.254c.017-.121.033-.242.047-.365l.031-.248.018-.145.002-.019c.002-.031.007-.061.01-.093.009-.059.016-.119.023-.177l.011-.088.03-.266.021-.168c.009-.067.015-.135.024-.203l.077-.695.023-.222v-.005c.018-.159.035-.319.051-.479.004-.054.011-.109.016-.163l.015-.145.022-.215.001-.017.001-.02.009-.109c.017-.165.033-.332.048-.497l.009-.099c.01-.11.021-.22.029-.329l.02-.241c.012-.129.024-.258.034-.387.01-.096.017-.192.022-.286.02-.224.037-.448.054-.672l.069-.957.024-.39.035-.568.006-.11c.016-.296.033-.593.047-.889l.001-.042.009-.171a44.1 44.1 0 0 0 .033-.703c.002-.015.002-.03.002-.044l.006-.132.005-.133.024-.649.005-.159.015-.519.009-.281.007-.298.011-.495.005-.33v-.031l.001-.1.005-.259.001-.137.004-.296c.002-.12.003-.241.003-.363l.001-.509.001-.652a116.98 116.98 0 0 0-.012-1.452v-.011c-.006-.388-.013-.775-.023-1.164v-.006l-.016-.587c-.009-.38-.023-.76-.037-1.14l-.001-.03v-.015c-.006-.189-.016-.378-.024-.566v-.006c-.007-.194-.016-.39-.027-.585-.008-.199-.018-.396-.028-.594l-.005-.071a3.058 3.058 0 0 0-.009-.135c-.004-.106-.01-.212-.016-.317-.001-.031-.004-.062-.004-.094l-.034-.541v-.002c-.021-.36-.046-.719-.072-1.078l-.008-.117-.041-.557a69.17 69.17 0 0 0-2.306-2.244 63.405 63.405 0 0 0-6.214-5.098 58.822 58.822 0 0 0-3.294-2.197 56.082 56.082 0 0 0-6.692-3.54h-.001a54.544 54.544 0 0 0-7.293-2.633c-12.256-3.464-25.237-2.544-38.179.97a120.19 120.19 0 0 0-10.163 3.266c-4.494 1.659-8.96 3.576-13.362 5.676a192.175 192.175 0 0 0-3.414 1.67 231.577 231.577 0 0 0-11.648 6.275c-6.151 3.53-12.089 7.261-17.714 10.955-.523.343-1.044.685-1.56 1.027a783.988 783.988 0 0 0-12.174 8.252c-6.68 4.602-13.809 7.347-21.091 8.696-.423.077-.846.15-1.27.218-.299.051-.598.097-.898.141-5.305.782-10.675.853-15.997.39l-.011-.001a86.166 86.166 0 0 1-7.636-1.021 95.554 95.554 0 0 1-3.804-.759 111.458 111.458 0 0 1-11.517-3.217c-1.364-.459-2.71-.937-4.038-1.435a132.048 132.048 0 0 1-2.94-1.136c-10.707-4.283-20.009-9.537-26.555-13.659l-.167.336-.255.522-.205.43-.31.664-.169.37a67.532 67.532 0 0 0-.813 1.888l-.033.079c-.059.142-.117.287-.174.428l-.17.428c-.046.117-.09.234-.137.351-.008.025-.02.051-.029.076-.055.141-.108.284-.161.427l-.16.427a58.254 58.254 0 0 0-.74 2.147l-.121.38a196.92 196.92 0 0 0-.271.879l-.126.426-.053.183-.07.242-.119.424-.114.425-.111.422-.109.423-.104.423c-.02.078-.04.155-.057.233l-.045.188-.115.499c-.014.061-.026.121-.041.182-.012.055-.025.109-.035.163-.029.124-.055.249-.081.371-.027.123-.052.249-.078.372l-.02.099c-.042.21-.085.42-.125.628l-.12.629c-.001.016-.005.035-.008.051l-.04.224-.025.146c-.02.108-.037.213-.056.32l-.065.396-.035.21-.039.252-.01.075-.064.417-.031.224a33.696 33.696 0 0 0-.082.609c-.033.246-.063.494-.092.741l-.01.09-.047.414a61.03 61.03 0 0 0-.188 2.064l-.007.095-.021.317-.029.432-.021.389-.004.062c-.006.115-.01.233-.017.348a64.55 64.55 0 0 0-.044 1.225c-.006.271-.013.541-.016.813l-.004.327.023.013z" fill="#E0E9FF"/>
        <path d="M44.707 170.48a75.652 75.652 0 0 0 .283 1.416l.04.186.069.316.04.191.037.16.031.146.031.136a68.842 68.842 0 0 0 .53 2.177l.015.062.015.058.042.162.136.511c.051.193.105.385.158.576.04.148.08.293.124.44.048.171.096.342.146.511l.06.205.125.417a85.98 85.98 0 0 0 .857 2.681l.03.085c.018.056.035.109.055.164.02.064.042.125.064.188l.076.219c.012.038.026.075.04.111l.18.514c.066.183.132.368.2.551.023.064.045.127.07.191l.13.357.112.298c.194.517.392 1.03.593 1.536l.055.138.023.055a.054.054 0 0 0 .004.011c.042.107.086.213.13.318.064.158.126.315.192.471l.16.388c.072.177.146.35.22.526.076.177.15.354.227.531l.22.506c.01.02.017.04.026.06h.001c.017.039.034.077.05.117.075.167.147.333.222.498.067.152.135.302.203.45.02.046.04.092.061.136l.059.126a46.273 46.273 0 0 0 .401.865 98.153 98.153 0 0 0 1.74 3.523l.191.364a137.086 137.086 0 0 0 .662 1.243l.326.598c.082.15.165.298.248.446a101.86 101.86 0 0 0 2.01 3.458l.01.017c.543.894 1.08 1.754 1.615 2.579.077.121.155.24.232.359a108.249 108.249 0 0 0 1.789 2.662 107.323 107.323 0 0 0 4.8 6.415l.177.216c.51.627.972 1.178 1.375 1.65l.156.18a58.061 58.061 0 0 0 1.62 1.807 112.236 112.236 0 0 0 5.474 5.074c2.34 2.031 4.79 3.991 7.339 5.871a125.107 125.107 0 0 0 3.614 2.566l.346.236a123.784 123.784 0 0 0 5.1 3.286c.447.276.898.547 1.35.816h.001a131.326 131.326 0 0 0 9.612 5.192 133.922 133.922 0 0 0 22.04 8.436c16.875 4.803 35.106 6.382 53.283 3.549 16.921-2.636 33.799-9.096 49.498-20.336a122.51 122.51 0 0 0 4.805-3.621 128.297 128.297 0 0 0 7.87-6.77 134.766 134.766 0 0 0 3.731-3.615 145.145 145.145 0 0 0 10.798-12.176 163.936 163.936 0 0 0 8.735-12.128h.001l.217-.334c.179-.276.355-.553.532-.831.186-.292.37-.586.552-.88.166-.265.33-.532.492-.8.055-.088.108-.177.161-.264l.423-.702c.138-.232.276-.464.411-.696l.167-.286a68.612 68.612 0 0 0 .521-.903l.314-.553.074-.131.148-.264a97.203 97.203 0 0 0 .913-1.67c.153-.285.306-.571.454-.854.006-.014.014-.027.021-.04.071-.136.143-.273.213-.41l.076-.15c.054-.1.105-.202.157-.303l.044-.085c.119-.231.236-.464.355-.696l.149-.295c.121-.244.243-.488.363-.733.132-.27.263-.539.393-.811.314-.65.62-1.301.918-1.956.133-.291.265-.583.396-.875.136-.307.271-.61.404-.916.131-.3.26-.6.388-.9l.007-.017c.13-.306.26-.614.386-.92.126-.306.253-.614.377-.921.125-.307.246-.615.368-.923.121-.306.24-.615.36-.924.021-.058.045-.115.066-.174l.127-.333c.051-.137.103-.273.153-.41.03-.076.059-.152.087-.231.026-.069.053-.139.076-.209l.182-.497c.092-.252.182-.505.273-.759.013-.038.025-.073.04-.112.005-.019.013-.04.02-.059l.036-.106c.082-.233.165-.468.245-.702a31.965 31.965 0 0 0 .201-.59l.08-.233.077-.234a137.057 137.057 0 0 0 .306-.933c.101-.311.2-.623.298-.935l.007-.022c.028-.087.054-.175.081-.262a54.533 54.533 0 0 0 .201-.652c.095-.311.186-.621.279-.931l.004-.01.034-.116c.069-.239.139-.478.206-.718a8.05 8.05 0 0 0 .102-.357c.05-.176.1-.349.146-.525l.042-.148c.005-.021.012-.041.016-.062.035-.123.07-.246.102-.37l.098-.369c.007-.025.015-.049.02-.073.008-.027.016-.054.022-.082l.123-.465c.033-.122.064-.245.095-.366l.029-.112.055-.213c.019-.071.035-.141.052-.214.021-.082.044-.165.064-.247l.061-.25c.076-.303.15-.607.222-.911l.014-.056c.063-.266.126-.531.186-.797l.031-.131.021-.098.141-.627c.006-.022.01-.045.015-.068.045-.197.087-.394.13-.592l.002-.011.111-.513c.029-.139.058-.278.085-.417l.022-.103c.03-.144.061-.288.09-.433l.013-.069.121-.604.054-.276c.046-.237.092-.474.136-.712l.045-.239.011-.059.011-.067c.028-.15.055-.296.081-.445.021-.126.045-.254.067-.381.021-.12.044-.243.064-.365l.061-.363c.004-.018.006-.036.011-.053v-.009l.01-.059.017-.102c.013-.077.026-.151.037-.227.013-.079.027-.159.039-.239.022-.126.042-.252.062-.38l.025-.156.067-.435c.009-.066.019-.13.03-.193l.042-.277.024-.161.073-.5.037-.256c.001-.012.002-.025.005-.039.002-.012.005-.024.006-.038l.04-.292.017-.124.004-.034.011-.085c.004-.026.009-.054.012-.082v-.005c.01-.065.018-.13.027-.196l.023-.186a6.76 6.76 0 0 0 .034-.254c.017-.12.033-.241.047-.364l.031-.249.018-.145.002-.018c.002-.032.007-.062.011-.094l.023-.177c.003-.029.006-.059.011-.088l.029-.266.021-.168c.009-.067.016-.134.024-.202l.077-.695.023-.223v-.004c.018-.161.036-.32.051-.48.004-.054.011-.108.016-.162l.015-.146.022-.215.001-.017.001-.02.009-.108.048-.498.009-.099c.011-.11.021-.219.03-.329l.019-.24.036-.388c.008-.096.015-.192.02-.287.02-.223.037-.447.054-.671.025-.319.047-.639.069-.957l.024-.39.036-.568a3.87 3.87 0 0 1 .005-.11c.016-.296.033-.593.047-.889l.002-.041c.001-.057.005-.115.009-.171.011-.209.02-.421.029-.63a.6.6 0 0 1 .004-.074l.001-.044.006-.132.005-.133.024-.65.005-.158.015-.519.01-.281c-3.662.589-7.317 1.482-10.968 2.629a89.926 89.926 0 0 0-3.559 1.196c-18.283 6.554-36.483 19.146-54.8 31.981l-1.991 1.397a1863.7 1863.7 0 0 1-6.908 4.826 669.015 669.015 0 0 1-9.962 6.81 368.418 368.418 0 0 1-8.19 5.335 258.612 258.612 0 0 1-8.735 5.295c-.676.389-1.353.775-2.029 1.156-.179.099-.357.2-.535.3a182.358 182.358 0 0 1-6.053 3.237 139.991 139.991 0 0 1-9.601 4.461c-7.33 3.055-14.708 5.286-22.145 6.342-.688.098-1.376.186-2.065.265h-.001l-.14.015c-.706.077-1.413.145-2.12.199h-.007a64.352 64.352 0 0 1-7.425.165 58.831 58.831 0 0 1-2.006-.105 60.081 60.081 0 0 1-5.261-.587 157.43 157.43 0 0 1-5.806-1.017 146.234 146.234 0 0 1-6.199-1.348h-.001a136.625 136.625 0 0 1-6.675-1.78c-.202-.058-.403-.119-.605-.179a128.965 128.965 0 0 1-8.028-2.682l-.191-.072h-.001c-5.779-2.156-10.896-4.553-15.4-7.029a104.144 104.144 0 0 1-8.459-5.185l-.242-.166a93.629 93.629 0 0 1-6.468-4.85c-.177-.145-.351-.291-.523-.433a79.154 79.154 0 0 1-1.75-1.498l-.28-.247a77.578 77.578 0 0 1-4.895-4.725l-.025-.025a64.302 64.302 0 0 1-2.462-2.752c-1.909-2.264-2.785-3.655-2.785-3.655l.019.011z" fill="#9FBFF8"/>
        <path d="M120.388 14.38 60.572 152.83l1.044.487 59.816-138.45-1.044-.486zM158.803 117.21c-1.713 0-3.102-1.442-3.102-3.222s1.389-3.223 3.102-3.223v-2.501c-3.043 0-5.512 2.562-5.512 5.723s2.468 5.724 5.512 5.724v-2.502.001z" fill="#191919"/>
        <path d="M48.162 181.844v42.018c1.884 2.707 16.65 4.388 36.47 5.412 5.607.29 11.622.527 17.862.722 1.269 0 4.788.015 9.791.041h.002l11.377.058 1.852.01.662.005h.001l8.318.045 2.104.011c3.422.019 6.954.04 10.524.059l10.199.057 7.382.041c.832.004 1.66.01 2.482.015.578.001 1.154.005 1.729.01l8.322.043.663.004 1.847.01h.001c4.208.023 8.062.043 11.384.058h.001c5.843.031 10.039.048 11.6.048 2.49-.033 3.869-.056 3.869-.056h19.259a124.528 124.528 0 0 0 4.805-3.621 129.075 129.075 0 0 0 7.87-6.77 127.043 127.043 0 0 0 3.731-3.615 145.117 145.117 0 0 0 10.797-12.176 164.11 164.11 0 0 0 8.354-11.544l.192-.292.19-.292.218-.334a106.292 106.292 0 0 0 1.576-2.512c.055-.088.108-.176.161-.264l.422-.701c.139-.233.276-.464.412-.697l.167-.286c.126-.215.251-.432.376-.649l.145-.253.314-.553.074-.132.148-.265a96.426 96.426 0 0 0 .913-1.669c.153-.284.306-.571.453-.854.007-.015.016-.027.021-.04.071-.135.144-.273.214-.411l.076-.145c.054-.103.106-.205.157-.307l.044-.084c.119-.232.237-.464.354-.697.051-.098.1-.196.149-.294.122-.245.244-.489.365-.735l.391-.809c.315-.651.621-1.302.919-1.957.133-.291.265-.583.396-.874a202.73 202.73 0 0 0 .404-.919c.131-.299.26-.598.388-.899l.007-.017c.13-.306.26-.613.386-.919l.013-.03a83.638 83.638 0 0 0 .591-1.455c.048-.119.096-.24.141-.359.082-.204.162-.407.24-.611l.121-.313.066-.173c.042-.111.085-.222.126-.334.052-.137.104-.272.154-.41a7.81 7.81 0 0 0 .086-.23c.027-.069.054-.139.077-.209l.103-.278c.027-.073.055-.146.08-.22.092-.25.181-.504.272-.757l.04-.113.021-.059c.011-.036.025-.071.036-.105l.245-.703c.015-.04.028-.082.043-.124l.125-.366.033-.099.08-.232.053-.158a79.8 79.8 0 0 0 .322-.982l.009-.027.151-.465.148-.471.006-.02c.029-.087.054-.176.082-.262.064-.208.129-.415.191-.621.002-.011.006-.021.01-.032.095-.31.187-.62.279-.93l.004-.011c.011-.038.021-.077.035-.115l.104-.36c.023-.076.045-.154.066-.231l.066-.231c.089-.308.175-.618.26-.927l.016-.06c.035-.124.069-.246.101-.37l.12-.443c.006-.028.014-.053.021-.082l.122-.464a24.791 24.791 0 0 0 .125-.479l.054-.213c.041-.154.08-.307.117-.461l.062-.25c.075-.303.149-.607.221-.91l.014-.057c.063-.266.126-.531.186-.796l.03-.132.022-.098c.046-.209.095-.417.14-.626l.016-.068.13-.592.002-.011.11-.515c.03-.138.059-.277.087-.416l.021-.102.09-.433.013-.069c.042-.202.081-.403.12-.604l.055-.278c.046-.235.091-.472.136-.711l.045-.239.01-.059c.004-.022.01-.046.012-.067.029-.149.054-.296.081-.444.036-.198.071-.396.105-.595.011-.051.017-.1.026-.151.024-.132.045-.261.068-.395l.004-.021.001-.01.01-.058.017-.103a17.866 17.866 0 0 0 .075-.467c.022-.126.043-.25.062-.379l.026-.157.066-.434.03-.193c.015-.093.03-.183.042-.276l.025-.162a49.023 49.023 0 0 0 .115-.794l.006-.04.04-.29.016-.124.005-.036.024-.165v-.005c.009-.065.019-.131.026-.197l.025-.185c.011-.084.023-.168.033-.255.016-.121.033-.241.047-.364l.031-.249.018-.144c.002-.006.002-.012.003-.019a67.759 67.759 0 0 1 .043-.359 34.046 34.046 0 0 0 .074-.636c.027-.231.052-.463.077-.695.01-.075.016-.147.024-.222v-.005c.019-.161.035-.319.051-.48l.031-.307.021-.216.001-.016.012-.107c.016-.173.033-.345.046-.519l.01-.099c.011-.11.02-.22.029-.33l.021-.24c.01-.129.024-.258.034-.387.054-.64.101-1.277.143-1.916l.025-.389c.011-.191.025-.379.035-.569l.006-.109c.017-.296.033-.594.047-.89l.002-.042.009-.171.029-.629.004-.074.001-.044.005-.131a5.87 5.87 0 0 0 .005-.135c.011-.216.017-.431.025-.648l.005-.158.016-.519.008-.281.007-.298.01-.496.007-.33v-.03l.001-.1.005-.259.001-.137c0-.1.001-.198.003-.296l.002-.363.001-.509c.001-.218.002-.434.001-.653-.001-.484-.004-.967-.01-1.452v-.01a225.96 225.96 0 0 0-.024-1.164v-.007l-.016-.586c-.01-.38-.023-.76-.037-1.14l-.001-.031v-.015a54.697 54.697 0 0 0-.024-.566v-.005c-.007-.195-.017-.39-.026-.586a58.834 58.834 0 0 0-.034-.664l-.006-.137-.019-.314-.005-.095-.033-.54v-.002a127.17 127.17 0 0 0-.081-1.195c-.013-.187-.025-.371-.041-.557l-.056-.73c0-.005 0-.01-.002-.017a86.15 86.15 0 0 0-.139-1.576c-.024-.258-.048-.517-.075-.776-.044-.443-.092-.886-.141-1.33-.027-.245-.056-.49-.085-.737-.029-.245-.057-.491-.088-.735-.026-.217-.055-.433-.082-.648-.038-.297-.077-.595-.117-.892-.007-.042-.011-.081-.017-.123l-.075-.542c-.034-.245-.069-.49-.105-.734l-.091-.62h-.001l-.017-.113-.114-.732c-.039-.245-.077-.489-.118-.732-.159-.977-.332-1.95-.514-2.921-.034-.182-.068-.364-.104-.546l-.101-.525a2.285 2.285 0 0 1-.006-.034l-.015-.066c-.07-.361-.143-.724-.216-1.086l-.12-.574a7.45 7.45 0 0 1-.042-.205l-.113-.526a171.008 171.008 0 0 0-.426-1.904l-.06-.256a130.862 130.862 0 0 0-.667-2.735c-.036-.146-.076-.294-.113-.441a90.8 90.8 0 0 0-.161-.614c-.041-.16-.084-.319-.127-.48a73.127 73.127 0 0 0-.159-.583 121.552 121.552 0 0 0-.635-2.253c-.059-.206-.12-.412-.181-.618a149.83 149.83 0 0 0-.892-2.892 137.625 137.625 0 0 0-1.908-5.55c-.215-.583-.431-1.163-.653-1.742l-.097-.252a3.166 3.166 0 0 0-.048-.126c-.017-.043-.032-.087-.05-.13l-.09-.23-.091-.233-.197-.504-.041-.104-.278-.695c-.085-.215-.174-.431-.261-.647a138.935 138.935 0 0 0-1.311-3.105l-.305-.697c-.228-.514-.458-1.027-.692-1.539l-.075-.162-.262-.569a98.1 98.1 0 0 0-.693-1.47l-.286-.596a118.108 118.108 0 0 0-.857-1.745l-.055-.11c-.076-.155-.156-.31-.235-.466l-.39-.765c-.116-.228-.234-.454-.352-.681-.124-.238-.247-.475-.372-.712a145.37 145.37 0 0 0-1.8-3.305c-20.29 9.563-41.329 21.263-58.577 30.733-10.101 5.546-18.904 10.328-25.495 13.466-2.989 1.423-16.603 4.809-16.603 4.809s-.041.066-.125.192c-.339.506-1.365 1.956-3.094 3.746a35.339 35.339 0 0 1-2.038 1.945c-3.288 2.893-8.139 6.067-14.608 7.533-.511.115-1.906.463-3.952.983h-.001c-13.188 3.353-53.365 13.844-57.35 15.284-1.3.469-2.637 1.146-3.991 1.992-.392.244-.786.502-1.18.774a39.977 39.977 0 0 0-2.54 1.915l-.003.004a57.794 57.794 0 0 0-4.323 3.932s0 .002-.002.002v.001a78.274 78.274 0 0 0-1.754 1.815h-.001c-.412.439-.819.884-1.225 1.337l-.068.075-.386.433c-1.68 1.9-3.308 3.894-4.845 5.905-.045.059-.09.116-.133.174-3.673 4.82-6.827 9.718-8.956 13.586l-.001.002s-.002.005-.004.006l-.014.026-.036.063a62.199 62.199 0 0 0-1.02 1.94c-1.112 2.217-1.763 3.921-1.813 4.821a2.058 2.058 0 0 0-.004.111l.002.001z" fill="#3369FA"/>
        <path d="M48.162 181.843v42.018c1.884 2.707 16.65 4.387 36.47 5.412 5.607.29 11.622.528 17.862.722l-.001-.358c0-3.571.202-7.671.373-11.157.028-.563.055-1.112.079-1.639l.012-.244a12.1 12.1 0 0 0 .012-.272c.016-.38.034-.748.048-1.102.024-.521.041-1.01.055-1.462l.011-.403c.005-.196.009-.383.011-.563v-.174c.002-.029.002-.058.002-.085v-.249c0-.203.001-.405.004-.607v-.011c.002-.17.005-.338.009-.506.004-.174.007-.347.013-.522.006-.245.016-.49.028-.733l.016-.341c.005-.114.011-.227.018-.34.01-.199.024-.398.038-.598l.02-.276c.014-.188.028-.374.044-.56.009-.104.017-.206.027-.308a19.309 19.309 0 0 1 .077-.788l.029-.251.023-.213c.008-.071.016-.142.026-.212l.025-.212.006-.05.018-.148c.004-.036.007-.071.014-.105l.023-.176.032-.234c.001-.015.004-.029.006-.043.009-.073.019-.146.03-.218.021-.167.046-.334.073-.501.024-.161.05-.321.075-.482l.022-.135c.011-.077.025-.154.039-.229.018-.113.036-.223.056-.335l.04-.232a27.399 27.399 0 0 1 .496-2.43c.024-.104.047-.205.072-.307.031-.137.064-.273.098-.41l.035-.145.079-.316c.009-.046.021-.094.035-.14.033-.132.066-.264.103-.394l.062-.237.051-.183.054-.2c.019-.068.036-.134.057-.201l.056-.2c.02-.067.04-.134.057-.2.02-.066.039-.134.06-.199.047-.164.095-.328.148-.493a53.15 53.15 0 0 1 .426-1.323l.079-.234.071-.207c.058-.167.115-.332.174-.497a43.003 43.003 0 0 1 .236-.646l.117-.314.171-.444c.101-.258.202-.515.307-.772.146-.36.297-.717.453-1.072.082-.192.166-.38.251-.569.049-.109.097-.218.148-.325.072-.159.146-.317.222-.477.087-.186.179-.371.268-.556.106-.219.211-.436.32-.652.148-.294.299-.589.452-.881.072-.139.146-.276.22-.415l.225-.41a43.111 43.111 0 0 1 1.093-1.886c.023-.043.049-.083.075-.125a21.327 21.327 0 0 1 .302-.488c.207-.332.417-.66.632-.984l.076-.116.205-.302c.102-.153.205-.304.308-.454l.135-.196c.139-.202.281-.403.426-.602.081-.114.162-.227.245-.339.028-.041.055-.079.085-.119l.278-.374c.103-.137.206-.275.31-.41l.316-.407a.21.21 0 0 1 .033-.042c.03-.039.06-.08.094-.119a.179.179 0 0 1 .033-.042l.195-.246c.16-.201.322-.402.487-.6l.287-.347.319-.376c.125-.145.249-.29.375-.433l.131-.15.122-.136c.061-.071.125-.141.189-.211l.001-.002.004-.005.014-.016c.109-.12.217-.241.328-.361l.242-.259a23.78 23.78 0 0 1 .398-.423c.095-.099.19-.2.286-.298a70.016 70.016 0 0 1 .604-.613l.194-.192.409-.4.244-.233c.126-.121.254-.24.381-.359l.292-.27c.196-.181.393-.36.593-.536a31.313 31.313 0 0 1 .639-.557c.045-.041.091-.079.137-.118.056-.049.111-.097.169-.143.132-.114.264-.225.397-.333a46.528 46.528 0 0 1 1.608-1.272c.121-.093.244-.184.366-.275.123-.092.246-.183.37-.272.122-.091.246-.18.371-.268.124-.09.249-.178.373-.265.109-.078.218-.152.327-.227.076-.054.152-.106.229-.158.085-.06.17-.116.256-.173.189-.129.38-.254.571-.378a48.185 48.185 0 0 1 1.136-.718c.107-.064.214-.131.321-.196.199-.119.398-.239.6-.356l.006-.005c.031-.015.06-.033.09-.051l.075-.044a3.378 3.378 0 0 1 .253-.142 43.508 43.508 0 0 1 1.388-.761 30.975 30.975 0 0 1 1.001-.512l.289-.144.234-.113c.026-.016.055-.028.082-.041.08-.04.161-.077.242-.116.03-.015.062-.03.092-.042l.086-.041c.08-.039.159-.075.239-.112l.091-.041c.082-.04.166-.077.251-.114l.109-.05c.049-.023.097-.045.146-.065l.106-.046.17-.077.174-.074c.21-.092.42-.182.631-.268.121-.051.242-.099.362-.149l.187-.077a16.325 16.325 0 0 1 .365-.145c.105-.041.209-.082.313-.121.099-.039.2-.078.301-.114l.129-.048c.185-.071.37-.137.557-.203.009-.005.016-.006.024-.009a37.48 37.48 0 0 1 1.119-.384c.065-.022.13-.044.196-.064.14-.047.281-.09.421-.135.157-.048.313-.098.471-.144.151-.048.301-.093.453-.137.157-.046.312-.092.47-.135.159-.045.319-.088.478-.13.059-.016.117-.033.176-.048l.004-.001c.525-.14 1.054-.271 1.586-.391.083-.021.167-.039.25-.057.009-.002.017-.005.027-.006l.35-.077.168-.036.367-.076c.22-.045.442-.088.665-.129.178-.035.355-.066.535-.098.088-.015.175-.031.264-.045.012-.002.023-.006.035-.007.144-.025.285-.047.43-.071l.065-.01.492-.076.016-.001a39.15 39.15 0 0 1 1.734-.221c.031-.004.062-.006.094-.009.024-.005.045-.007.069-.01.051-.004.102-.011.152-.015l.219-.022.124-.012c.015-.001.03-.004.045-.004l.082-.008c.217-.021.435-.04.652-.056.164-.012.329-.026.493-.037.07-.004.137-.009.206-.012.026-.002.051-.005.078-.005.143-.01.285-.017.43-.025a23.986 23.986 0 0 1 .637-.03h.022c.153-.007.309-.011.465-.016l.215-.006c.141-.004.283-.006.426-.009h.043l.181-.003c.184-.002.369-.004.554-.004h.001c.19 0 .378.001.568.006.052-.002.106 0 .159.002l.378.006a37.364 37.364 0 0 1 .935.035s0-.002.001 0a1.842 1.842 0 0 1 .116.004c.123.005.246.012.367.019l.522.033c.151.01.301.021.453.034.099.006.199.016.298.023l.057.005a15.46 15.46 0 0 1 .398.038c.081.006.161.015.243.023h.009a.445.445 0 0 1 .036.005l.024.002c.136.012.274.027.41.043l.055.005c.164.02.326.037.489.059a18.678 18.678 0 0 1 .674.089 16.16 16.16 0 0 1 .495.072l.058.006c.084.012.166.026.25.04a.232.232 0 0 1 .038.007c.157.021.316.05.472.076h.001c.184.03.366.063.55.096.327.058.652.121.977.188a35.557 35.557 0 0 1 1.605.357c.162.037.325.078.487.119.02.004.039.01.059.015l.104.026c.156.039.309.08.463.121l.059.016c.141.036.281.076.423.115l.283.08c.367.103.734.213 1.099.326l.462.146.073.024c.023.006.045.015.066.021.111.036.222.072.331.11.022.007.045.014.066.023a25.66 25.66 0 0 1 .769.263c.165.058.327.116.49.176.15.054.297.11.447.167.12.043.242.09.36.137.162.061.325.125.486.19l.049.019a21.028 21.028 0 0 1 .393.16c.035.012.069.027.105.042.1.041.197.08.295.124.007.001.015.005.02.007l.16.068c.341.144.681.292 1.019.446l.267.12a61.595 61.595 0 0 1 1.001.473c.485.234.968.479 1.445.73l.323.17c.151.08.305.163.457.246l.075.041c.157.087.314.173.47.262.181.102.361.203.541.308.335.192.667.39.998.593a40.181 40.181 0 0 1 1.465.926 50.566 50.566 0 0 1 1.402.95l.025.017c.084.057.166.117.249.176.106.074.21.15.315.227.085.061.166.119.251.182a52.438 52.438 0 0 1 2.844 2.227l.111.093.068.057c.09.076.179.151.268.229.332.285.661.573.987.866.077.071.157.14.233.209a60.403 60.403 0 0 1 1.249 1.173c.039.035.075.071.112.107.11.108.219.214.329.324h.001c.123.122.247.246.371.372l.108.108c.039.038.077.078.117.119.066.068.134.136.201.207l.086.09c.05.051.099.1.147.152.046.046.09.094.136.142.059.061.116.123.175.186l.09.094a55.519 55.519 0 0 1 1.577 1.754c.099.114.197.23.296.346l.18.213c.128.152.256.307.384.462l.265.326.147.183a43.296 43.296 0 0 1 .712.908l.04.053c.034.042.068.087.1.13.06.077.118.155.177.233l.174.233c.094.124.185.25.276.375l.156.213c.071.098.143.196.213.296l.002.003.21.293.101.145c.147.21.293.422.437.634l.06.087c.027.04.055.082.081.124.065.094.127.187.19.281.046.071.094.14.139.21.07.104.141.212.209.319.014.019.026.04.039.059a60.356 60.356 0 0 1 .638 1.012 49.61 49.61 0 0 1 .984 1.66 44.19 44.19 0 0 1 .606 1.095c.1.184.197.368.295.552.1.188.196.377.292.566l.228.453c.033.066.064.132.098.198a11.313 11.313 0 0 1 .18.371l.074.15.048.099c.161.338.321.681.474 1.022.089.193.176.386.26.582.021.043.04.09.06.134.065.15.131.301.194.452.084.196.165.391.245.588.082.197.161.395.239.592.077.19.151.383.225.574.082.217.164.432.244.651.071.188.139.378.206.567.048.133.094.265.139.396.016.05.034.098.049.147l.021.06c.011.028.02.057.03.085l.001.006c.06.171.116.344.172.516a18.369 18.369 0 0 1 .19.588c.001.007.004.014.006.02l.019.058.011.035c.054.169.104.338.155.506.045.151.09.298.132.448l.052.18v.002l.053.183c.04.144.081.287.119.433.011.032.02.066.029.099.036.129.071.259.104.389.012.043.025.087.034.131.008.02.012.041.017.062.047.175.092.353.136.531l.134.549.024.104c.01.041.018.08.029.121l.001.001c.039.168.076.337.114.505a43.914 43.914 0 0 1 .26 1.237c.006.035.014.068.019.103.03.145.057.292.085.436a29.926 29.926 0 0 1 .133.754c.034.188.065.375.094.565l.011.073.023.145a48.428 48.428 0 0 1 .16 1.115c.004.023.005.043.008.064a35.15 35.15 0 0 1 .146 1.246c.024.21.045.421.064.631l.007.088c.019.191.034.385.049.578.018.217.034.432.046.65a19.474 19.474 0 0 1 .03.49c.002.047.005.093.006.141l.002.052c.005.047.006.091.008.137.009.18.018.36.025.542l.017.54.001.058.002.068.001.126a37.748 37.748 0 0 1 .014 1.12l-.001 1.779-.001.39c-.002.697-.005 1.479-.011 2.329l-.001.111v.08l-.001.269-.001.144v.129l-.002.379-.004.454-.009.87-.006.55-.006.562-.015 1.15v.005c-.001.131-.002.262-.005.394l-.007.415-.011.76-.007.384-.006.395-.008.354c-.001.103-.002.205-.005.308l-.005.334c-.005.186-.009.372-.012.56a129.52 129.52 0 0 0-.023.982l-.014.518a325.15 325.15 0 0 1-.046 1.702l-.002.09c2.491-.033 3.87-.056 3.87-.056h19.258a123.51 123.51 0 0 0 4.805-3.621 128.97 128.97 0 0 0 7.87-6.77 133.89 133.89 0 0 0 3.732-3.616 144.801 144.801 0 0 0 10.797-12.176 163.832 163.832 0 0 0 8.354-11.542l.192-.293c.065-.098.127-.196.19-.293a12.563 12.563 0 0 0 1.955-3.109 100.312 100.312 0 0 0 .833-1.398l.167-.285c.127-.216.252-.432.377-.65.048-.084.097-.168.144-.253l.315-.554.074-.13c.049-.088.1-.177.147-.265a100.753 100.753 0 0 0 .914-1.67c.152-.285.305-.57.453-.854.007-.014.015-.026.021-.04.071-.136.143-.273.213-.41l.077-.147.157-.306c.015-.026.029-.057.044-.084l.354-.696.149-.295a100.065 100.065 0 0 0 .757-1.544c.314-.651.619-1.302.917-1.957.134-.29.266-.582.396-.875a81.278 81.278 0 0 0 .799-1.833c.13-.307.26-.614.386-.92a72.736 72.736 0 0 0 .604-1.484c.05-.12.096-.24.142-.36l.241-.61.119-.313.067-.174.126-.333.154-.411c.03-.075.058-.152.086-.23.026-.069.054-.139.077-.209.036-.092.07-.186.104-.278l.079-.219c.092-.251.182-.505.272-.758.014-.038.025-.074.041-.113a.566.566 0 0 1 .02-.058c.011-.037.024-.071.036-.106a195.177 195.177 0 0 0 .287-.826l.126-.366c.011-.033.021-.067.033-.099l.079-.234.054-.157.024-.075c.1-.303.2-.605.298-.907l.009-.028.15-.464.149-.47.007-.022c.028-.087.053-.175.08-.261a137.257 137.257 0 0 0 .201-.653c.095-.31.187-.621.28-.931l.004-.01a68.252 68.252 0 0 0 .138-.474c.024-.077.045-.154.067-.233l.065-.229c.09-.309.176-.619.261-.927l.015-.061a49.648 49.648 0 0 0 .364-1.359c.034-.122.065-.244.096-.366l.03-.113.055-.213c.04-.154.078-.307.115-.461l.062-.25a134.156 134.156 0 0 0 .453-1.894l.02-.098.141-.627.016-.068.13-.592.002-.011.11-.514c.029-.139.059-.278.086-.417l.021-.102c.03-.145.061-.288.09-.433l.014-.07.12-.603.055-.277c.045-.236.092-.474.135-.712l.045-.239.011-.059.012-.067c.028-.148.055-.296.08-.444.037-.197.073-.396.107-.595.009-.05.016-.101.024-.151a27.072 27.072 0 0 0 .073-.417l.001-.009.01-.059.016-.102c.014-.076.026-.151.037-.227l.04-.239c.021-.126.042-.252.06-.379a18.335 18.335 0 0 0 .092-.591 25.022 25.022 0 0 0 .073-.469c.009-.054.016-.109.024-.163.039-.252.075-.504.11-.756l.006-.037c.002-.013.005-.026.006-.04l.039-.291c.006-.042.011-.084.018-.124 0-.011.003-.024.004-.035l.023-.167v-.003l.027-.197.024-.186c.012-.084.024-.168.033-.254.017-.121.034-.242.047-.364.011-.083.022-.166.031-.25l.019-.143.002-.02c.012-.09.024-.182.033-.271l.011-.088c.019-.144.035-.29.051-.434.009-.067.015-.134.023-.201l.078-.696.022-.222v-.005c.019-.16.036-.32.052-.48l.031-.308c.006-.072.014-.144.022-.214l.001-.017.01-.107c.016-.172.033-.345.046-.52l.011-.099.029-.328.02-.24c.011-.131.024-.259.034-.389.055-.638.102-1.276.144-1.915.009-.129.016-.259.024-.389a36.936 36.936 0 0 0 .041-.678c.017-.296.033-.593.047-.889l.002-.042.009-.171a44.24 44.24 0 0 0 .033-.704l.001-.043.006-.133.005-.133c.01-.217.017-.432.024-.649l.005-.158c.007-.174.011-.347.016-.519l.009-.281.006-.298.012-.496.005-.329v-.03l.001-.1.005-.261.001-.137.004-.296.002-.362.001-.51.001-.651c-.001-.484-.004-.968-.011-1.453v-.01a90.385 90.385 0 0 0-.024-1.164v-.007l-.015-.586c-.009-.38-.024-.76-.037-1.14l-.001-.031v-.014l-.024-.566v-.006c-.007-.194-.017-.39-.027-.585a57.415 57.415 0 0 0-.033-.664l-.007-.137c-.006-.105-.01-.21-.019-.315l-.005-.094c-.01-.181-.02-.361-.033-.542v-.002a78.874 78.874 0 0 0-.071-1.077l-.008-.117c-.015-.186-.027-.371-.041-.556l-.057-.73-.002-.017c-.02-.244-.04-.488-.062-.73-.024-.282-.051-.564-.076-.847l-.076-.776c-.045-.442-.091-.885-.142-1.329-.026-.245-.056-.491-.083-.737l-.089-.736-.083-.649a135.454 135.454 0 0 0-.314-2.29c-.029-.206-.061-.414-.091-.62h-.001l-.016-.113-.115-.733-.116-.732c-.161-.976-.332-1.949-.515-2.92l-.105-.545-.1-.525-.007-.035a148.76 148.76 0 0 0-.23-1.152l-.121-.573-.042-.205-.112-.526a114.365 114.365 0 0 0-.426-1.906l-.06-.255a143.86 143.86 0 0 0-.668-2.734c-.036-.147-.075-.295-.112-.442l-.161-.613-.127-.48c-.052-.194-.105-.39-.16-.584-.041-.162-.087-.324-.133-.487-.162-.59-.33-1.178-.501-1.766l-.18-.618c-.145-.48-.29-.962-.438-1.441a97.959 97.959 0 0 0-.286-.921l-.169-.53a137.696 137.696 0 0 0-2.658-7.544c-.016-.041-.031-.084-.049-.126a2.825 2.825 0 0 0-.048-.13l-.091-.23-.092-.233c-.065-.167-.13-.336-.197-.503-.013-.035-.025-.07-.041-.105l-.277-.695-.261-.647c-.267-.654-.538-1.306-.815-1.956-.069-.163-.14-.326-.21-.488l-.286-.661-.306-.697a131.729 131.729 0 0 0-.767-1.7c-.085-.191-.175-.38-.262-.57a109.032 109.032 0 0 0-.978-2.066c-.257-.532-.519-1.065-.783-1.595l-.074-.15-.055-.109c-.077-.156-.156-.311-.235-.467l-.39-.765-.352-.68c-.124-.24-.248-.475-.372-.713a145.706 145.706 0 0 0-1.551-2.86c-.081-.15-.165-.297-.248-.445-20.29 9.564-41.331 21.264-58.579 30.733-10.101 5.547-18.904 10.327-25.494 13.466-2.989 1.422-16.602 4.809-16.602 4.809s-.042.067-.127.193c-.337.505-1.364 1.956-3.093 3.745a34.67 34.67 0 0 1-2.038 1.945c-3.289 2.893-8.139 6.067-14.607 7.534-.513.115-1.908.463-3.953.982h-.001c-13.189 3.353-53.365 13.843-57.35 15.285-1.3.469-2.637 1.145-3.991 1.99-.392.244-.787.503-1.18.775h-.001a39.63 39.63 0 0 0-2.539 1.915l-.004.004a57.815 57.815 0 0 0-4.322 3.932l-.002.001-.001.001a80.174 80.174 0 0 0-1.754 1.816c-.412.439-.819.884-1.225 1.336l-.068.077-.386.432a107.333 107.333 0 0 0-4.979 6.079c-3.672 4.821-6.826 9.719-8.956 13.587v.002l-.004.004c-.004.01-.01.018-.014.027l-.036.064c-.373.681-.714 1.33-1.02 1.94-1.113 2.215-1.763 3.919-1.814 4.82-.002.037-.004.073-.004.11l-.008.008z" fill="#BFD2E1"/>
        <path d="M48.162 181.843v42.018c1.884 2.707 16.65 4.387 36.47 5.412 5.607.29 11.622.528 17.862.722l-.001-.358c0-3.571.202-7.671.373-11.157.028-.563.055-1.112.079-1.639l.012-.244a12.1 12.1 0 0 0 .012-.272c.016-.38.034-.748.048-1.102.024-.521.041-1.01.055-1.462l.011-.403c.005-.196.009-.383.011-.563v-.174c.002-.029.002-.058.002-.085v-.249c0-.203.001-.405.004-.607v-.011c.002-.17.005-.338.009-.506.004-.174.007-.347.013-.522.006-.245.016-.49.028-.733l.016-.341c.005-.114.011-.227.018-.34.01-.199.024-.398.038-.598l.02-.276c.014-.188.028-.374.044-.56.009-.104.017-.206.027-.308a19.309 19.309 0 0 1 .077-.788l.029-.251.023-.213c.008-.071.016-.142.026-.212l.025-.212.006-.05.018-.148c.004-.036.007-.071.014-.105l.023-.176.032-.234c.001-.015.004-.029.006-.043.009-.073.019-.146.03-.218.021-.167.046-.334.073-.501.024-.161.05-.321.075-.482l.022-.135c.011-.077.025-.154.039-.229.018-.113.036-.223.056-.335l.04-.232a27.399 27.399 0 0 1 .496-2.43c.024-.104.047-.205.072-.307.031-.137.064-.273.098-.41l.035-.145.079-.316c.009-.046.021-.094.035-.14.033-.132.066-.264.103-.394l.062-.237.051-.183.054-.2c.019-.068.036-.134.057-.201l.056-.2c.02-.067.04-.134.057-.2.02-.066.039-.134.06-.199.047-.164.095-.328.148-.493a53.15 53.15 0 0 1 .426-1.323l.079-.234.071-.207c.058-.167.115-.332.174-.497a43.003 43.003 0 0 1 .236-.646l.117-.314.171-.444c.101-.258.202-.515.307-.772.146-.36.297-.717.453-1.072.082-.192.166-.38.251-.569.049-.109.097-.218.148-.325.072-.159.146-.317.222-.477.087-.186.179-.371.268-.556.106-.219.211-.436.32-.652.148-.294.299-.589.452-.881.072-.139.146-.276.22-.415l.225-.41a43.111 43.111 0 0 1 1.093-1.886c.023-.043.049-.083.075-.125a21.327 21.327 0 0 1 .302-.488c.207-.332.417-.66.632-.984l.076-.116.205-.302c.102-.153.205-.304.308-.454l.135-.196c.139-.202.281-.403.426-.602.081-.114.162-.227.245-.339.028-.041.055-.079.085-.119l.278-.374c.103-.137.206-.275.31-.41l.316-.407a.21.21 0 0 1 .033-.042c.03-.039.06-.08.094-.119a.179.179 0 0 1 .033-.042l.195-.246c.16-.201.322-.402.487-.6l.287-.347.319-.376c.125-.145.249-.29.375-.433l.131-.15.122-.136c.061-.071.125-.141.189-.211l.001-.002.004-.005.014-.016c.109-.12.217-.241.328-.361l.242-.259a23.78 23.78 0 0 1 .398-.423c.095-.099.19-.2.286-.298a70.016 70.016 0 0 1 .604-.613l.194-.192.409-.4.244-.233c.126-.121.254-.24.381-.359l.292-.27c.196-.181.393-.36.593-.536a31.313 31.313 0 0 1 .639-.557c.045-.041.091-.079.137-.118.056-.049.111-.097.169-.143.132-.114.264-.225.397-.333a46.528 46.528 0 0 1 1.608-1.272c.121-.093.244-.184.366-.275.123-.092.246-.183.37-.272.122-.091.246-.18.371-.268.124-.09.249-.178.373-.265.109-.078.218-.152.327-.227.076-.054.152-.106.229-.158.085-.06.17-.116.256-.173.189-.129.38-.254.571-.378a48.185 48.185 0 0 1 1.136-.718c.107-.064.214-.131.321-.196.199-.119.398-.239.6-.356l.006-.005c.031-.015.06-.033.09-.051l.075-.044a3.378 3.378 0 0 1 .253-.142 43.508 43.508 0 0 1 1.388-.761 30.975 30.975 0 0 1 1.001-.512l.289-.144.234-.113c.026-.016.055-.028.082-.041.08-.04.161-.077.242-.116.03-.015.062-.03.092-.042l.086-.041c.08-.039.159-.075.239-.112l.091-.041c.082-.04.166-.077.251-.114l.109-.05c.049-.023.097-.045.146-.065l.106-.046.17-.077.174-.074c.21-.092.42-.182.631-.268.121-.051.242-.099.362-.149l.187-.077a16.325 16.325 0 0 1 .365-.145c.105-.041.209-.082.313-.121.099-.039.2-.078.301-.114l.129-.048c.185-.071.37-.137.557-.203.009-.005.016-.006.024-.009a37.48 37.48 0 0 1 1.119-.384c.065-.022.13-.044.196-.064.14-.047.281-.09.421-.135.157-.048.313-.098.471-.144.151-.048.301-.093.453-.137.157-.046.312-.092.47-.135.159-.045.319-.088.478-.13.059-.016.117-.033.176-.048l.004-.001c.525-.14 1.054-.271 1.586-.391.083-.021.167-.039.25-.057.009-.002.017-.005.027-.006l.35-.077.168-.036.367-.076c.22-.045.442-.088.665-.129.178-.035.355-.066.535-.098.088-.015.175-.031.264-.045.012-.002.023-.006.035-.007.144-.025.285-.047.43-.071l.065-.01.492-.076.016-.001a39.15 39.15 0 0 1 1.734-.221c.031-.004.062-.006.094-.009.024-.005.045-.007.069-.01.051-.004.102-.011.152-.015l.219-.022.124-.012c.015-.001.03-.004.045-.004l.082-.008c.217-.021.435-.04.652-.056.164-.012.329-.026.493-.037.07-.004.137-.009.206-.012.026-.002.051-.005.078-.005.143-.01.285-.017.43-.025a23.986 23.986 0 0 1 .637-.03h.022c.153-.007.309-.011.465-.016l.215-.006c.141-.004.283-.006.426-.009h.043l.181-.003c.184-.002.369-.004.554-.004h.001c.19 0 .378.001.568.006.052-.002.106 0 .159.002l.378.006a37.364 37.364 0 0 1 .935.035s0-.002.001 0a1.842 1.842 0 0 1 .116.004c.123.005.246.012.367.019l.522.033c.151.01.301.021.453.034.099.006.199.016.298.023l.057.005a15.46 15.46 0 0 1 .398.038c.081.006.161.015.243.023h.009a.445.445 0 0 1 .036.005l.024.002c.136.012.274.027.41.043l.055.005c.164.02.326.037.489.059a18.678 18.678 0 0 1 .674.089 16.16 16.16 0 0 1 .495.072l.058.006c.084.012.166.026.25.04a.232.232 0 0 1 .038.007c.157.021.316.05.472.076h.001c.184.03.366.063.55.096.327.058.652.121.977.188a35.557 35.557 0 0 1 1.605.357c.162.037.325.078.487.119.02.004.039.01.059.015l.104.026c.156.039.309.08.463.121l.059.016c.141.036.281.076.423.115l.283.08c.367.103.734.213 1.099.326l.462.146.073.024c.023.006.045.015.066.021.111.036.222.072.331.11.022.007.045.014.066.023a25.66 25.66 0 0 1 .769.263c.165.058.327.116.49.176.15.054.297.11.447.167.12.043.242.09.36.137.162.061.325.125.486.19l.049.019a21.028 21.028 0 0 1 .393.16c.035.012.069.027.105.042.1.041.197.08.295.124.007.001.015.005.02.007l.16.068c.341.144.681.292 1.019.446l.267.12a61.595 61.595 0 0 1 1.001.473c.485.234.968.479 1.445.73l.323.17c.151.08.305.163.457.246l.075.041c.157.087.314.173.47.262.181.102.361.203.541.308.335.192.667.39.998.593a40.181 40.181 0 0 1 1.465.926 50.566 50.566 0 0 1 1.402.95l.025.017c.084.057.166.117.249.176.106.074.21.15.315.227.085.061.166.119.251.182a52.438 52.438 0 0 1 2.844 2.227l.111.093.068.057c.09.076.179.151.268.229.332.285.661.573.987.866.077.071.157.14.233.209a60.403 60.403 0 0 1 1.249 1.173c.039.035.075.071.112.107.11.108.219.214.329.324h.001c.123.122.247.246.371.372l.108.108c.039.038.077.078.117.119.066.068.134.136.201.207l.086.09c.05.051.099.1.147.152.046.046.09.094.136.142.059.061.116.123.175.186l.09.094a55.519 55.519 0 0 1 1.577 1.754c.099.114.197.23.296.346l.18.213c.128.152.256.307.384.462l.265.326.147.183a43.296 43.296 0 0 1 .712.908l.04.053c.034.042.068.087.1.13.06.077.118.155.177.233l.174.233c.094.124.185.25.276.375l.156.213c.071.098.143.196.213.296l.002.003.21.293.101.145c.147.21.293.422.437.634l.06.087c.027.04.055.082.081.124.065.094.127.187.19.281.046.071.094.14.139.21.07.104.141.212.209.319.014.019.026.04.039.059a60.356 60.356 0 0 1 .638 1.012 49.61 49.61 0 0 1 .984 1.66 44.19 44.19 0 0 1 .606 1.095c.1.184.197.368.295.552.1.188.196.377.292.566l.228.453c.033.066.064.132.098.198a11.313 11.313 0 0 1 .18.371l.074.15.048.099c.161.338.321.681.474 1.022.089.193.176.386.26.582.021.043.04.09.06.134.065.15.131.301.194.452.084.196.165.391.245.588.082.197.161.395.239.592.077.19.151.383.225.574.082.217.164.432.244.651.071.188.139.378.206.567.048.133.094.265.139.396.016.05.034.098.049.147l.021.06c.011.028.02.057.03.085l.001.006c.06.171.116.344.172.516a18.369 18.369 0 0 1 .19.588c.001.007.004.014.006.02l.019.058.011.035c.054.169.104.338.155.506.045.151.09.298.132.448l.052.18v.002l.053.183c.04.144.081.287.119.433.011.032.02.066.029.099.036.129.071.259.104.389.012.043.025.087.034.131.008.02.012.041.017.062.047.175.092.353.136.531l.134.549.024.104c.01.041.018.08.029.121l.001.001c.039.168.076.337.114.505a43.914 43.914 0 0 1 .26 1.237c.006.035.014.068.019.103.03.145.057.292.085.436a29.926 29.926 0 0 1 .133.754c.034.188.065.375.094.565l.011.073.023.145a48.428 48.428 0 0 1 .16 1.115c.004.023.005.043.008.064a35.15 35.15 0 0 1 .146 1.246c.024.21.045.421.064.631l.007.088c.019.191.034.385.049.578.018.217.034.432.046.65a19.474 19.474 0 0 1 .03.49c.002.047.005.093.006.141l.002.052c.005.047.006.091.008.137.009.18.018.36.025.542l.017.54.001.058.002.068.001.126a37.748 37.748 0 0 1 .014 1.12l-.001 1.779-.001.39c-.002.697-.005 1.479-.011 2.329l-.001.111v.08l-.001.269-.001.144v.129l-.002.379-.004.454-.009.87-.006.55-.006.562-.015 1.15v.005c-.001.131-.002.262-.005.394l-.007.415-.011.76-.007.384-.006.395-.008.354c-.001.103-.002.205-.005.308l-.005.334c-.005.186-.009.372-.012.56a129.52 129.52 0 0 0-.023.982l-.014.518a325.15 325.15 0 0 1-.046 1.702l-.002.09c2.491-.033 3.87-.056 3.87-.056h19.258a123.51 123.51 0 0 0 4.805-3.621 128.97 128.97 0 0 0 7.87-6.77 133.89 133.89 0 0 0 3.732-3.616 144.801 144.801 0 0 0 10.797-12.176 163.832 163.832 0 0 0 8.354-11.542l.192-.293c.065-.098.127-.196.19-.293a12.563 12.563 0 0 0 1.955-3.109 100.312 100.312 0 0 0 .833-1.398l.167-.285c.127-.216.252-.432.377-.65.048-.084.097-.168.144-.253l.315-.554.074-.13c.049-.088.1-.177.147-.265a100.753 100.753 0 0 0 .914-1.67c.152-.285.305-.57.453-.854.007-.014.015-.026.021-.04.071-.136.143-.273.213-.41l.077-.147.157-.306c.015-.026.029-.057.044-.084l.354-.696.149-.295a100.065 100.065 0 0 0 .757-1.544c.314-.651.619-1.302.917-1.957.134-.29.266-.582.396-.875a81.278 81.278 0 0 0 .799-1.833c.13-.307.26-.614.386-.92a72.736 72.736 0 0 0 .604-1.484c.05-.12.096-.24.142-.36l.241-.61.119-.313.067-.174.126-.333.154-.411c.03-.075.058-.152.086-.23.026-.069.054-.139.077-.209.036-.092.07-.186.104-.278l.079-.219c.092-.251.182-.505.272-.758.014-.038.025-.074.041-.113a.566.566 0 0 1 .02-.058c.011-.037.024-.071.036-.106a195.177 195.177 0 0 0 .287-.826l.126-.366c.011-.033.021-.067.033-.099l.079-.234.054-.157.024-.075c.1-.303.2-.605.298-.907l.009-.028.15-.464.149-.47.007-.022c.028-.087.053-.175.08-.261a137.257 137.257 0 0 0 .201-.653c.095-.31.187-.621.28-.931l.004-.01a68.252 68.252 0 0 0 .138-.474c.024-.077.045-.154.067-.233l.065-.229c.09-.309.176-.619.261-.927l.015-.061a49.648 49.648 0 0 0 .364-1.359c.034-.122.065-.244.096-.366l.03-.113.055-.213c.04-.154.078-.307.115-.461l.062-.25a134.156 134.156 0 0 0 .453-1.894l.02-.098.141-.627.016-.068.13-.592.002-.011.11-.514c.029-.139.059-.278.086-.417l.021-.102c.03-.145.061-.288.09-.433l.014-.07.12-.603.055-.277c.045-.236.092-.474.135-.712l.045-.239.011-.059.012-.067c.028-.148.055-.296.08-.444.037-.197.073-.396.107-.595.009-.05.016-.101.024-.151a27.072 27.072 0 0 0 .073-.417l.001-.009.01-.059.016-.102c.014-.076.026-.151.037-.227l.04-.239c.021-.126.042-.252.06-.379a18.335 18.335 0 0 0 .092-.591 25.022 25.022 0 0 0 .073-.469c.009-.054.016-.109.024-.163.039-.252.075-.504.11-.756l.006-.037c.002-.013.005-.026.006-.04l.039-.291c.006-.042.011-.084.018-.124 0-.011.003-.024.004-.035l.023-.167v-.003l.027-.197.024-.186c.012-.084.024-.168.033-.254.017-.121.034-.242.047-.364.011-.083.022-.166.031-.25l.019-.143.002-.02c.012-.09.024-.182.033-.271l.011-.088c.019-.144.035-.29.051-.434.009-.067.015-.134.023-.201l.078-.696.022-.222v-.005c.019-.16.036-.32.052-.48l.031-.308c.006-.072.014-.144.022-.214l.001-.017.01-.107c.016-.172.033-.345.046-.52l.011-.099.029-.328.02-.24c.011-.131.024-.259.034-.389.055-.638.102-1.276.144-1.915.009-.129.016-.259.024-.389a36.936 36.936 0 0 0 .041-.678c.017-.296.033-.593.047-.889l.002-.042.009-.171a44.24 44.24 0 0 0 .033-.704l.001-.043.006-.133.005-.133c.01-.217.017-.432.024-.649l.005-.158c.007-.174.011-.347.016-.519l.009-.281.006-.298.012-.496.005-.329v-.03l.001-.1.005-.261.001-.137.004-.296.002-.362.001-.51.001-.651c-.001-.484-.004-.968-.011-1.453v-.01a90.385 90.385 0 0 0-.024-1.164v-.007l-.015-.586c-.009-.38-.024-.76-.037-1.14l-.001-.031v-.014l-.024-.566v-.006c-.007-.194-.017-.39-.027-.585a57.415 57.415 0 0 0-.033-.664l-.007-.137c-.006-.105-.01-.21-.019-.315l-.005-.094c-.01-.181-.02-.361-.033-.542v-.002a78.874 78.874 0 0 0-.071-1.077l-.008-.117c-.015-.186-.027-.371-.041-.556l-.057-.73-.002-.017c-.02-.244-.04-.488-.062-.73-.024-.282-.051-.564-.076-.847l-.076-.776c-.045-.442-.091-.885-.142-1.329-.026-.245-.056-.491-.083-.737l-.089-.736-.083-.649a135.454 135.454 0 0 0-.314-2.29c-.029-.206-.061-.414-.091-.62h-.001l-.016-.113-.115-.733-.116-.732c-.161-.976-.332-1.949-.515-2.92l-.105-.545-.1-.525-.007-.035a148.76 148.76 0 0 0-.23-1.152l-.121-.573-.042-.205-.112-.526a114.365 114.365 0 0 0-.426-1.906l-.06-.255a143.86 143.86 0 0 0-.668-2.734c-.036-.147-.075-.295-.112-.442l-.161-.613-.127-.48c-.052-.194-.105-.39-.16-.584-.041-.162-.087-.324-.133-.487-.162-.59-.33-1.178-.501-1.766l-.18-.618c-.145-.48-.29-.962-.438-1.441a97.959 97.959 0 0 0-.286-.921l-.169-.53a137.696 137.696 0 0 0-2.658-7.544c-.016-.041-.031-.084-.049-.126a2.825 2.825 0 0 0-.048-.13l-.091-.23-.092-.233c-.065-.167-.13-.336-.197-.503-.013-.035-.025-.07-.041-.105l-.277-.695-.261-.647c-.267-.654-.538-1.306-.815-1.956-.069-.163-.14-.326-.21-.488l-.286-.661-.306-.697a131.729 131.729 0 0 0-.767-1.7c-.085-.191-.175-.38-.262-.57a109.032 109.032 0 0 0-.978-2.066c-.257-.532-.519-1.065-.783-1.595l-.074-.15-.055-.109c-.077-.156-.156-.311-.235-.467l-.39-.765-.352-.68c-.124-.24-.248-.475-.372-.713a145.706 145.706 0 0 0-1.551-2.86c-.081-.15-.165-.297-.248-.445-20.29 9.564-41.331 21.264-58.579 30.733-10.101 5.547-18.904 10.327-25.494 13.466-2.989 1.422-16.602 4.809-16.602 4.809s-.042.067-.127.193c-.337.505-1.364 1.956-3.093 3.745a34.67 34.67 0 0 1-2.038 1.945c-3.289 2.893-8.139 6.067-14.607 7.534-.513.115-1.908.463-3.953.982h-.001c-13.189 3.353-53.365 13.843-57.35 15.285-1.3.469-2.637 1.145-3.991 1.99-.392.244-.787.503-1.18.775h-.001a39.63 39.63 0 0 0-2.539 1.915l-.004.004a57.815 57.815 0 0 0-4.322 3.932l-.002.001-.001.001a80.174 80.174 0 0 0-1.754 1.816c-.412.439-.819.884-1.225 1.336l-.068.077-.386.432a107.333 107.333 0 0 0-4.979 6.079c-3.672 4.821-6.826 9.719-8.956 13.587v.002l-.004.004c-.004.01-.01.018-.014.027l-.036.064c-.373.681-.714 1.33-1.02 1.94-1.113 2.215-1.763 3.919-1.814 4.82-.002.037-.004.073-.004.11l-.008.008z" fill="#003FE5"/>
        <path d="M48.162 199.878h14.93s10.055 12.53 9.871 14.618c-.182 2.088-24.801.57-24.801.57V199.878z" fill="#FED194"/>
        <path d="m180.715 122.106 24.06-.916 2.531-.098 1.125-.042 67.437-2.569 1.512-.058 2.106-.079a96.829 96.829 0 0 0-.217-2.106c-.026-.245-.056-.491-.084-.737-.028-.245-.058-.49-.088-.734l-.083-.65-.116-.891a4.635 4.635 0 0 1-.017-.124l-.075-.541a161.403 161.403 0 0 0-.197-1.354h-.001l-.016-.112-.115-.734a130.054 130.054 0 0 0-.836-4.723l-.007-.035-.014-.065c-.07-.361-.143-.724-.216-1.086l-.121-.574-.042-.205-.112-.526c-.1-.461-.202-.922-.307-1.382-.039-.174-.078-.349-.119-.523l-.06-.255a143.623 143.623 0 0 0-.668-2.734c-.036-.147-.076-.295-.113-.442a274.6 274.6 0 0 0-.287-1.093c-.052-.194-.104-.39-.159-.584a121.231 121.231 0 0 0-.816-2.87 183.623 183.623 0 0 0-.723-2.363c-.056-.176-.112-.354-.17-.53a135.055 135.055 0 0 0-1.907-5.55 158.234 158.234 0 0 0-.751-1.994c-.015-.041-.03-.084-.048-.126a2.873 2.873 0 0 0-.048-.13l-.091-.23a20.799 20.799 0 0 1-.091-.233l-.198-.504-.04-.104-.277-.695-.262-.647a152.555 152.555 0 0 0-1.311-3.105l-.306-.697c-.227-.514-.458-1.027-.692-1.539l-.075-.162a98.05 98.05 0 0 0-.954-2.04l-.286-.595a131.33 131.33 0 0 0-.783-1.596c-.025-.048-.048-.099-.074-.149h-.001c-30.268 15.292-62.205 36.356-76.741 46.258-5.094 3.472-8.052 5.57-8.052 5.57l-.004.003z" fill="#003EC9"/>
        <path d="m201.928 115.32 24.096-.693s.004 0 .005-.002l13.52-.388h.001l19.731-.57 10.284-.296 1.601-.046 7.714-.222-.075-.541a143.721 143.721 0 0 0-.197-1.354h-.001l-.016-.113-.115-.734c-.038-.244-.076-.488-.116-.732a130.054 130.054 0 0 0-.62-3.465l-.1-.525-.007-.035-.014-.066c-.07-.361-.143-.724-.216-1.085l-.121-.574a98.683 98.683 0 0 0-.154-.731c-.1-.462-.202-.922-.307-1.383-.039-.174-.078-.349-.119-.523l-.06-.255a143.574 143.574 0 0 0-.668-2.734c-.036-.147-.076-.295-.113-.441a274.6 274.6 0 0 0-.16-.614l-.127-.48c-.052-.194-.104-.39-.159-.584a121.231 121.231 0 0 0-.816-2.87 149.81 149.81 0 0 0-.723-2.363c-.056-.176-.112-.354-.17-.53a135.061 135.061 0 0 0-1.907-5.55c-.215-.582-.432-1.162-.654-1.742l-.096-.252c-.016-.041-.031-.084-.049-.125a2.873 2.873 0 0 0-.048-.13l-.091-.23a23.332 23.332 0 0 1-.091-.233c-.066-.168-.131-.337-.198-.504a6.81 6.81 0 0 0-.04-.105l-.277-.695-.262-.647a151.96 151.96 0 0 0-1.311-3.105l-.305-.697c-.228-.514-.459-1.027-.693-1.538-.025-.054-.049-.109-.075-.163-7.766 4.095-15.555 8.541-22.916 12.945a677.412 677.412 0 0 0-12.224 7.493 770.986 770.986 0 0 0-16.762 10.829 689.816 689.816 0 0 0-11.369 7.711l-.003.002a314.824 314.824 0 0 0-2.406 1.683l-.001.002z" fill="#fff" stroke="#fff" stroke-width=".112" stroke-miterlimit="10" opacity=".3"/>
        <path opacity=".52" d="M239.55 114.236h18.953l.778-.569 5.741-4.192 11.619-8.487a133.153 133.153 0 0 0-.668-2.734c-.036-.148-.076-.295-.113-.442a92.387 92.387 0 0 0-.161-.614l-.126-.48-.159-.584a121.218 121.218 0 0 0-.816-2.87c-.143-.48-.288-.962-.436-1.442l-20.277 13.131-14.335 9.282v.001z" fill="#fff" stroke="#fff" stroke-width=".112" stroke-miterlimit="10"/>
        <path opacity=".3" d="M90.29 229.54c-.005-.047-7.426-78.83 61.493-78.83s62.611 78.535 62.503 79.745h-7.172l-4.378-.033c.201-6.797.211-13.48.211-16.306 0-28.099-23.796-52.707-50.856-52.707-27.059 0-48.995 22.778-48.995 50.877 0 3.428-.601 11.177-.6 17.351l-12.146-.095-.06-.002zM48.162 181.843c0-2.089 2.886-6.957 2.886-6.957l41.519-8.6-11.005 11.559s-33.4 5.99-33.4 3.997v.001z" fill="#fff"/>
        <path d="M122.627 133.497s3.359-.172 8.79-.265c.958-.017 1.98-.031 3.059-.041h.001c6.673-.063 15.537.021 24.928.575 6.074.359 12.37.915 18.434 1.756 5.898.818 21.632 4.925 25.871 6.044l1.064.283 1.133-.105 35.625-3.335 27.501-2.574 10.912-1.023h.001c.01-.216.017-.431.024-.648l.005-.158.016-.519.009-.281.006-.298.011-.496.006-.33v-.03l.001-.1.005-.259.001-.137.004-.296.002-.364.001-.508c.001-.218.002-.434.001-.652a117.3 117.3 0 0 0-.011-1.453v-.01c-.006-.389-.014-.776-.023-1.164v-.008a117.414 117.414 0 0 0-.054-1.725v-.046l-.024-.566v-.005a58.77 58.77 0 0 0-.027-.586c-.008-.198-.019-.395-.029-.593a1.598 1.598 0 0 0-.004-.071l-.007-.137c-.006-.104-.011-.21-.019-.314l-.004-.095-.034-.541v-.001c-.021-.36-.045-.719-.071-1.079l-.008-.116-.042-.557-.056-.73-.002-.017-.061-.73-.078-.846-2.106.079-1.513.058-67.436 2.568-1.125.043-2.531.097-24.06.917-3.594.705-35.826 7.025-5.54 1.086h-.001l-13.127 2.575.002-.002z" fill="#3369FA"/>
        <path d="M162.071 112.971s-21.214-93.563-26.288-101.134c-5.072-7.571-11.551-9.567-11.565-8.767-.015.8 21.05 87.173 25.586 96.62 5.556 11.57 12.266 13.282 12.266 13.282l.001-.001z" fill="#4C4C4C"/>
        <path opacity=".3" d="m215.45 207.737.698 4.312 1.669 10.293h18.212a125.83 125.83 0 0 0 2.508-2.278 133.876 133.876 0 0 0 3.732-3.615 145.012 145.012 0 0 0 10.797-12.178l-12.707 1.172-22.892 2.107-2.017.187z" fill="#fff"/>
        <path d="M117.206 135.522c-.183 4.176-19.744 30.374-25.778 31.133-6.033.76-40.38 8.231-40.38 8.231s.154-24.01 20.591-28.396c20.438-4.386 45.567-10.968 45.567-10.968z" fill="#FF920F"/>
        <path d="M71.64 146.49c20.438-4.386 45.567-10.968 45.567-10.968-.109 2.471-7.002 12.637-13.864 20.696-12.897 1.206-31.855 3.49-37.63 6.894-9.019 5.315-14.663 11.775-14.663 11.775s.154-24.01 20.591-28.396v-.001z" fill="#FFB900"/>
        <path d="M66.27 161.161c0 4.991-1.372 9.038-3.064 9.038s-3.064-4.047-3.064-9.038c0-4.993 1.372-9.04 3.064-9.04s3.064 4.047 3.064 9.04z" fill="#fff"/>
        <path opacity=".4" d="m71.67 169.187 18.385-6.328 9.296-12.15H71.669v18.478z" fill="#C41C0F"/>
        <path d="M71.67 169.187c1.73 0 3.132-4.136 3.132-9.238 0-5.103-1.403-9.239-3.133-9.239s-3.132 4.136-3.132 9.239c0 5.102 1.402 9.238 3.132 9.238z" fill="#fff"/>
        <path d="M151.783 259.068c23.121 0 41.863-19.462 41.863-43.47s-18.742-43.47-41.863-43.47c-23.12 0-41.863 19.462-41.863 43.47s18.743 43.47 41.863 43.47z" fill="#003FE5"/>
        <path d="M183.396 215.389c.165-18.13-13.856-32.965-31.315-33.137-17.459-.171-31.746 14.389-31.911 32.518-.164 18.13 13.856 32.965 31.315 33.136 17.46.171 31.747-14.388 31.911-32.517z" fill="#003FE5"/>
        <path d="M152.049 245.897c16.101-.161 29.03-13.845 28.875-30.565-.155-16.721-13.334-30.146-29.436-29.985-16.101.16-29.029 13.845-28.875 30.566.155 16.721 13.333 30.145 29.436 29.984z" fill="#FF920F"/>
        <path d="M122.77 208.814a31.272 31.272 0 0 1 5.496-12.101 30.456 30.456 0 0 1 5.43-5.611h.001a29.318 29.318 0 0 1 6.894-4.106 28.671 28.671 0 0 1 10.823-2.26h.001l.369-.002a19.048 19.048 0 0 1 .421.004c8.07.116 15.364 3.57 20.655 9.094a31.114 31.114 0 0 1 7.649 13.762 32.02 32.02 0 0 1 1.012 8.022c0 5.354-1.311 10.39-3.62 14.779a30.907 30.907 0 0 1-4.136 6.019c-5.438 6.194-13.272 10.081-21.982 10.081-11.381 0-21.268-6.639-26.267-16.39-2.216-4.321-3.471-9.253-3.471-14.49 0-2.336.25-4.612.724-6.801h.001zm12.994 22.792a22.557 22.557 0 0 0 6.444 4.75 21.72 21.72 0 0 0 9.576 2.216c3.425 0 6.941-.863 9.939-2.399a22.543 22.543 0 0 0 5.54-4.014 21.815 21.815 0 0 0 1.653-1.811c3.339-4.075 5.355-9.355 5.355-15.124 0-.994-.06-1.972-.176-2.933a23.821 23.821 0 0 0-2.268-7.662 23.289 23.289 0 0 0-5.552-7.261c-2.937-2.572-6.515-4.377-10.45-5.119a21.807 21.807 0 0 0-7.97-.019c-.09.016-.181.032-.271.05-4.062.797-7.737 2.73-10.711 5.468a23.307 23.307 0 0 0-5.174 6.971 23.978 23.978 0 0 0-2.201 7.392 24.566 24.566 0 0 0-.199 3.113c0 5.678 1.952 10.884 5.2 14.931.401.503.824.987 1.267 1.452l-.002-.001z" fill="#FED194"/>
        <path d="M151.783 205.048c5.62 0 10.177 4.731 10.177 10.568 0 5.835-4.556 10.567-10.177 10.567-5.621 0-10.178-4.732-10.178-10.567 0-5.837 4.557-10.568 10.178-10.568z" fill="#003FE5"/>
        <path d="m203.663 141.841.033.195 2.406 13.679 2.584 14.691 7.324 41.656 1.809 10.277h18.212a125.81 125.81 0 0 0 2.509-2.277h-18.865l-1.459-8.28-.747-4.234-6.792-38.541-2.408-13.655-2.378-13.499.019-.112 3.602-20.489-1.079-.205-1.081-.205-.045.249-2.531 14.412-1.065 6.062-.048.276zM191.358 174.935c-3.076-2.722-6.427-5.115-9.91-7.236-3.447-2.089-7.082-3.92-10.835-5.331-9.66-3.736-20.281-4.64-30.408-2.545-2.981.583-5.898 1.408-8.824 2.35l-.053-.131a59.11 59.11 0 0 1 7.703-2.754c1.608-.452 3.336-.824 4.981-1.121 11.962-2.092 23.901.423 34.447 6.537a60.415 60.415 0 0 1 10.03 7.233c1.028.923 2.031 1.874 2.969 2.902l-.1.097v-.001z" fill="#fff"/>
        <path d="M248.282 229.609s-.075.968-.23 2.401a102.22 102.22 0 0 1-.334 2.747 73.802 73.802 0 0 1-.341 2.277c-.187 1.118-.287 2.272-.651 3.237-3.87 10.276.466 12.489.466 12.489l-6.942-.281s-.739-6.66-1.35-13.861a396.365 396.365 0 0 1-.267-3.299l-.036-.462v-.006c-.407-5.408-.656-10.523-.385-12.758.697-5.728 10.068 7.516 10.068 7.516h.002z" fill="#FED194"/>
        <path d="M248.052 232.01a97.811 97.811 0 0 1-.334 2.746c-1.464.687-4.612 1.451-6.44 1.122-2.114-.382-2.571-.408-2.643-.559-.011-.024-.014-.034-.014-.034l-.021-.429v-.005l-.317-6.246 9.769 3.405z" fill="#F59D4E"/>
        <path d="M240.251 252.479s-.739-6.661-1.349-13.863c4.317 1.502 8.476-1.584 8.476-1.584a43.433 43.433 0 0 1-.651 3.237c-1.06 4.305-.97 5.639-.97 5.639l.063 7.483-5.569-.913v.001z" fill="#FFB113"/>
        <path d="M249.121 256.811c-.013.453-.068.892-.19 1.245l-23.935.383s-.607-.232-.843-1.476a5.807 5.807 0 0 1-.092-1.04c-.011-2.162 8.97-4.134 11.936-5.676 3.835-1.994 3.567-.786 3.567-.786s3.353 1.413 7.067-.043c0 0 1.315-2.531 2.278 4.891 0 0 .251 1.298.212 2.502z" fill="#003FE5"/>
        <path d="M249.121 256.812c-.013.452-.068.891-.19 1.244l-23.934.383s-.607-.232-.844-1.476l24.968-.151z" fill="#FFB113"/>
        <path d="M236.041 252.73a.17.17 0 0 1-.168-.163c-.064-1.148-.601-1.943-.608-1.951a.178.178 0 0 1 .04-.242.162.162 0 0 1 .233.041c.024.035.599.886.668 2.131a.171.171 0 0 1-.157.184h-.009.001zM233.773 253.148a.172.172 0 0 1-.168-.164c-.063-1.118-.483-1.593-.486-1.598a.18.18 0 0 1 .005-.246.165.165 0 0 1 .236.005c.02.022.509.558.579 1.819a.17.17 0 0 1-.156.183h-.01v.001zM238.338 252.002a.17.17 0 0 1-.168-.164c-.095-1.893-1.126-1.955-1.136-1.955a.171.171 0 0 1-.161-.18.173.173 0 0 1 .174-.168c.055.002 1.347.078 1.458 2.285a.173.173 0 0 1-.159.182h-.008z" fill="#fff"/>
        <path d="m287.197 233.546.008.088c.07.833.139 1.771.207 2.759.099 1.475.195 3.062.281 4.584.224 3.942.383 7.45.383 7.45l-6.386 2.201-1.81-8.76-.995-4.818-.486-2.364-1.806-8.75-1.164-5.638-.313-1.514s.704-.273 1.773-.347c1.521-.107 3.778.18 5.809 2.202 2.066 2.05 3.903 5.886 4.5 12.908l-.001-.001z" fill="#FED194"/>
        <path d="m287.197 233.546.008.088c.07.833.139 1.771.206 2.759-3.378.672-6.655.712-8.526.658l-.486-2.364-1.806-8.751-1.164-5.638c.407-.627.89-1.252 1.46-1.862 1.521-.107 3.777.18 5.809 2.202 2.066 2.05 3.902 5.887 4.5 12.908h-.001z" fill="#F59D4E"/>
        <path d="M287.508 237.882c.225 3.942.569 10.545.569 10.545l-6.388 2.201-2.473-11.974c.558.192 4.532 1.371 8.292-.772z" fill="#FFB113"/>
        <path d="M289.3 251.794c.028.27.013 1.271.055 1.482.275 1.368.696 2.182-6.763 4.962-8.609 3.208-13.97 3.979-17.117.389-2.825-3.224 5.625-5.669 15.583-12.313-.049.144-.903 4.694 7.201 1.332.337-.141.473.31.552.678.314 1.457.356 2.142.489 3.47z" fill="#003FE5"/>
        <path d="M282.592 258.238c-8.609 3.208-13.969 3.979-17.117.389 0 0 3.518 2.285 8.9 1.034 4.396-1.022 12.461-5.088 14.98-6.386.275 1.368.696 2.182-6.763 4.962v.001z" fill="#FFB113"/>
        <path d="M280.227 250.577a.289.289 0 0 1-.389-.116c-.96-1.701-1.983-2.095-1.994-2.099a.31.31 0 0 1-.179-.388.29.29 0 0 1 .372-.189c.049.017 1.227.452 2.309 2.367a.311.311 0 0 1-.105.418l-.013.008-.001-.001zM278.293 251.692a.288.288 0 0 1-.389-.116c-.96-1.7-1.983-2.095-1.994-2.099a.308.308 0 0 1-.179-.388.289.289 0 0 1 .372-.188c.049.017 1.227.452 2.309 2.367a.313.313 0 0 1-.118.426l-.001-.002zM276.002 253.18a.288.288 0 0 1-.389-.116c-.96-1.7-1.984-2.095-1.994-2.098a.309.309 0 0 1-.179-.389.288.288 0 0 1 .371-.188c.05.017 1.228.452 2.309 2.367a.312.312 0 0 1-.117.425l-.001-.001z" fill="#fff"/>
        <path d="M224.904 105.521s-.99 3.24 0 3.793c.989.553 7.763.411 6.012-2.205-1.75-2.617-6.012-1.59-6.012-1.59v.002z" fill="#FED194"/>
        <path d="M240.147 61.004c.237.158.476.311.718.457 4.435 2.71 9.593 3.58 13.627 3.222l.003-.001h.005c4.05-.36 6.964-1.954 6.875-4.159-.182-4.52-11.965-11.271-11.965-11.271s-18.221 5.756-9.263 11.753v-.001z" fill="#FFB113"/>
        <path opacity=".48" d="M240.865 61.462c2.339 1.43 4.881 2.348 7.353 2.842 2.212.443 4.369.549 6.274.38a.004.004 0 0 0 .003-.002h.004c.16-.037 4.074-.987 5.131-4.052 1.078-3.13-10.073-10.146-10.073-10.146s-9.021 6.355-8.692 10.978z" fill="#F27204"/>
        <path d="M240.865 61.462c2.339 1.43 4.881 2.348 7.353 2.842 0 0 3.116-2.064 4.384-5.631 1.269-3.569-3.046-8.189-3.046-8.189s-9.021 6.355-8.692 10.978h.001z" fill="#F27204"/>
        <path d="M257.278 69.217c-1.065 3.16-7.205 6.744-8.424 6.797-.469.02-1.546-1.543-2.694-3.474l-.002-.002c-1.835-3.088-3.852-7.115-3.852-7.115l4.772-8.308s.64 1.608 1.76 2.424c2.656 1.936 7.75 4.249 8.321 4.46.812.303 1.185 2.056.12 5.218h-.001z" fill="#FED194"/>
        <path d="m245.065 70.634 1.093 1.903c-1.835-3.088-3.852-7.115-3.852-7.115l3.838-7.8s2.081 1.487 3.2 2.303c0 0 .789 6.286-4.28 10.71l.001-.001z" fill="#F59D4E"/>
        <path d="M283.531 116.457c-.559-8.3-3.142-17.33-3.142-17.33 1.769-.141 4.204-.879 8.423-4.086 3.601-3.11 6.648-10.624 6.648-10.624s-15.676-15.971-27.325-19.983a20.01 20.01 0 0 0-1.211-.377l-.007-.002a15.44 15.44 0 0 0-2.028-.424c-11.722-1.58-11.174-1.248-11.174-1.248s3.359 4.41-1.613 7.94c-4.974 3.53-6.833.674-6.833.674l-.964-1.793-1.256-2.33-4.757.498-1.005.105c-8.245 3.47-15.088 38.043-15.088 38.043 5.363 4.215 61.996 15.017 61.996 15.017l.365-2.522c-.562.207-.939-.231-1.028-1.557l-.001-.001z" fill="#fff"/>
        <path opacity=".54" d="M280.389 99.127c-2.661.386-4.489-.563-4.489-.563-.403-1.673-6.699-10.4-6.798-10.537h-.001c-3.383-4.84-1.219-12.91-.659-16.177.558-3.266 3.677-5.686 3.677-5.686l-1.275-.625s-3.096-1.235-5.902 8.893c-2.809 10.127 1.52 37.621 1.52 37.621s9.513-.473 16.393-1.39c-.778-4.921-1.934-9.532-2.465-11.537l-.001.001zM234.583 86.709s-2.379 20.571-7.551 20.875l10.448 2.92-2.897-23.795z" fill="#D2D7DB"/>
        <path opacity=".54" d="M262.656 95.984c-3.35 1.053-25.372.053-25.473-3.741-.086-3.204-.201-19.276 1.108-24.87l4.758-.498 1.254 2.33-1.357.434a4.93 4.93 0 0 0-3.158 3.157c-.814 2.463-1.355 7.034.209 15.23 0 0 .535 2.475 2.666 2.634 2.132.158 17.049-.158 17.507-3.319.456-3.162.352-20.597 6.746-23.286l.008.002 1.21.377s-4.159 5.151-4.666 10.736c-.508 5.585 2.537 19.758-.812 20.813z" fill="#D2D7DB"/>
        <path d="m287.317 224.864-6.479 2.119-4.634 1.517s-7.917-33.038-10.809-36.988c-2.892-3.953-8.829-40.784-8.829-40.784s-2.587 16.755-3.196 36.2c-.606 19.349-3.323 40.423-3.348 40.623h-.001l-13.092.001s-1.673-40.15-2.694-50.267c-.633-6.283.226-28.317.97-44.112l.027-.596.153-3.181c.374-7.711.681-13.178.681-13.178s-1.673-31.3-1.827-38.29c-.151-6.992 3.047-10.45 3.047-10.45l3.043-.319s-2.441 1.32-2.335 8.856c.105 7.535 1.32 15.431 1.32 15.431 3.755.52 22.479-1.1 22.479-1.1v-6.955c0-16.229 5.954-19.086 5.954-19.086.625-.574 3.163.574 3.247.837.085.264-.151.398-.151.398-4.751 4.912-5.193 11.317-4.888 23.541.304 12.224 2.637 21.024 2.637 21.024l14.006-.157c.167.813.327 1.733.483 2.746 2.09 13.744 2.955 44.443 2.104 54.159-.914 10.434-.305 17.23-.305 17.23 1.979 11.224 2.436 40.783 2.436 40.783l.001-.002z" fill="#3369FA"/>
        <path d="M235.098 97.459s8.597 5.595 15.794 7.224c7.197 1.628 16.358-1.347 16.358-1.347l1.341 6.768s-9.071 9.746-20.671 8.509c-11.599-1.237-12.376-12.381-12.376-12.381l-.446-8.773z" fill="#003FE5"/>
        <path d="M280.389 99.128a8.657 8.657 0 0 1-1.411.09c-1.876-.028-3.08-.654-3.08-.654-.402-1.674-6.698-10.4-6.797-10.537h-.001s-1.077-.08 2.03 6.883c2.772 6.214 3.857 8.476 2.333 10.453-1.521 1.975-5.023 3.239-3.653 4.346.742.599 7.083.897 12.95.379-.773-4.701-1.862-9.034-2.372-10.96h.001z" fill="#AEB6B7"/>
        <path d="M256.566 150.728s-2.586 16.755-3.196 36.2c-.606 19.349-3.323 40.423-3.348 40.623h-.001s-13.396-3.556-11.874-4.821c1.522-1.264 7.612-5.295 9.742-16.518 2.132-11.223 5.227-55.852 6.445-57.959 1.217-2.108 2.232 2.475 2.232 2.475z" fill="#003FE5"/>
        <path d="m287.317 224.865-6.479 2.119c-2.196-1.12-3.881-3.113-1.467-4.44 4.075-2.24 3.379-10.482-.016-28.029-3.396-17.547 3.242-37.463 1.671-51.375-1.573-13.909-8.932-15.491-14.716-15.648-5.764-.157-30.908 5.635-31.105 5.68h-.001l.028-.594.153-3.183s32.233-13.277 47.695-16.703c2.09 13.744 2.955 44.443 2.104 54.16-.913 10.433-.305 17.23-.305 17.23 1.979 11.223 2.436 40.783 2.436 40.783h.002z" fill="#003FE5"/>
        <path d="M251.085 218.271s-4.192 2.989-10.506 4.158c0 0 5.323 1.163 10.021.279l.485-4.438v.001zM287.171 218.417s-1.953 2.027-6.443 3.912c-4.489 1.885 6.589 2.535 6.589 2.535l-.146-6.447z" fill="#003EC9"/>
        <path d="M246.216 109.576s8.98-14.594 9.692-14.278c.71.317-8.576 15.206-8.576 15.206l-1.116-.927v-.001z" fill="#003FE5"/>
        <path d="M256.434 116.407s8.251 4.428 17.029 4.411c0 0-19.642-.518-23.344-1.545l6.315-2.866z" stroke="#F59D4E" stroke-width=".112" stroke-miterlimit="10"/>
        <path d="M274.038 120.82s9.698 5.036 10.921 13.889c0 0-.822-12.817-1.024-14.828-.202-2.01-9.896.939-9.896.939h-.001z" fill="#003FE5"/>
        <path d="M281.026 99.013s6.701-1.044 12.47-10.467c0 0 10.794 15.183 7.14 23.509-3.654 8.325-18.374 10.696-50.516 7.218l-.73-4.347s16.377-7.798 36.299-9.6c0 0-2.503-4.285-4.661-6.314l-.002.001z" fill="#FED194"/>
        <path d="M294.582 90.18s-4.229 9.697-11.609 11.096l-1.947-2.263s7.133-1.782 12.47-10.467l1.087 1.635h-.001zM285.687 105.327s7.464-.412 9.773 5.028c0 0-.449-7.426-10.614-6.391l.841 1.363z" fill="#F59D4E"/>
        <path d="m213.943 109.551 30.827-3.32 18.799 19.522-28.183 3.642-21.443-19.844z" fill="#FF9500"/>
        <path d="M223.48 118.377s4.823-1.426 8.02 3.133c3.197 4.558 2.946 7.018 2.946 7.018l-10.966-10.151z" fill="#FF9500"/>
        <path d="M222.538 118.99s2.445-1.072 3.967.396c1.521 1.466.444 1.643.444 1.643s1.821.002 2.227.929c.407.927-.118 1.022-.118 1.022s1.24.279 1.063.984c0 0 .588.239.551.51-.037.272-.983 1.945-2.067.497 0 0-1.991.357-2.046-.451-.054-.81.128-1.03.128-1.03s-2.482.164-2.482-.776c0-.941.055-1.204.055-1.204s-2.176.011-2.59-.3c-.653-.489-.019-1.995.869-2.22h-.001z" fill="#FED194"/>
        <path d="M224.254 121.497c.69-.621 1.842-.8 2.695-.483l.001.031c-.682.048-1.361.141-2.027.297a8.964 8.964 0 0 0-.66.183l-.009-.028zM226.68 123.477c.581-.606 1.611-.818 2.376-.511l.002.03c-.603.058-1.202.166-1.787.327-.194.056-.39.114-.58.182l-.011-.028zM228.595 124.959c.269-.595.886-1.002 1.519-1.007l.016.026c-.496.351-1.003.687-1.518 1.007l-.016-.026h-.001z" fill="#F59D4E"/>
        <path d="m213.943 109.551.915-1.291 30.292-3.577 18.622 19.351-.203 1.72-18.799-19.522-30.827 3.319z" fill="#FFB113"/>
        <path d="M236.701 222.229s7.092.792 14.037-.737c0 0 1.059-.631 1.11 0 .051.632-.21 10.182-1.776 11.17-1.471.929-11.265 1.212-13.193 0-.86-.54-2.132-12.7-.178-10.433zM274.145 223.025s7.131-.135 13.837-2.555c0 0 .975-.765 1.101-.144.127.621 1.021 10.128-.415 11.312-1.347 1.114-11.029 2.668-13.088 1.716-.918-.424-3.647-12.323-1.435-10.329z" fill="#3369FA"/>
        <path d="M246.647 60.954c1.954.124 1.705-2.33 2.53-5.377.346-1.274.442-2.59.439-3.688-.005-1.529-.206-2.638-.206-2.638-.145-1.572-5.494-6.945-9.978-9.415-1.588-.874-3.067-1.384-4.169-1.233-4.214.575 9.43 22.228 11.383 22.351h.001z" fill="#2D374D"/>
        <path d="M232.506 66.873c2.491 1.378 7.618 3.188 11.564-.913 3.947-4.1 2.526-9.457 2.526-9.457s2.9-1.841 1.325-5.76a7.66 7.66 0 0 0-.18-.417c-1.189-2.552-2.958-1.164-4.164.321-.544.67-1.591.404-1.765-.454-.697-3.45-2.208-9.497-4.387-10.616-1.154-.592-3.589-.707-6.143-.295-4.28.69-8.89 2.865-8.344 6.77 0 0-1.844 2.916.291 8.013 2.136 5.095 6.784 11.429 9.276 12.807h.001z" fill="#FED194"/>
        <path d="M222.286 50.683s7.116-3.518 10.293-5.983c3.18-2.464 7.096.478 7.876 2.87.779 2.393 1.39 4.545 3.045 3.664 1.658-.88 2.754-2.673 4.421-.49a6.977 6.977 0 0 0-.181-.418c-1.189-2.552-2.957-1.164-4.164.321-.543.67-1.59.404-1.765-.454-.697-3.45-2.207-9.497-4.387-10.616-1.153-.592-3.588-.707-6.142-.295-.55.346-1.076.76-1.568 1.246-3.559 3.51-6.023 7.313-7.495 8.77-.133.13.065 1.385.065 1.385h.002z" fill="#F59D4E"/>
        <path d="m221.721 46.879 4.481-2.827.319-.157c13.764-6.653 22.888 5.356 22.888 5.356.078-.661.095-1.338.051-2.025-.461-7.514-7.927-16.076-17.623-13.955-10.583 2.313-10.116 13.608-10.116 13.608z" fill="#FFB113"/>
        <path d="m225.882 43.922.639-.027c13.764-6.653 22.888 5.356 22.888 5.356.077-.66.095-1.338.051-2.024-1.425-1.316-3.36-2.753-5.988-4.227-9.855-5.525-17.591.922-17.591.922h.001z" fill="#F27204"/>
        <path d="M221.315 49.884c2.938-.047 6.335-3.26 8.358-5.513h.002c1.095-1.22 1.788-2.157 1.788-2.157-.868.148-2.921.824-2.921.824s-5.769.345-10.533-1.458c-2.813-1.066-2.728 2.045-1.258 4.758v.002c1.021 1.883 2.711 3.574 4.565 3.545l-.001-.001z" fill="#2D374D"/>
        <path d="M225.378 44.077c-1.999 1.188-4.673 1.178-6.597-.175a5.948 5.948 0 0 1-1.6-1.685c-.005-.007-.004-.018.003-.023.51.552 1.068 1.108 1.715 1.503 1.283.804 2.822 1.09 4.303.917a7.726 7.726 0 0 0 2.164-.564c.016-.008.029.019.012.027z" fill="#fff"/>
    </g>
    <defs>
        <clipPath id="vghdqro6ea">
            <path fill="#fff" transform="translate(43.5)" d="M0 0h258v261H0z"/>
        </clipPath>
    </defs>
</svg>
